999
dxfrw 0.6.3
  0
SECTION
  2
HEADER
  9
$ACADVER
  1
AC1021
  9
$DWGCODEPAGE
  3
ANSI_1252
  9
$INSBASE
 10
0
 20
0
 30
0
  9
$EXTMIN
 10
-520
 20
-250
 30
0
  9
$EXTMAX
 10
355
 20
250
 30
0
  9
$LIMMIN
 10
0
 20
0
  9
$LIMMAX
 10
420
 20
297
  9
$ORTHOMODE
 70
    0
  9
$REGENMODE
 70
    1
  9
$FILLMODE
 70
    1
  9
$QTEXTMODE
 70
    0
  9
$MIRRTEXT
 70
    0
  9
$LTSCALE
 40
1
  9
$ATTMODE
 70
    0
  9
$TEXTSIZE
 40
2.5
  9
$TRACEWID
 40
15.68
  9
$TEXTSTYLE
  7
STANDARD
  9
$CLAYER
  8
0
  9
$CELTYPE
  6
BYLAYER
  9
$CECOLOR
 62
  256
  9
$CELTSCALE
 40
1
  9
$DISPSILH
 70
    0
  9
$DIMSCALE
 40
1
  9
$DIMASZ
 40
2.5
  9
$DIMEXO
 40
0.625
  9
$DIMDLI
 40
3.75
  9
$DIMRND
 40
0
  9
$DIMDLE
 40
0
  9
$DIMEXE
 40
1.25
  9
$DIMTP
 40
0
  9
$DIMTM
 40
0
  9
$DIMTXT
 40
2.5
  9
$DIMCEN
 40
2.5
  9
$DIMTSZ
 40
0
  9
$DIMTOL
 70
    0
  9
$DIMLIM
 70
    0
  9
$DIMTIH
 70
    0
  9
$DIMTOH
 70
    0
  9
$DIMSE1
 70
    0
  9
$DIMSE2
 70
    0
  9
$DIMTAD
 70
    1
  9
$DIMZIN
 70
    8
  9
$DIMBLK
  1

  9
$DIMASO
 70
    1
  9
$DIMSHO
 70
    1
  9
$DIMPOST
  1

  9
$DIMAPOST
  1

  9
$DIMALT
 70
    0
  9
$DIMALTD
 70
    3
  9
$DIMALTF
 40
0.03937
  9
$DIMLFAC
 40
1
  9
$DIMTOFL
 70
    1
  9
$DIMTVP
 40
0
  9
$DIMTIX
 70
    0
  9
$DIMSOXD
 70
    0
  9
$DIMSAH
 70
    0
  9
$DIMBLK1
  1

  9
$DIMBLK2
  1

  9
$DIMSTYLE
  2
STANDARD
  9
$DIMCLRD
 70
    0
  9
$DIMCLRE
 70
    0
  9
$DIMCLRT
 70
    0
  9
$DIMTFAC
 40
1
  9
$DIMGAP
 40
0.625
  9
$DIMJUST
 70
    0
  9
$DIMSD1
 70
    0
  9
$DIMSD2
 70
    0
  9
$DIMTOLJ
 70
    0
  9
$DIMTZIN
 70
    8
  9
$DIMALTZ
 70
    0
  9
$DIMALTTZ
 70
    0
  9
$DIMUPT
 70
    0
  9
$DIMDEC
 70
    2
  9
$DIMTDEC
 70
    2
  9
$DIMALTU
 70
    2
  9
$DIMALTTD
 70
    3
  9
$DIMTXSTY
  7
STANDARD
  9
$DIMAUNIT
 70
    0
  9
$DIMADEC
 70
    0
  9
$DIMALTRND
 40
0
  9
$DIMAZIN
 70
    0
  9
$DIMDSEP
 70
   44
  9
$DIMATFIT
 70
    3
  9
$DIMFRAC
 70
    0
  9
$DIMLDRBLK
  1
STANDARD
  9
$DIMLUNIT
 70
    2
  9
$DIMLWD
 70
   -2
  9
$DIMLWE
 70
   -2
  9
$DIMTMOVE
 70
    0
  9
$DIMFXL
 40
1
  9
$DIMFXLON
 70
    0
  9
$DIMJOGANG
 40
0.7854
  9
$DIMTFILL
 70
    0
  9
$DIMTFILLCLR
 70
    0
  9
$DIMARCSYM
 70
    0
  9
$DIMLTYPE
  6

  9
$DIMLTEX1
  6

  9
$DIMLTEX2
  6

  9
$LUNITS
 70
    2
  9
$LUPREC
 70
    4
  9
$SKETCHINC
 40
1
  9
$FILLETRAD
 40
0
  9
$AUNITS
 70
    0
  9
$AUPREC
 70
    2
  9
$MENU
  1
.
  9
$ELEVATION
 40
0
  9
$PELEVATION
 40
0
  9
$THICKNESS
 40
0
  9
$LIMCHECK
 70
    0
  9
$CHAMFERA
 40
0
  9
$CHAMFERB
 40
0
  9
$CHAMFERC
 40
0
  9
$CHAMFERD
 40
0
  9
$SKPOLY
 70
    0
  9
$USRTIMER
 70
    1
  9
$ANGBASE
 50
0
  9
$ANGDIR
 70
    0
  9
$PDMODE
 70
   34
  9
$PDSIZE
 40
0
  9
$PLINEWID
 40
0
  9
$SPLFRAME
 70
    0
  9
$SPLINETYPE
 70
    2
  9
$SPLINESEGS
 70
    8
  9
$HANDSEED
  5
20000
  9
$SURFTAB1
 70
    6
  9
$SURFTAB2
 70
    6
  9
$SURFTYPE
 70
    6
  9
$SURFU
 70
    6
  9
$SURFV
 70
    6
  9
$UCSBASE
  2

  9
$UCSNAME
  2

  9
$UCSORG
 10
0
 20
0
 30
0
  9
$UCSXDIR
 10
1
 20
0
 30
0
  9
$UCSYDIR
 10
0
 20
1
 30
0
  9
$UCSORTHOREF
  2

  9
$UCSORTHOVIEW
 70
    0
  9
$UCSORGTOP
 10
0
 20
0
 30
0
  9
$UCSORGBOTTOM
 10
0
 20
0
 30
0
  9
$UCSORGLEFT
 10
0
 20
0
 30
0
  9
$UCSORGRIGHT
 10
0
 20
0
 30
0
  9
$UCSORGFRONT
 10
0
 20
0
 30
0
  9
$UCSORGBACK
 10
0
 20
0
 30
0
  9
$PUCSBASE
  2

  9
$PUCSNAME
  2

  9
$PUCSORG
 10
0
 20
0
 30
0
  9
$PUCSXDIR
 10
1
 20
0
 30
0
  9
$PUCSYDIR
 10
0
 20
1
 30
0
  9
$PUCSORTHOREF
  2

  9
$PUCSORTHOVIEW
 70
    0
  9
$PUCSORGTOP
 10
0
 20
0
 30
0
  9
$PUCSORGBOTTOM
 10
0
 20
0
 30
0
  9
$PUCSORGLEFT
 10
0
 20
0
 30
0
  9
$PUCSORGRIGHT
 10
0
 20
0
 30
0
  9
$PUCSORGFRONT
 10
0
 20
0
 30
0
  9
$PUCSORGBACK
 10
0
 20
0
 30
0
  9
$USERI1
 70
    0
  9
$USERI2
 70
    0
  9
$USERI3
 70
    0
  9
$USERI4
 70
    0
  9
$USERI5
 70
    0
  9
$USERR1
 40
0
  9
$USERR2
 40
0
  9
$USERR3
 40
0
  9
$USERR4
 40
0
  9
$USERR5
 40
0
  9
$WORLDVIEW
 70
    1
  9
$SHADEDGE
 70
    3
  9
$SHADEDIF
 70
   70
  9
$TILEMODE
 70
    1
  9
$MAXACTVP
 70
   64
  9
$PINSBASE
 10
0
 20
0
 30
0
  9
$PLIMCHECK
 70
    0
  9
$PEXTMIN
 10
0
 20
0
 30
0
  9
$PEXTMAX
 10
0
 20
0
 30
0
  9
$GRIDMODE
 70
    1
  9
$SNAPSTYLE
 70
    0
  9
$PLIMMIN
 10
0
 20
0
  9
$PLIMMAX
 10
297
 20
210
  9
$UNITMODE
 70
    0
  9
$VISRETAIN
 70
    1
  9
$PLINEGEN
 70
    0
  9
$PSLTSCALE
 70
    1
  9
$TREEDEPTH
 70
 3020
  9
$CMLSTYLE
  2
Standard
  9
$CMLJUST
 70
    0
  9
$CMLSCALE
 40
20
  9
$PROXYGRAPHICS
 70
    1
  9
$MEASUREMENT
 70
    1
  9
$CELWEIGHT
370
   -1
  9
$ENDCAPS
280
    0
  9
$JOINSTYLE
280
    0
  9
$LWDISPLAY
290
    0
  9
$INSUNITS
 70
    4
  9
$HYPERLINKBASE
  1

  9
$STYLESHEET
  1

  9
$XEDIT
290
    1
  9
$CEPSNTYPE
380
    0
  9
$PSTYLEMODE
290
    1
  9
$EXTNAMES
290
    1
  9
$PSVPSCALE
 40
1
  9
$OLESTARTUP
290
    0
  9
$SORTENTS
280
  127
  9
$INDEXCTL
280
    0
  9
$HIDETEXT
280
    1
  9
$XCLIPFRAME
290
    0
  9
$HALOGAP
280
    0
  9
$OBSCOLOR
 70
  257
  9
$OBSLTYPE
280
    0
  9
$INTERSECTIONDISPLAY
280
    0
  9
$INTERSECTIONCOLOR
 70
  257
  9
$DIMASSOC
280
    1
  9
$PROJECTNAME
  1

  9
$CAMERADISPLAY
290
    0
  9
$LENSLENGTH
 40
50
  9
$CAMERAHEIGHT
 40
0
  9
$STEPSPERSEC
 40
2
  9
$STEPSIZE
 40
50
  9
$3DDWFPREC
 40
2
  9
$PSOLWIDTH
 40
5
  9
$PSOLHEIGHT
 40
80
  9
$LOFTANG1
 40
1.570796326794897
  9
$LOFTANG2
 40
1.570796326794897
  9
$LOFTMAG1
 40
0
  9
$LOFTMAG2
 40
0
  9
$LOFTPARAM
 70
    7
  9
$LOFTNORMALS
280
    1
  9
$LATITUDE
 40
1
  9
$LONGITUDE
 40
1
  9
$NORTHDIRECTION
 40
0
  9
$TIMEZONE
 70
-8000
  9
$LIGHTGLYPHDISPLAY
280
    1
  9
$TILEMODELIGHTSYNCH
280
    1
  9
$SOLIDHIST
280
    1
  9
$SHOWHIST
280
    1
  9
$DWFFRAME
280
    2
  9
$DGNFRAME
280
    0
  9
$REALWORLDSCALE
290
    1
  9
$INTERFERECOLOR
 62
    1
  9
$CSHADOW
280
    0
  9
$SHADOWPLANELOCATION
 40
0
  0
ENDSEC
  0
SECTION
  2
CLASSES
  0
ENDSEC
  0
SECTION
  2
TABLES
  0
TABLE
  2
VPORT
  5
8
330
0
100
AcDbSymbolTable
 70
    1
  0
VPORT
  5
31
330
2
100
AcDbSymbolTableRecord
100
AcDbViewportTableRecord
  2
*ACTIVE
 70
    0
 10
0
 20
0
 11
1
 21
1
 12
358.3356952669133
 22
138.5709033056341
 13
0
 23
0
 14
10
 24
10
 15
10
 25
10
 16
0
 26
0
 36
1
 17
0
 27
0
 37
0
 40
604.6238241890364
 41
2.574753804834378
 42
50
 43
0
 44
0
 50
0
 51
0
 71
    0
 72
  100
 73
    1
 74
    3
 75
    0
 76
    1
 77
    0
 78
    0
281
    0
 65
    1
110
0
120
0
130
0
111
1
121
0
131
0
112
0
122
1
132
0
 79
    0
146
0
348
10020
 60
    7
 61
    5
292
1
282
    1
141
0
142
0
 63
  250
421
3358443
  0
ENDTAB
  0
TABLE
  2
LTYPE
  5
5
330
0
100
AcDbSymbolTable
 70
    4
  0
LTYPE
  5
14
330
5
100
AcDbSymbolTableRecord
100
AcDbLinetypeTableRecord
  2
ByBlock
 70
    0
  3

 72
   65
 73
    0
 40
0
  0
LTYPE
  5
15
330
5
100
AcDbSymbolTableRecord
100
AcDbLinetypeTableRecord
  2
ByLayer
 70
    0
  3

 72
   65
 73
    0
 40
0
  0
LTYPE
  5
16
330
5
100
AcDbSymbolTableRecord
100
AcDbLinetypeTableRecord
  2
Continuous
 70
    0
  3
Solid line
 72
   65
 73
    0
 40
0
  0
LTYPE
  5
32
330
5
100
AcDbSymbolTableRecord
100
AcDbLinetypeTableRecord
  2
DOT
 70
    0
  3
Dot . . . . . . . . . . . . . . . . . . . . . .
 72
   65
 73
    2
 40
6.35
 49
0
 74
    0
 49
-6.35
 74
    0
  0
LTYPE
  5
33
330
5
100
AcDbSymbolTableRecord
100
AcDbLinetypeTableRecord
  2
DOTTINY
 70
    0
  3
Dot (.15x) .....................................
 72
   65
 73
    2
 40
0.9525
 49
0
 74
    0
 49
-0.9525
 74
    0
  0
LTYPE
  5
34
330
5
100
AcDbSymbolTableRecord
100
AcDbLinetypeTableRecord
  2
DOT2
 70
    0
  3
Dot (.5x) .....................................
 72
   65
 73
    2
 40
3.175
 49
0
 74
    0
 49
-3.175
 74
    0
  0
LTYPE
  5
35
330
5
100
AcDbSymbolTableRecord
100
AcDbLinetypeTableRecord
  2
DOTX2
 70
    0
  3
Dot (2x) .  .  .  .  .  .  .  .  .  .  .  .  .
 72
   65
 73
    2
 40
12.7
 49
0
 74
    0
 49
-12.7
 74
    0
  0
LTYPE
  5
36
330
5
100
AcDbSymbolTableRecord
100
AcDbLinetypeTableRecord
  2
DASHED
 70
    0
  3
Dashed _ _ _ _ _ _ _ _ _ _ _ _ _ _ _ _ _
 72
   65
 73
    2
 40
19.05
 49
12.7
 74
    0
 49
-6.35
 74
    0
  0
LTYPE
  5
37
330
5
100
AcDbSymbolTableRecord
100
AcDbLinetypeTableRecord
  2
DASHEDTINY
 70
    0
  3
Dashed (.15x) _ _ _ _ _ _ _ _ _ _ _ _ _ _ _ _ _
 72
   65
 73
    2
 40
2.8575
 49
1.905
 74
    0
 49
-0.9525
 74
    0
  0
LTYPE
  5
38
330
5
100
AcDbSymbolTableRecord
100
AcDbLinetypeTableRecord
  2
DASHED2
 70
    0
  3
Dashed (.5x) _ _ _ _ _ _ _ _ _ _ _ _ _ _ _ _ _
 72
   65
 73
    2
 40
9.524999999999999
 49
6.35
 74
    0
 49
-3.175
 74
    0
  0
LTYPE
  5
39
330
5
100
AcDbSymbolTableRecord
100
AcDbLinetypeTableRecord
  2
DASHEDX2
 70
    0
  3
Dashed (2x) ____  ____  ____  ____  ____  ___
 72
   65
 73
    2
 40
38.09999999999999
 49
25.4
 74
    0
 49
-12.7
 74
    0
  0
LTYPE
  5
3A
330
5
100
AcDbSymbolTableRecord
100
AcDbLinetypeTableRecord
  2
DASHDOT
 70
    0
  3
Dash dot __ . __ . __ . __ . __ . __ . __ . __
 72
   65
 73
    4
 40
25.4
 49
12.7
 74
    0
 49
-6.35
 74
    0
 49
0
 74
    0
 49
-6.35
 74
    0
  0
LTYPE
  5
3B
330
5
100
AcDbSymbolTableRecord
100
AcDbLinetypeTableRecord
  2
DASHDOTTINY
 70
    0
  3
Dash dot (.15x) _._._._._._._._._._._._._._._.
 72
   65
 73
    4
 40
3.81
 49
1.905
 74
    0
 49
-0.9525
 74
    0
 49
0
 74
    0
 49
-0.9525
 74
    0
  0
LTYPE
  5
3C
330
5
100
AcDbSymbolTableRecord
100
AcDbLinetypeTableRecord
  2
DASHDOT2
 70
    0
  3
Dash dot (.5x) _._._._._._._._._._._._._._._.
 72
   65
 73
    4
 40
12.7
 49
6.35
 74
    0
 49
-3.175
 74
    0
 49
0
 74
    0
 49
-3.175
 74
    0
  0
LTYPE
  5
3D
330
5
100
AcDbSymbolTableRecord
100
AcDbLinetypeTableRecord
  2
DASHDOTX2
 70
    0
  3
Dash dot (2x) ____  .  ____  .  ____  .  ___
 72
   65
 73
    4
 40
50.8
 49
25.4
 74
    0
 49
-12.7
 74
    0
 49
0
 74
    0
 49
-12.7
 74
    0
  0
LTYPE
  5
3E
330
5
100
AcDbSymbolTableRecord
100
AcDbLinetypeTableRecord
  2
DIVIDE
 70
    0
  3
Divide ____ . . ____ . . ____ . . ____ . . ____
 72
   65
 73
    6
 40
31.75
 49
12.7
 74
    0
 49
-6.35
 74
    0
 49
0
 74
    0
 49
-6.35
 74
    0
 49
0
 74
    0
 49
-6.35
 74
    0
  0
LTYPE
  5
3F
330
5
100
AcDbSymbolTableRecord
100
AcDbLinetypeTableRecord
  2
DIVIDETINY
 70
    0
  3
Divide (.15x) __..__..__..__..__..__..__..__.._
 72
   65
 73
    6
 40
4.7625
 49
1.905
 74
    0
 49
-0.9525
 74
    0
 49
0
 74
    0
 49
-0.9525
 74
    0
 49
0
 74
    0
 49
-0.9525
 74
    0
  0
LTYPE
  5
40
330
5
100
AcDbSymbolTableRecord
100
AcDbLinetypeTableRecord
  2
DIVIDE2
 70
    0
  3
Divide (.5x) __..__..__..__..__..__..__..__.._
 72
   65
 73
    6
 40
15.875
 49
6.35
 74
    0
 49
-3.175
 74
    0
 49
0
 74
    0
 49
-3.175
 74
    0
 49
0
 74
    0
 49
-3.175
 74
    0
  0
LTYPE
  5
41
330
5
100
AcDbSymbolTableRecord
100
AcDbLinetypeTableRecord
  2
DIVIDEX2
 70
    0
  3
Divide (2x) ________  .  .  ________  .  .  _
 72
   65
 73
    6
 40
63.5
 49
25.4
 74
    0
 49
-12.7
 74
    0
 49
0
 74
    0
 49
-12.7
 74
    0
 49
0
 74
    0
 49
-12.7
 74
    0
  0
LTYPE
  5
42
330
5
100
AcDbSymbolTableRecord
100
AcDbLinetypeTableRecord
  2
BORDER
 70
    0
  3
Border __ __ . __ __ . __ __ . __ __ . __ __ .
 72
   65
 73
    6
 40
44.45
 49
12.7
 74
    0
 49
-6.35
 74
    0
 49
12.7
 74
    0
 49
-6.35
 74
    0
 49
0
 74
    0
 49
-6.35
 74
    0
  0
LTYPE
  5
43
330
5
100
AcDbSymbolTableRecord
100
AcDbLinetypeTableRecord
  2
BORDERTINY
 70
    0
  3
Border (.15x) __.__.__.__.__.__.__.__.__.__.__.
 72
   65
 73
    6
 40
6.6675
 49
1.905
 74
    0
 49
-0.9525
 74
    0
 49
1.905
 74
    0
 49
-0.9525
 74
    0
 49
0
 74
    0
 49
-0.9525
 74
    0
  0
LTYPE
  5
44
330
5
100
AcDbSymbolTableRecord
100
AcDbLinetypeTableRecord
  2
BORDER2
 70
    0
  3
Border (.5x) __.__.__.__.__.__.__.__.__.__.__.
 72
   65
 73
    6
 40
22.225
 49
6.35
 74
    0
 49
-3.175
 74
    0
 49
6.35
 74
    0
 49
-3.175
 74
    0
 49
0
 74
    0
 49
-3.175
 74
    0
  0
LTYPE
  5
45
330
5
100
AcDbSymbolTableRecord
100
AcDbLinetypeTableRecord
  2
BORDERX2
 70
    0
  3
Border (2x) ____  ____  .  ____  ____  .  ___
 72
   65
 73
    6
 40
88.89999999999999
 49
25.4
 74
    0
 49
-12.7
 74
    0
 49
25.4
 74
    0
 49
-12.7
 74
    0
 49
0
 74
    0
 49
-12.7
 74
    0
  0
LTYPE
  5
46
330
5
100
AcDbSymbolTableRecord
100
AcDbLinetypeTableRecord
  2
CENTER
 70
    0
  3
Center ____ _ ____ _ ____ _ ____ _ ____ _ ____
 72
   65
 73
    4
 40
50.8
 49
31.75
 74
    0
 49
-6.35
 74
    0
 49
6.35
 74
    0
 49
-6.35
 74
    0
  0
LTYPE
  5
47
330
5
100
AcDbSymbolTableRecord
100
AcDbLinetypeTableRecord
  2
CENTERTINY
 70
    0
  3
Center (.15x) ___ _ ___ _ ___ _ ___ _ ___ _ ___
 72
   65
 73
    4
 40
7.619999999999999
 49
4.7625
 74
    0
 49
-0.9525
 74
    0
 49
0.9525
 74
    0
 49
-0.9525
 74
    0
  0
LTYPE
  5
48
330
5
100
AcDbSymbolTableRecord
100
AcDbLinetypeTableRecord
  2
CENTER2
 70
    0
  3
Center (.5x) ___ _ ___ _ ___ _ ___ _ ___ _ ___
 72
   65
 73
    4
 40
28.575
 49
19.05
 74
    0
 49
-3.175
 74
    0
 49
3.175
 74
    0
 49
-3.175
 74
    0
  0
LTYPE
  5
49
330
5
100
AcDbSymbolTableRecord
100
AcDbLinetypeTableRecord
  2
CENTERX2
 70
    0
  3
Center (2x) ________  __  ________  __  _____
 72
   65
 73
    4
 40
101.6
 49
63.5
 74
    0
 49
-12.7
 74
    0
 49
12.7
 74
    0
 49
-12.7
 74
    0
  0
ENDTAB
  0
TABLE
  2
LAYER
  5
2
330
0
100
AcDbSymbolTable
 70
    1
  0
LAYER
  5
10
330
2
100
AcDbSymbolTableRecord
100
AcDbLayerTableRecord
  2
0
 70
    0
 62
    7
  6
CONTINUOUS
370
    0
390
F
  0
ENDTAB
  0
TABLE
  2
STYLE
  5
3
330
0
100
AcDbSymbolTable
 70
    3
  0
STYLE
  5
4A
330
2
100
AcDbSymbolTableRecord
100
AcDbTextStyleTableRecord
  2
Standard
 70
    0
 40
0
 41
1
 50
0
 71
    0
 42
1
  3
txt
  4

  0
ENDTAB
  0
TABLE
  2
VIEW
  5
6
330
0
100
AcDbSymbolTable
 70
    0
  0
ENDTAB
  0
TABLE
  2
UCS
  5
7
330
0
100
AcDbSymbolTable
 70
    0
  0
ENDTAB
  0
TABLE
  2
APPID
  5
9
330
0
100
AcDbSymbolTable
 70
    1
  0
APPID
  5
12
330
9
100
AcDbSymbolTableRecord
100
AcDbRegAppTableRecord
  2
ACAD
 70
    0
  0
APPID
  5
4B
330
9
100
AcDbSymbolTableRecord
100
AcDbRegAppTableRecord
  2
LibreCad
 70
    0
  0
ENDTAB
  0
TABLE
  2
DIMSTYLE
  5
A
330
0
100
AcDbSymbolTable
 70
    1
100
AcDbDimStyleTable
 71
    1
  0
DIMSTYLE
105
4C
330
A
100
AcDbSymbolTableRecord
100
AcDbDimStyleTableRecord
  2
Standard
 70
    0
 40
1
 41
2.5
 42
0.625
 43
0.38
 44
1.25
 45
0
 46
0
 47
0
 48
0
 49
1
140
2.5
141
0.09
142
0
143
25.4
144
1
145
0
146
1
147
0.625
148
0
 71
    0
 72
    0
 73
    0
 74
    1
 75
    0
 76
    0
 77
    0
 78
    8
 79
    0
170
    0
171
    2
172
    0
173
    0
174
    0
175
    0
176
    0
177
    0
178
    0
179
    0
271
    2
272
    4
273
    2
274
    2
275
    0
276
    0
277
    2
278
   44
279
    0
280
    0
281
    0
282
    0
283
    1
284
    0
285
    0
286
    0
288
    0
289
    3
340
STANDARD
341

371
   -2
372
   -2
  0
ENDTAB
  0
TABLE
  2
BLOCK_RECORD
  5
1
330
0
100
AcDbSymbolTable
 70
    2
  0
BLOCK_RECORD
  5
1F
330
1
100
AcDbSymbolTableRecord
100
AcDbBlockTableRecord
  2
*Model_Space
 70
    0
280
    1
281
    0
  0
BLOCK_RECORD
  5
1E
330
1
100
AcDbSymbolTableRecord
100
AcDbBlockTableRecord
  2
*Paper_Space
 70
    0
280
    1
281
    0
  0
BLOCK_RECORD
  5
4D
330
1
100
AcDbSymbolTableRecord
100
AcDbBlockTableRecord
  2
LED_Rings_Only
 70
    0
280
    1
281
    0
  0
BLOCK_RECORD
  5
50
330
1
100
AcDbSymbolTableRecord
100
AcDbBlockTableRecord
  2
LCDBlock
 70
    0
280
    1
281
    0
  0
BLOCK_RECORD
  5
53
330
1
100
AcDbSymbolTableRecord
100
AcDbBlockTableRecord
  2
gEncoderHolesThruLED-1
 70
    0
280
    1
281
    0
  0
BLOCK_RECORD
  5
56
330
1
100
AcDbSymbolTableRecord
100
AcDbBlockTableRecord
  2
BLOCK_FIXED_GRID_DJ_4X2_Keypad_020226-0
 70
    0
280
    1
281
    0
  0
BLOCK_RECORD
  5
59
330
1
100
AcDbSymbolTableRecord
100
AcDbBlockTableRecord
  2
PCB_Keypad2
 70
    0
280
    1
281
    0
  0
BLOCK_RECORD
  5
5C
330
1
100
AcDbSymbolTableRecord
100
AcDbBlockTableRecord
  2
KEYPADLED_PCB
 70
    0
280
    1
281
    0
  0
BLOCK_RECORD
  5
5F
330
1
100
AcDbSymbolTableRecord
100
AcDbBlockTableRecord
  2
BLOCK_FIXED_GRID_DJ_4X2_Keypad_020226-1
 70
    0
280
    1
281
    0
  0
BLOCK_RECORD
  5
62
330
1
100
AcDbSymbolTableRecord
100
AcDbBlockTableRecord
  2
KEYPADLED_PCB2
 70
    0
280
    1
281
    0
  0
BLOCK_RECORD
  5
65
330
1
100
AcDbSymbolTableRecord
100
AcDbBlockTableRecord
  2
BLOCK_FIXED_GLOW_DIAL_CONTROL_PANEL_260126
 70
    0
280
    1
281
    0
  0
BLOCK_RECORD
  5
68
330
1
100
AcDbSymbolTableRecord
100
AcDbBlockTableRecord
  2
TeencyContoller
 70
    0
280
    1
281
    0
  0
BLOCK_RECORD
  5
6B
330
1
100
AcDbSymbolTableRecord
100
AcDbBlockTableRecord
  2
TeensyController
 70
    0
280
    1
281
    0
  0
ENDTAB
  0
ENDSEC
  0
SECTION
  2
BLOCKS
  0
BLOCK
  5
20
330
1F
100
AcDbEntity
  8
0
100
AcDbBlockBegin
  2
*Model_Space
 70
    0
 10
0
 20
0
 30
0
  3
*Model_Space
  1

  0
ENDBLK
  5
21
330
1F
100
AcDbEntity
  8
0
100
AcDbBlockEnd
  0
BLOCK
  5
1C
330
1B
100
AcDbEntity
  8
0
100
AcDbBlockBegin
  2
*Paper_Space
 70
    0
 10
0
 20
0
 30
0
  3
*Paper_Space
  1

  0
ENDBLK
  5
1D
330
1F
100
AcDbEntity
  8
0
100
AcDbBlockEnd
  0
BLOCK
  5
4E
330
4D
100
AcDbEntity
  8
0
100
AcDbBlockBegin
  2
LED_Rings_Only
 70
    0
 10
0
 20
0
  3
LED_Rings_Only
  1

  0
ENDBLK
  5
4F
330
4D
100
AcDbEntity
  8
0
100
AcDbBlockEnd
  0
BLOCK
  5
51
330
50
100
AcDbEntity
  8
0
100
AcDbBlockBegin
  2
LCDBlock
 70
    0
 10
0
 20
0
  3
LCDBlock
  1

  0
ENDBLK
  5
52
330
50
100
AcDbEntity
  8
0
100
AcDbBlockEnd
  0
BLOCK
  5
54
330
53
100
AcDbEntity
  8
0
100
AcDbBlockBegin
  2
gEncoderHolesThruLED-1
 70
    0
 10
0
 20
0
  3
gEncoderHolesThruLED-1
  1

  0
CIRCLE
  5
6E
100
AcDbEntity
  8
0
  6
ByLayer
 62
  256
370
   -1
100
AcDbCircle
 10
0
 20
38.09999999999999
 40
3.5
  0
CIRCLE
  5
6F
100
AcDbEntity
  8
0
  6
ByLayer
 62
  256
370
   -1
100
AcDbCircle
 10
-15.3
 20
53.39999999999999
 40
1.5
  0
CIRCLE
  5
70
100
AcDbEntity
  8
0
  6
ByLayer
 62
  256
370
   -1
100
AcDbCircle
 10
53.28
 20
53.39999999999999
 40
1.5
  0
CIRCLE
  5
71
100
AcDbEntity
  8
0
  6
ByLayer
 62
  256
370
   -1
100
AcDbCircle
 10
129.48
 20
53.39999999999999
 40
1.5
  0
CIRCLE
  5
72
100
AcDbEntity
  8
0
  6
ByLayer
 62
  256
370
   -1
100
AcDbCircle
 10
-15.3
 20
-15.18000000000001
 40
1.5
  0
CIRCLE
  5
73
100
AcDbEntity
  8
0
  6
ByLayer
 62
  256
370
   -1
100
AcDbCircle
 10
129.48
 20
-15.18000000000001
 40
1.5
  0
LWPOLYLINE
  5
74
100
AcDbEntity
  8
0
  6
ByLayer
 62
  256
370
   -1
100
AcDbPolyline
 90
    4
 70
    1
 43
0
 10
-15.7
 20
39.3
 10
-9.9
 20
39.3
 10
-9.9
 20
36.89999999999999
 10
-15.7
 20
36.89999999999999
  0
LWPOLYLINE
  5
75
100
AcDbEntity
  8
0
  6
ByLayer
 62
  256
370
   -1
100
AcDbPolyline
 90
    4
 70
    1
 43
0
 10
-14.96412877926531
 20
33.20052555088162
 10
-9.605627490699851
 20
35.42008945859915
 10
-8.687187253023636
 20
33.20277858057206
 10
-14.0456885415891
 20
30.98321467285454
  0
LWPOLYLINE
  5
76
100
AcDbEntity
  8
0
  6
ByLayer
 62
  256
370
   -1
100
AcDbPolyline
 90
    4
 70
    1
 43
0
 10
10.25304832720494
 20
26.14989539794733
 10
6.151828996322966
 20
30.25111472882931
 10
7.84888527117068
 20
31.94817100367703
 10
11.95010460205265
 20
27.84695167279506
  0
LWPOLYLINE
  5
77
100
AcDbEntity
  8
0
  6
ByLayer
 62
  256
370
   -1
100
AcDbPolyline
 90
    4
 70
    1
 43
0
 10
15.7
 20
36.89999999999999
 10
9.900000000000004
 20
36.89999999999999
 10
9.900000000000004
 20
39.3
 10
15.7
 20
39.3
  0
LWPOLYLINE
  5
78
100
AcDbEntity
  8
0
  6
ByLayer
 62
  256
370
   -1
100
AcDbPolyline
 90
    4
 70
    1
 43
0
 10
14.96412877926531
 20
42.99947444911835
 10
9.605627490699851
 20
40.77991054140084
 10
8.687187253023636
 20
42.99722141942793
 10
14.0456885415891
 20
45.21678532714544
  0
LWPOLYLINE
  5
79
100
AcDbEntity
  8
0
  6
ByLayer
 62
  256
370
   -1
100
AcDbPolyline
 90
    4
 70
    1
 43
0
 10
11.95010460205266
 20
48.35304832720493
 10
7.848885271170682
 20
44.25182899632296
 10
6.151828996322967
 20
45.94888527117067
 10
10.25304832720494
 20
50.05010460205264
  0
LWPOLYLINE
  5
7A
100
AcDbEntity
  8
0
  6
ByLayer
 62
  256
370
   -1
100
AcDbPolyline
 90
    4
 70
    1
 43
0
 10
7.116785327145463
 20
52.14568854158908
 10
4.89722141942794
 20
46.78718725302363
 10
2.679910541400852
 20
47.70562749069984
 10
4.899474449118376
 20
53.0641287792653
  0
LWPOLYLINE
  5
7B
100
AcDbEntity
  8
0
  6
ByLayer
 62
  256
370
   -1
100
AcDbPolyline
 90
    4
 70
    1
 43
0
 10
1.200000000000003
 20
53.8
 10
1.200000000000002
 20
48
 10
-1.199999999999998
 20
48
 10
-1.199999999999997
 20
53.8
  0
LWPOLYLINE
  5
7C
100
AcDbEntity
  8
0
  6
ByLayer
 62
  256
370
   -1
100
AcDbPolyline
 90
    4
 70
    1
 43
0
 10
-10.25304832720494
 20
50.05010460205266
 10
-6.151828996322965
 20
45.94888527117068
 10
-7.84888527117068
 20
44.25182899632296
 10
-11.95010460205265
 20
48.35304832720493
  0
LWPOLYLINE
  5
7D
100
AcDbEntity
  8
0
  6
ByLayer
 62
  256
370
   -1
100
AcDbPolyline
 90
    4
 70
    1
 43
0
 10
-19
 20
57.09999999999999
 10
134
 20
57.09999999999999
 10
134
 20
-22.90000000000001
 10
-19
 20
-22.90000000000001
  0
LWPOLYLINE
  5
7E
100
AcDbEntity
  8
0
  6
ByLayer
 62
  256
370
   -1
100
AcDbPolyline
 90
    4
 70
    1
 43
0
 10
-11.95010460205266
 20
27.84695167279506
 10
-7.848885271170683
 20
31.94817100367703
 10
-6.151828996322965
 20
30.25111472882931
 10
-10.25304832720494
 20
26.14989539794733
  0
LWPOLYLINE
  5
7F
100
AcDbEntity
  8
0
  6
ByLayer
 62
  256
370
   -1
100
AcDbPolyline
 90
    4
 70
    1
 43
0
 10
-1.200000000000004
 20
22.39999999999999
 10
-1.200000000000004
 20
28.19999999999999
 10
1.200000000000002
 20
28.19999999999999
 10
1.200000000000002
 20
22.39999999999999
  0
LWPOLYLINE
  5
80
100
AcDbEntity
  8
0
  6
ByLayer
 62
  256
370
   -1
100
AcDbPolyline
 90
    4
 70
    1
 43
0
 10
14.0456885415891
 20
30.98321467285453
 10
8.687187253023634
 20
33.20277858057206
 10
9.605627490699852
 20
35.42008945859915
 10
14.96412877926531
 20
33.20052555088162
  0
LWPOLYLINE
  5
81
100
AcDbEntity
  8
0
  6
ByLayer
 62
  256
370
   -1
100
AcDbPolyline
 90
    4
 70
    1
 43
0
 10
-4.899474449118367
 20
53.0641287792653
 10
-2.679910541400846
 20
47.70562749069984
 10
-4.89722141942794
 20
46.78718725302363
 10
-7.116785327145461
 20
52.1456885415891
  0
LWPOLYLINE
  5
82
100
AcDbEntity
  8
0
  6
ByLayer
 62
  256
370
   -1
100
AcDbPolyline
 90
    4
 70
    1
 43
0
 10
-14.04568854158909
 20
45.21678532714546
 10
-8.68718725302363
 20
42.99722141942794
 10
-9.605627490699851
 20
40.77991054140084
 10
-14.96412877926531
 20
42.99947444911837
  0
CIRCLE
  5
83
100
AcDbEntity
  8
0
  6
ByLayer
 62
  256
370
   -1
100
AcDbCircle
 10
38.1
 20
38.09999999999999
 40
3.5
  0
LWPOLYLINE
  5
84
100
AcDbEntity
  8
0
  6
ByLayer
 62
  256
370
   -1
100
AcDbPolyline
 90
    4
 70
    1
 43
0
 10
22.4
 20
39.3
 10
28.2
 20
39.3
 10
28.2
 20
36.89999999999999
 10
22.4
 20
36.89999999999999
  0
LWPOLYLINE
  5
85
100
AcDbEntity
  8
0
  6
ByLayer
 62
  256
370
   -1
100
AcDbPolyline
 90
    4
 70
    1
 43
0
 10
23.13587122073469
 20
33.20052555088162
 10
28.49437250930015
 20
35.42008945859915
 10
29.41281274697636
 20
33.20277858057206
 10
24.0543114584109
 20
30.98321467285454
  0
LWPOLYLINE
  5
86
100
AcDbEntity
  8
0
  6
ByLayer
 62
  256
370
   -1
100
AcDbPolyline
 90
    4
 70
    1
 43
0
 10
48.35304832720495
 20
26.14989539794733
 10
44.25182899632297
 20
30.25111472882931
 10
45.94888527117068
 20
31.94817100367703
 10
50.05010460205266
 20
27.84695167279506
  0
LWPOLYLINE
  5
87
100
AcDbEntity
  8
0
  6
ByLayer
 62
  256
370
   -1
100
AcDbPolyline
 90
    4
 70
    1
 43
0
 10
53.8
 20
36.89999999999999
 10
48.00000000000001
 20
36.89999999999999
 10
48.00000000000001
 20
39.3
 10
53.8
 20
39.3
  0
LWPOLYLINE
  5
88
100
AcDbEntity
  8
0
  6
ByLayer
 62
  256
370
   -1
100
AcDbPolyline
 90
    4
 70
    1
 43
0
 10
53.06412877926532
 20
42.99947444911835
 10
47.70562749069985
 20
40.77991054140084
 10
46.78718725302364
 20
42.99722141942793
 10
52.1456885415891
 20
45.21678532714544
  0
LWPOLYLINE
  5
89
100
AcDbEntity
  8
0
  6
ByLayer
 62
  256
370
   -1
100
AcDbPolyline
 90
    4
 70
    1
 43
0
 10
50.05010460205266
 20
48.35304832720493
 10
45.94888527117068
 20
44.25182899632296
 10
44.25182899632297
 20
45.94888527117067
 10
48.35304832720495
 20
50.05010460205264
  0
LWPOLYLINE
  5
8A
100
AcDbEntity
  8
0
  6
ByLayer
 62
  256
370
   -1
100
AcDbPolyline
 90
    4
 70
    1
 43
0
 10
45.21678532714547
 20
52.14568854158908
 10
42.99722141942794
 20
46.78718725302363
 10
40.77991054140085
 20
47.70562749069984
 10
42.99947444911838
 20
53.0641287792653
  0
LWPOLYLINE
  5
8B
100
AcDbEntity
  8
0
  6
ByLayer
 62
  256
370
   -1
100
AcDbPolyline
 90
    4
 70
    1
 43
0
 10
39.3
 20
53.8
 10
39.3
 20
48
 10
36.90000000000001
 20
48
 10
36.90000000000001
 20
53.8
  0
LWPOLYLINE
  5
8C
100
AcDbEntity
  8
0
  6
ByLayer
 62
  256
370
   -1
100
AcDbPolyline
 90
    4
 70
    1
 43
0
 10
27.84695167279506
 20
50.05010460205266
 10
31.94817100367704
 20
45.94888527117068
 10
30.25111472882932
 20
44.25182899632296
 10
26.14989539794735
 20
48.35304832720493
  0
LWPOLYLINE
  5
8D
100
AcDbEntity
  8
0
  6
ByLayer
 62
  256
370
   -1
100
AcDbPolyline
 90
    4
 70
    1
 43
0
 10
26.14989539794734
 20
27.84695167279506
 10
30.25111472882932
 20
31.94817100367703
 10
31.94817100367704
 20
30.25111472882931
 10
27.84695167279506
 20
26.14989539794733
  0
LWPOLYLINE
  5
8E
100
AcDbEntity
  8
0
  6
ByLayer
 62
  256
370
   -1
100
AcDbPolyline
 90
    4
 70
    1
 43
0
 10
52.1456885415891
 20
30.98321467285453
 10
46.78718725302363
 20
33.20277858057206
 10
47.70562749069985
 20
35.42008945859915
 10
53.06412877926532
 20
33.20052555088162
  0
LWPOLYLINE
  5
8F
100
AcDbEntity
  8
0
  6
ByLayer
 62
  256
370
   -1
100
AcDbPolyline
 90
    4
 70
    1
 43
0
 10
33.20052555088164
 20
53.0641287792653
 10
35.42008945859916
 20
47.70562749069984
 10
33.20277858057206
 20
46.78718725302363
 10
30.98321467285454
 20
52.1456885415891
  0
LWPOLYLINE
  5
90
100
AcDbEntity
  8
0
  6
ByLayer
 62
  256
370
   -1
100
AcDbPolyline
 90
    4
 70
    1
 43
0
 10
24.05431145841091
 20
45.21678532714546
 10
29.41281274697637
 20
42.99722141942794
 10
28.49437250930015
 20
40.77991054140084
 10
23.13587122073469
 20
42.99947444911837
  0
CIRCLE
  5
91
100
AcDbEntity
  8
0
  6
ByLayer
 62
  256
370
   -1
100
AcDbCircle
 10
76.2
 20
38.09999999999999
 40
3.5
  0
LWPOLYLINE
  5
92
100
AcDbEntity
  8
0
  6
ByLayer
 62
  256
370
   -1
100
AcDbPolyline
 90
    4
 70
    1
 43
0
 10
60.5
 20
39.3
 10
66.3
 20
39.3
 10
66.3
 20
36.89999999999999
 10
60.5
 20
36.89999999999999
  0
LWPOLYLINE
  5
93
100
AcDbEntity
  8
0
  6
ByLayer
 62
  256
370
   -1
100
AcDbPolyline
 90
    4
 70
    1
 43
0
 10
61.23587122073469
 20
33.20052555088162
 10
66.59437250930014
 20
35.42008945859915
 10
67.51281274697637
 20
33.20277858057206
 10
62.1543114584109
 20
30.98321467285454
  0
LWPOLYLINE
  5
94
100
AcDbEntity
  8
0
  6
ByLayer
 62
  256
370
   -1
100
AcDbPolyline
 90
    4
 70
    1
 43
0
 10
86.45304832720495
 20
26.14989539794733
 10
82.35182899632298
 20
30.25111472882931
 10
84.04888527117069
 20
31.94817100367703
 10
88.15010460205266
 20
27.84695167279506
  0
LWPOLYLINE
  5
95
100
AcDbEntity
  8
0
  6
ByLayer
 62
  256
370
   -1
100
AcDbPolyline
 90
    4
 70
    1
 43
0
 10
91.90000000000001
 20
36.89999999999999
 10
86.10000000000001
 20
36.89999999999999
 10
86.10000000000001
 20
39.3
 10
91.90000000000001
 20
39.3
  0
LWPOLYLINE
  5
96
100
AcDbEntity
  8
0
  6
ByLayer
 62
  256
370
   -1
100
AcDbPolyline
 90
    4
 70
    1
 43
0
 10
91.16412877926533
 20
42.99947444911835
 10
85.80562749069986
 20
40.77991054140084
 10
84.88718725302364
 20
42.99722141942793
 10
90.2456885415891
 20
45.21678532714544
  0
LWPOLYLINE
  5
97
100
AcDbEntity
  8
0
  6
ByLayer
 62
  256
370
   -1
100
AcDbPolyline
 90
    4
 70
    1
 43
0
 10
88.15010460205266
 20
48.35304832720493
 10
84.04888527117069
 20
44.25182899632296
 10
82.35182899632298
 20
45.94888527117067
 10
86.45304832720495
 20
50.05010460205264
  0
LWPOLYLINE
  5
98
100
AcDbEntity
  8
0
  6
ByLayer
 62
  256
370
   -1
100
AcDbPolyline
 90
    4
 70
    1
 43
0
 10
83.31678532714547
 20
52.14568854158908
 10
81.09722141942794
 20
46.78718725302363
 10
78.87991054140085
 20
47.70562749069984
 10
81.09947444911839
 20
53.0641287792653
  0
LWPOLYLINE
  5
99
100
AcDbEntity
  8
0
  6
ByLayer
 62
  256
370
   -1
100
AcDbPolyline
 90
    4
 70
    1
 43
0
 10
77.40000000000001
 20
53.8
 10
77.40000000000001
 20
48
 10
75
 20
48
 10
75
 20
53.8
  0
LWPOLYLINE
  5
9A
100
AcDbEntity
  8
0
  6
ByLayer
 62
  256
370
   -1
100
AcDbPolyline
 90
    4
 70
    1
 43
0
 10
65.94695167279507
 20
50.05010460205266
 10
70.04817100367704
 20
45.94888527117068
 10
68.35111472882932
 20
44.25182899632296
 10
64.24989539794734
 20
48.35304832720493
  0
LWPOLYLINE
  5
9B
100
AcDbEntity
  8
0
  6
ByLayer
 62
  256
370
   -1
100
AcDbPolyline
 90
    4
 70
    1
 43
0
 10
64.24989539794734
 20
27.84695167279506
 10
68.35111472882932
 20
31.94817100367703
 10
70.04817100367704
 20
30.25111472882931
 10
65.94695167279507
 20
26.14989539794733
  0
LWPOLYLINE
  5
9C
100
AcDbEntity
  8
0
  6
ByLayer
 62
  256
370
   -1
100
AcDbPolyline
 90
    4
 70
    1
 43
0
 10
90.24568854158909
 20
30.98321467285453
 10
84.88718725302363
 20
33.20277858057206
 10
85.80562749069986
 20
35.42008945859915
 10
91.16412877926533
 20
33.20052555088162
  0
LWPOLYLINE
  5
9D
100
AcDbEntity
  8
0
  6
ByLayer
 62
  256
370
   -1
100
AcDbPolyline
 90
    4
 70
    1
 43
0
 10
71.30052555088164
 20
53.0641287792653
 10
73.52008945859916
 20
47.70562749069984
 10
71.30277858057207
 20
46.78718725302363
 10
69.08321467285454
 20
52.1456885415891
  0
LWPOLYLINE
  5
9E
100
AcDbEntity
  8
0
  6
ByLayer
 62
  256
370
   -1
100
AcDbPolyline
 90
    4
 70
    1
 43
0
 10
62.15431145841091
 20
45.21678532714546
 10
67.51281274697638
 20
42.99722141942794
 10
66.59437250930016
 20
40.77991054140084
 10
61.23587122073469
 20
42.99947444911837
  0
CIRCLE
  5
9F
100
AcDbEntity
  8
0
  6
ByLayer
 62
  256
370
   -1
100
AcDbCircle
 10
114.3
 20
38.09999999999999
 40
3.5
  0
LWPOLYLINE
  5
A0
100
AcDbEntity
  8
0
  6
ByLayer
 62
  256
370
   -1
100
AcDbPolyline
 90
    4
 70
    1
 43
0
 10
98.59999999999999
 20
39.3
 10
104.4
 20
39.3
 10
104.4
 20
36.89999999999999
 10
98.59999999999999
 20
36.89999999999999
  0
LWPOLYLINE
  5
A1
100
AcDbEntity
  8
0
  6
ByLayer
 62
  256
370
   -1
100
AcDbPolyline
 90
    4
 70
    1
 43
0
 10
99.3358712207347
 20
33.20052555088162
 10
104.6943725093001
 20
35.42008945859915
 10
105.6128127469764
 20
33.20277858057206
 10
100.2543114584109
 20
30.98321467285454
  0
LWPOLYLINE
  5
A2
100
AcDbEntity
  8
0
  6
ByLayer
 62
  256
370
   -1
100
AcDbPolyline
 90
    4
 70
    1
 43
0
 10
124.5530483272049
 20
26.14989539794733
 10
120.451828996323
 20
30.25111472882931
 10
122.1488852711707
 20
31.94817100367703
 10
126.2501046020527
 20
27.84695167279506
  0
LWPOLYLINE
  5
A3
100
AcDbEntity
  8
0
  6
ByLayer
 62
  256
370
   -1
100
AcDbPolyline
 90
    4
 70
    1
 43
0
 10
130
 20
36.89999999999999
 10
124.2
 20
36.89999999999999
 10
124.2
 20
39.3
 10
130
 20
39.3
  0
LWPOLYLINE
  5
A4
100
AcDbEntity
  8
0
  6
ByLayer
 62
  256
370
   -1
100
AcDbPolyline
 90
    4
 70
    1
 43
0
 10
129.2641287792653
 20
42.99947444911835
 10
123.9056274906999
 20
40.77991054140084
 10
122.9871872530236
 20
42.99722141942793
 10
128.3456885415891
 20
45.21678532714544
  0
LWPOLYLINE
  5
A5
100
AcDbEntity
  8
0
  6
ByLayer
 62
  256
370
   -1
100
AcDbPolyline
 90
    4
 70
    1
 43
0
 10
126.2501046020527
 20
48.35304832720493
 10
122.1488852711707
 20
44.25182899632296
 10
120.451828996323
 20
45.94888527117067
 10
124.5530483272049
 20
50.05010460205264
  0
LWPOLYLINE
  5
A6
100
AcDbEntity
  8
0
  6
ByLayer
 62
  256
370
   -1
100
AcDbPolyline
 90
    4
 70
    1
 43
0
 10
121.4167853271455
 20
52.14568854158908
 10
119.1972214194279
 20
46.78718725302363
 10
116.9799105414008
 20
47.70562749069984
 10
119.1994744491184
 20
53.0641287792653
  0
LWPOLYLINE
  5
A7
100
AcDbEntity
  8
0
  6
ByLayer
 62
  256
370
   -1
100
AcDbPolyline
 90
    4
 70
    1
 43
0
 10
115.5
 20
53.8
 10
115.5
 20
48
 10
113.1
 20
48
 10
113.1
 20
53.8
  0
LWPOLYLINE
  5
A8
100
AcDbEntity
  8
0
  6
ByLayer
 62
  256
370
   -1
100
AcDbPolyline
 90
    4
 70
    1
 43
0
 10
104.0469516727951
 20
50.05010460205266
 10
108.148171003677
 20
45.94888527117068
 10
106.4511147288293
 20
44.25182899632296
 10
102.3498953979473
 20
48.35304832720493
  0
LWPOLYLINE
  5
A9
100
AcDbEntity
  8
0
  6
ByLayer
 62
  256
370
   -1
100
AcDbPolyline
 90
    4
 70
    1
 43
0
 10
102.3498953979473
 20
27.84695167279506
 10
106.4511147288293
 20
31.94817100367703
 10
108.148171003677
 20
30.25111472882931
 10
104.0469516727951
 20
26.14989539794733
  0
LWPOLYLINE
  5
AA
100
AcDbEntity
  8
0
  6
ByLayer
 62
  256
370
   -1
100
AcDbPolyline
 90
    4
 70
    1
 43
0
 10
128.3456885415891
 20
30.98321467285453
 10
122.9871872530236
 20
33.20277858057206
 10
123.9056274906999
 20
35.42008945859915
 10
129.2641287792653
 20
33.20052555088162
  0
LWPOLYLINE
  5
AB
100
AcDbEntity
  8
0
  6
ByLayer
 62
  256
370
   -1
100
AcDbPolyline
 90
    4
 70
    1
 43
0
 10
109.4005255508816
 20
53.0641287792653
 10
111.6200894585992
 20
47.70562749069984
 10
109.4027785805721
 20
46.78718725302363
 10
107.1832146728545
 20
52.1456885415891
  0
LWPOLYLINE
  5
AC
100
AcDbEntity
  8
0
  6
ByLayer
 62
  256
370
   -1
100
AcDbPolyline
 90
    4
 70
    1
 43
0
 10
100.2543114584109
 20
45.21678532714546
 10
105.6128127469764
 20
42.99722141942794
 10
104.6943725093002
 20
40.77991054140084
 10
99.3358712207347
 20
42.99947444911837
  0
CIRCLE
  5
AD
100
AcDbEntity
  8
0
  6
ByLayer
 62
  256
370
   -1
100
AcDbCircle
 10
0
 20
0
 40
3.5
  0
LWPOLYLINE
  5
AE
100
AcDbEntity
  8
0
  6
ByLayer
 62
  256
370
   -1
100
AcDbPolyline
 90
    4
 70
    1
 43
0
 10
-15.7
 20
1.199999999999989
 10
-9.9
 20
1.199999999999989
 10
-9.9
 20
-1.200000000000003
 10
-15.7
 20
-1.200000000000003
  0
LWPOLYLINE
  5
AF
100
AcDbEntity
  8
0
  6
ByLayer
 62
  256
370
   -1
100
AcDbPolyline
 90
    4
 70
    1
 43
0
 10
-14.96412877926531
 20
-4.899474449118401
 10
-9.605627490699851
 20
-2.679910541400901
 10
-8.687187253023636
 20
-4.897221419427908
 10
-14.0456885415891
 20
-7.116785327145507
  0
LWPOLYLINE
  5
B0
100
AcDbEntity
  8
0
  6
ByLayer
 62
  256
370
   -1
100
AcDbPolyline
 90
    4
 70
    1
 43
0
 10
10.25304832720494
 20
-11.9501046020527
 10
6.151828996322966
 20
-7.848885271170701
 10
7.84888527117068
 20
-6.151828996323005
 10
11.95010460205265
 20
-10.25304832720491
  0
LWPOLYLINE
  5
B1
100
AcDbEntity
  8
0
  6
ByLayer
 62
  256
370
   -1
100
AcDbPolyline
 90
    4
 70
    1
 43
0
 10
15.7
 20
-1.200000000000003
 10
9.900000000000004
 20
-1.200000000000003
 10
9.900000000000004
 20
1.199999999999989
 10
15.7
 20
1.199999999999989
  0
LWPOLYLINE
  5
B2
100
AcDbEntity
  8
0
  6
ByLayer
 62
  256
370
   -1
100
AcDbPolyline
 90
    4
 70
    1
 43
0
 10
14.96412877926531
 20
4.899474449118301
 10
9.605627490699851
 20
2.679910541400801
 10
8.687187253023636
 20
4.897221419427893
 10
14.0456885415891
 20
7.116785327145394
  0
LWPOLYLINE
  5
B3
100
AcDbEntity
  8
0
  6
ByLayer
 62
  256
370
   -1
100
AcDbPolyline
 90
    4
 70
    1
 43
0
 10
11.95010460205266
 20
10.25304832720489
 10
7.848885271170682
 20
6.15182899632299
 10
6.151828996322967
 20
7.848885271170701
 10
10.25304832720494
 20
11.95010460205269
  0
LWPOLYLINE
  5
B4
100
AcDbEntity
  8
0
  6
ByLayer
 62
  256
370
   -1
100
AcDbPolyline
 90
    4
 70
    1
 43
0
 10
7.116785327145463
 20
14.0456885415891
 10
4.89722141942794
 20
8.687187253023595
 10
2.679910541400852
 20
9.605627490699888
 10
4.899474449118376
 20
14.96412877926529
  0
LWPOLYLINE
  5
B5
100
AcDbEntity
  8
0
  6
ByLayer
 62
  256
370
   -1
100
AcDbPolyline
 90
    4
 70
    1
 43
0
 10
1.200000000000003
 20
15.69999999999999
 10
1.200000000000002
 20
9.899999999999991
 10
-1.199999999999998
 20
9.899999999999991
 10
-1.199999999999997
 20
15.69999999999999
  0
LWPOLYLINE
  5
B6
100
AcDbEntity
  8
0
  6
ByLayer
 62
  256
370
   -1
100
AcDbPolyline
 90
    4
 70
    1
 43
0
 10
-10.25304832720494
 20
11.95010460205269
 10
-6.151828996322965
 20
7.848885271170701
 10
-7.84888527117068
 20
6.15182899632299
 10
-11.95010460205265
 20
10.25304832720489
  0
LWPOLYLINE
  5
B7
100
AcDbEntity
  8
0
  6
ByLayer
 62
  256
370
   -1
100
AcDbPolyline
 90
    4
 70
    1
 43
0
 10
-11.95010460205266
 20
-10.25304832720491
 10
-7.848885271170683
 20
-6.151828996323005
 10
-6.151828996322965
 20
-7.848885271170701
 10
-10.25304832720494
 20
-11.9501046020527
  0
LWPOLYLINE
  5
B8
100
AcDbEntity
  8
0
  6
ByLayer
 62
  256
370
   -1
100
AcDbPolyline
 90
    4
 70
    1
 43
0
 10
14.0456885415891
 20
-7.116785327145507
 10
8.687187253023634
 20
-4.897221419427908
 10
9.605627490699852
 20
-2.679910541400901
 10
14.96412877926531
 20
-4.899474449118401
  0
LWPOLYLINE
  5
B9
100
AcDbEntity
  8
0
  6
ByLayer
 62
  256
370
   -1
100
AcDbPolyline
 90
    4
 70
    1
 43
0
 10
-4.899474449118367
 20
14.96412877926529
 10
-2.679910541400846
 20
9.605627490699888
 10
-4.89722141942794
 20
8.687187253023595
 10
-7.116785327145461
 20
14.0456885415891
  0
LWPOLYLINE
  5
BA
100
AcDbEntity
  8
0
  6
ByLayer
 62
  256
370
   -1
100
AcDbPolyline
 90
    4
 70
    1
 43
0
 10
-14.04568854158909
 20
7.116785327145493
 10
-8.68718725302363
 20
4.897221419427993
 10
-9.605627490699851
 20
2.679910541400801
 10
-14.96412877926531
 20
4.899474449118401
  0
CIRCLE
  5
BB
100
AcDbEntity
  8
0
  6
ByLayer
 62
  256
370
   -1
100
AcDbCircle
 10
38.1
 20
0
 40
3.5
  0
LWPOLYLINE
  5
BC
100
AcDbEntity
  8
0
  6
ByLayer
 62
  256
370
   -1
100
AcDbPolyline
 90
    4
 70
    1
 43
0
 10
22.4
 20
1.199999999999989
 10
28.2
 20
1.199999999999989
 10
28.2
 20
-1.200000000000003
 10
22.4
 20
-1.200000000000003
  0
LWPOLYLINE
  5
BD
100
AcDbEntity
  8
0
  6
ByLayer
 62
  256
370
   -1
100
AcDbPolyline
 90
    4
 70
    1
 43
0
 10
23.13587122073469
 20
-4.899474449118401
 10
28.49437250930015
 20
-2.679910541400901
 10
29.41281274697636
 20
-4.897221419427908
 10
24.0543114584109
 20
-7.116785327145507
  0
LWPOLYLINE
  5
BE
100
AcDbEntity
  8
0
  6
ByLayer
 62
  256
370
   -1
100
AcDbPolyline
 90
    4
 70
    1
 43
0
 10
48.35304832720495
 20
-11.9501046020527
 10
44.25182899632297
 20
-7.848885271170701
 10
45.94888527117068
 20
-6.151828996323005
 10
50.05010460205266
 20
-10.25304832720491
  0
LWPOLYLINE
  5
BF
100
AcDbEntity
  8
0
  6
ByLayer
 62
  256
370
   -1
100
AcDbPolyline
 90
    4
 70
    1
 43
0
 10
53.8
 20
-1.200000000000003
 10
48.00000000000001
 20
-1.200000000000003
 10
48.00000000000001
 20
1.199999999999989
 10
53.8
 20
1.199999999999989
  0
LWPOLYLINE
  5
C0
100
AcDbEntity
  8
0
  6
ByLayer
 62
  256
370
   -1
100
AcDbPolyline
 90
    4
 70
    1
 43
0
 10
53.06412877926532
 20
4.899474449118301
 10
47.70562749069985
 20
2.679910541400801
 10
46.78718725302364
 20
4.897221419427893
 10
52.1456885415891
 20
7.116785327145394
  0
LWPOLYLINE
  5
C1
100
AcDbEntity
  8
0
  6
ByLayer
 62
  256
370
   -1
100
AcDbPolyline
 90
    4
 70
    1
 43
0
 10
50.05010460205266
 20
10.25304832720489
 10
45.94888527117068
 20
6.15182899632299
 10
44.25182899632297
 20
7.848885271170701
 10
48.35304832720495
 20
11.95010460205269
  0
LWPOLYLINE
  5
C2
100
AcDbEntity
  8
0
  6
ByLayer
 62
  256
370
   -1
100
AcDbPolyline
 90
    4
 70
    1
 43
0
 10
45.21678532714547
 20
14.0456885415891
 10
42.99722141942794
 20
8.687187253023595
 10
40.77991054140085
 20
9.605627490699888
 10
42.99947444911838
 20
14.96412877926529
  0
LWPOLYLINE
  5
C3
100
AcDbEntity
  8
0
  6
ByLayer
 62
  256
370
   -1
100
AcDbPolyline
 90
    4
 70
    1
 43
0
 10
39.3
 20
15.69999999999999
 10
39.3
 20
9.899999999999991
 10
36.90000000000001
 20
9.899999999999991
 10
36.90000000000001
 20
15.69999999999999
  0
LWPOLYLINE
  5
C4
100
AcDbEntity
  8
0
  6
ByLayer
 62
  256
370
   -1
100
AcDbPolyline
 90
    4
 70
    1
 43
0
 10
27.84695167279506
 20
11.95010460205269
 10
31.94817100367704
 20
7.848885271170701
 10
30.25111472882932
 20
6.15182899632299
 10
26.14989539794735
 20
10.25304832720489
  0
LWPOLYLINE
  5
C5
100
AcDbEntity
  8
0
  6
ByLayer
 62
  256
370
   -1
100
AcDbPolyline
 90
    4
 70
    1
 43
0
 10
26.14989539794734
 20
-10.25304832720491
 10
30.25111472882932
 20
-6.151828996323005
 10
31.94817100367704
 20
-7.848885271170701
 10
27.84695167279506
 20
-11.9501046020527
  0
LWPOLYLINE
  5
C6
100
AcDbEntity
  8
0
  6
ByLayer
 62
  256
370
   -1
100
AcDbPolyline
 90
    4
 70
    1
 43
0
 10
52.1456885415891
 20
-7.116785327145507
 10
46.78718725302363
 20
-4.897221419427908
 10
47.70562749069985
 20
-2.679910541400901
 10
53.06412877926532
 20
-4.899474449118401
  0
LWPOLYLINE
  5
C7
100
AcDbEntity
  8
0
  6
ByLayer
 62
  256
370
   -1
100
AcDbPolyline
 90
    4
 70
    1
 43
0
 10
33.20052555088164
 20
14.96412877926529
 10
35.42008945859916
 20
9.605627490699888
 10
33.20277858057206
 20
8.687187253023595
 10
30.98321467285454
 20
14.0456885415891
  0
LWPOLYLINE
  5
C8
100
AcDbEntity
  8
0
  6
ByLayer
 62
  256
370
   -1
100
AcDbPolyline
 90
    4
 70
    1
 43
0
 10
24.05431145841091
 20
7.116785327145493
 10
29.41281274697637
 20
4.897221419427993
 10
28.49437250930015
 20
2.679910541400801
 10
23.13587122073469
 20
4.899474449118401
  0
CIRCLE
  5
C9
100
AcDbEntity
  8
0
  6
ByLayer
 62
  256
370
   -1
100
AcDbCircle
 10
76.2
 20
0
 40
3.5
  0
LWPOLYLINE
  5
CA
100
AcDbEntity
  8
0
  6
ByLayer
 62
  256
370
   -1
100
AcDbPolyline
 90
    4
 70
    1
 43
0
 10
60.5
 20
1.199999999999989
 10
66.3
 20
1.199999999999989
 10
66.3
 20
-1.200000000000003
 10
60.5
 20
-1.200000000000003
  0
LWPOLYLINE
  5
CB
100
AcDbEntity
  8
0
  6
ByLayer
 62
  256
370
   -1
100
AcDbPolyline
 90
    4
 70
    1
 43
0
 10
61.23587122073469
 20
-4.899474449118401
 10
66.59437250930014
 20
-2.679910541400901
 10
67.51281274697637
 20
-4.897221419427908
 10
62.1543114584109
 20
-7.116785327145507
  0
LWPOLYLINE
  5
CC
100
AcDbEntity
  8
0
  6
ByLayer
 62
  256
370
   -1
100
AcDbPolyline
 90
    4
 70
    1
 43
0
 10
86.45304832720495
 20
-11.9501046020527
 10
82.35182899632298
 20
-7.848885271170701
 10
84.04888527117069
 20
-6.151828996323005
 10
88.15010460205266
 20
-10.25304832720491
  0
LWPOLYLINE
  5
CD
100
AcDbEntity
  8
0
  6
ByLayer
 62
  256
370
   -1
100
AcDbPolyline
 90
    4
 70
    1
 43
0
 10
91.90000000000001
 20
-1.200000000000003
 10
86.10000000000001
 20
-1.200000000000003
 10
86.10000000000001
 20
1.199999999999989
 10
91.90000000000001
 20
1.199999999999989
  0
LWPOLYLINE
  5
CE
100
AcDbEntity
  8
0
  6
ByLayer
 62
  256
370
   -1
100
AcDbPolyline
 90
    4
 70
    1
 43
0
 10
91.16412877926533
 20
4.899474449118301
 10
85.80562749069986
 20
2.679910541400801
 10
84.88718725302364
 20
4.897221419427893
 10
90.2456885415891
 20
7.116785327145394
  0
LWPOLYLINE
  5
CF
100
AcDbEntity
  8
0
  6
ByLayer
 62
  256
370
   -1
100
AcDbPolyline
 90
    4
 70
    1
 43
0
 10
88.15010460205266
 20
10.25304832720489
 10
84.04888527117069
 20
6.15182899632299
 10
82.35182899632298
 20
7.848885271170701
 10
86.45304832720495
 20
11.95010460205269
  0
LWPOLYLINE
  5
D0
100
AcDbEntity
  8
0
  6
ByLayer
 62
  256
370
   -1
100
AcDbPolyline
 90
    4
 70
    1
 43
0
 10
83.31678532714547
 20
14.0456885415891
 10
81.09722141942794
 20
8.687187253023595
 10
78.87991054140085
 20
9.605627490699888
 10
81.09947444911839
 20
14.96412877926529
  0
LWPOLYLINE
  5
D1
100
AcDbEntity
  8
0
  6
ByLayer
 62
  256
370
   -1
100
AcDbPolyline
 90
    4
 70
    1
 43
0
 10
77.40000000000001
 20
15.69999999999999
 10
77.40000000000001
 20
9.899999999999991
 10
75
 20
9.899999999999991
 10
75
 20
15.69999999999999
  0
LWPOLYLINE
  5
D2
100
AcDbEntity
  8
0
  6
ByLayer
 62
  256
370
   -1
100
AcDbPolyline
 90
    4
 70
    1
 43
0
 10
65.94695167279507
 20
11.95010460205269
 10
70.04817100367704
 20
7.848885271170701
 10
68.35111472882932
 20
6.15182899632299
 10
64.24989539794734
 20
10.25304832720489
  0
LWPOLYLINE
  5
D3
100
AcDbEntity
  8
0
  6
ByLayer
 62
  256
370
   -1
100
AcDbPolyline
 90
    4
 70
    1
 43
0
 10
64.24989539794734
 20
-10.25304832720491
 10
68.35111472882932
 20
-6.151828996323005
 10
70.04817100367704
 20
-7.848885271170701
 10
65.94695167279507
 20
-11.9501046020527
  0
LWPOLYLINE
  5
D4
100
AcDbEntity
  8
0
  6
ByLayer
 62
  256
370
   -1
100
AcDbPolyline
 90
    4
 70
    1
 43
0
 10
90.24568854158909
 20
-7.116785327145507
 10
84.88718725302363
 20
-4.897221419427908
 10
85.80562749069986
 20
-2.679910541400901
 10
91.16412877926533
 20
-4.899474449118401
  0
LWPOLYLINE
  5
D5
100
AcDbEntity
  8
0
  6
ByLayer
 62
  256
370
   -1
100
AcDbPolyline
 90
    4
 70
    1
 43
0
 10
71.30052555088164
 20
14.96412877926529
 10
73.52008945859916
 20
9.605627490699888
 10
71.30277858057207
 20
8.687187253023595
 10
69.08321467285454
 20
14.0456885415891
  0
LWPOLYLINE
  5
D6
100
AcDbEntity
  8
0
  6
ByLayer
 62
  256
370
   -1
100
AcDbPolyline
 90
    4
 70
    1
 43
0
 10
62.15431145841091
 20
7.116785327145493
 10
67.51281274697638
 20
4.897221419427993
 10
66.59437250930016
 20
2.679910541400801
 10
61.23587122073469
 20
4.899474449118401
  0
CIRCLE
  5
D7
100
AcDbEntity
  8
0
  6
ByLayer
 62
  256
370
   -1
100
AcDbCircle
 10
114.3
 20
0
 40
3.5
  0
LWPOLYLINE
  5
D8
100
AcDbEntity
  8
0
  6
ByLayer
 62
  256
370
   -1
100
AcDbPolyline
 90
    4
 70
    1
 43
0
 10
98.59999999999999
 20
1.199999999999989
 10
104.4
 20
1.199999999999989
 10
104.4
 20
-1.200000000000003
 10
98.59999999999999
 20
-1.200000000000003
  0
LWPOLYLINE
  5
D9
100
AcDbEntity
  8
0
  6
ByLayer
 62
  256
370
   -1
100
AcDbPolyline
 90
    4
 70
    1
 43
0
 10
99.3358712207347
 20
-4.899474449118401
 10
104.6943725093001
 20
-2.679910541400901
 10
105.6128127469764
 20
-4.897221419427908
 10
100.2543114584109
 20
-7.116785327145507
  0
LWPOLYLINE
  5
DA
100
AcDbEntity
  8
0
  6
ByLayer
 62
  256
370
   -1
100
AcDbPolyline
 90
    4
 70
    1
 43
0
 10
124.5530483272049
 20
-11.9501046020527
 10
120.451828996323
 20
-7.848885271170701
 10
122.1488852711707
 20
-6.151828996323005
 10
126.2501046020527
 20
-10.25304832720491
  0
LWPOLYLINE
  5
DB
100
AcDbEntity
  8
0
  6
ByLayer
 62
  256
370
   -1
100
AcDbPolyline
 90
    4
 70
    1
 43
0
 10
130
 20
-1.200000000000003
 10
124.2
 20
-1.200000000000003
 10
124.2
 20
1.199999999999989
 10
130
 20
1.199999999999989
  0
LWPOLYLINE
  5
DC
100
AcDbEntity
  8
0
  6
ByLayer
 62
  256
370
   -1
100
AcDbPolyline
 90
    4
 70
    1
 43
0
 10
129.2641287792653
 20
4.899474449118301
 10
123.9056274906999
 20
2.679910541400801
 10
122.9871872530236
 20
4.897221419427893
 10
128.3456885415891
 20
7.116785327145394
  0
LWPOLYLINE
  5
DD
100
AcDbEntity
  8
0
  6
ByLayer
 62
  256
370
   -1
100
AcDbPolyline
 90
    4
 70
    1
 43
0
 10
126.2501046020527
 20
10.25304832720489
 10
122.1488852711707
 20
6.15182899632299
 10
120.451828996323
 20
7.848885271170701
 10
124.5530483272049
 20
11.95010460205269
  0
LWPOLYLINE
  5
DE
100
AcDbEntity
  8
0
  6
ByLayer
 62
  256
370
   -1
100
AcDbPolyline
 90
    4
 70
    1
 43
0
 10
121.4167853271455
 20
14.0456885415891
 10
119.1972214194279
 20
8.687187253023595
 10
116.9799105414008
 20
9.605627490699888
 10
119.1994744491184
 20
14.96412877926529
  0
LWPOLYLINE
  5
DF
100
AcDbEntity
  8
0
  6
ByLayer
 62
  256
370
   -1
100
AcDbPolyline
 90
    4
 70
    1
 43
0
 10
115.5
 20
15.69999999999999
 10
115.5
 20
9.899999999999991
 10
113.1
 20
9.899999999999991
 10
113.1
 20
15.69999999999999
  0
LWPOLYLINE
  5
E0
100
AcDbEntity
  8
0
  6
ByLayer
 62
  256
370
   -1
100
AcDbPolyline
 90
    4
 70
    1
 43
0
 10
104.0469516727951
 20
11.95010460205269
 10
108.148171003677
 20
7.848885271170701
 10
106.4511147288293
 20
6.15182899632299
 10
102.3498953979473
 20
10.25304832720489
  0
LWPOLYLINE
  5
E1
100
AcDbEntity
  8
0
  6
ByLayer
 62
  256
370
   -1
100
AcDbPolyline
 90
    4
 70
    1
 43
0
 10
102.3498953979473
 20
-10.25304832720491
 10
106.4511147288293
 20
-6.151828996323005
 10
108.148171003677
 20
-7.848885271170701
 10
104.0469516727951
 20
-11.9501046020527
  0
LWPOLYLINE
  5
E2
100
AcDbEntity
  8
0
  6
ByLayer
 62
  256
370
   -1
100
AcDbPolyline
 90
    4
 70
    1
 43
0
 10
128.3456885415891
 20
-7.116785327145507
 10
122.9871872530236
 20
-4.897221419427908
 10
123.9056274906999
 20
-2.679910541400901
 10
129.2641287792653
 20
-4.899474449118401
  0
LWPOLYLINE
  5
E3
100
AcDbEntity
  8
0
  6
ByLayer
 62
  256
370
   -1
100
AcDbPolyline
 90
    4
 70
    1
 43
0
 10
109.4005255508816
 20
14.96412877926529
 10
111.6200894585992
 20
9.605627490699888
 10
109.4027785805721
 20
8.687187253023595
 10
107.1832146728545
 20
14.0456885415891
  0
LWPOLYLINE
  5
E4
100
AcDbEntity
  8
0
  6
ByLayer
 62
  256
370
   -1
100
AcDbPolyline
 90
    4
 70
    1
 43
0
 10
100.2543114584109
 20
7.116785327145493
 10
105.6128127469764
 20
4.897221419427993
 10
104.6943725093002
 20
2.679910541400801
 10
99.3358712207347
 20
4.899474449118401
  0
CIRCLE
  5
E5
100
AcDbEntity
  8
0
  6
ByLayer
 62
  256
370
   -1
100
AcDbCircle
 10
60.89999999999998
 20
-15.11900000000011
 40
1.5
  0
CIRCLE
  5
E6
100
AcDbEntity
  8
0
  6
ByLayer
 62
  256
370
   -1
100
AcDbCircle
 10
19.04899999999998
 20
53.39999999999999
 40
1.6
  0
CIRCLE
  5
E7
100
AcDbEntity
  8
0
  6
ByLayer
 62
  256
370
   -1
100
AcDbCircle
 10
19.04899999999998
 20
-15.18000000000001
 40
1.6
  0
CIRCLE
  5
E8
100
AcDbEntity
  8
0
  6
ByLayer
 62
  256
370
   -1
100
AcDbCircle
 10
53.33900000000006
 20
-15.18000000000001
 40
1.6
  0
CIRCLE
  5
E9
100
AcDbEntity
  8
0
  6
ByLayer
 62
  256
370
   -1
100
AcDbCircle
 10
60.95999999999998
 20
53.40099999999997
 40
1.6
  0
CIRCLE
  5
EA
100
AcDbEntity
  8
0
  6
ByLayer
 62
  256
370
   -1
100
AcDbCircle
 10
95.24999999999994
 20
53.40099999999997
 40
1.6
  0
CIRCLE
  5
EB
100
AcDbEntity
  8
0
  6
ByLayer
 62
  256
370
   -1
100
AcDbCircle
 10
95.24999999999994
 20
-15.17900000000012
 40
1.6
  0
LWPOLYLINE
  5
EC
100
AcDbEntity
  8
0
  6
ByLayer
 62
  256
370
   -1
100
AcDbPolyline
 90
    4
 70
    1
 43
0
 10
-6.28100000000002
 20
22.39999999999999
 10
-6.28100000000002
 20
28.19999999999999
 10
-3.881000000000014
 20
28.19999999999999
 10
-3.881000000000014
 20
22.39999999999999
  0
LWPOLYLINE
  5
ED
100
AcDbEntity
  8
0
  6
ByLayer
 62
  256
370
   -1
100
AcDbPolyline
 90
    4
 70
    1
 43
0
 10
3.879000000000007
 20
22.39999999999999
 10
3.879000000000007
 20
28.19999999999999
 10
6.279000000000012
 20
28.19999999999999
 10
6.279000000000012
 20
22.39999999999999
  0
LWPOLYLINE
  5
EE
100
AcDbEntity
  8
0
  6
ByLayer
 62
  256
370
   -1
100
AcDbPolyline
 90
    4
 70
    1
 43
0
 10
36.9
 20
22.39999999999999
 10
36.9
 20
28.19999999999999
 10
39.3
 20
28.19999999999999
 10
39.3
 20
22.39999999999999
  0
LWPOLYLINE
  5
EF
100
AcDbEntity
  8
0
  6
ByLayer
 62
  256
370
   -1
100
AcDbPolyline
 90
    4
 70
    1
 43
0
 10
31.81899999999998
 20
22.39999999999999
 10
31.81899999999998
 20
28.19999999999999
 10
34.21899999999999
 20
28.19999999999999
 10
34.21899999999999
 20
22.39999999999999
  0
LWPOLYLINE
  5
F0
100
AcDbEntity
  8
0
  6
ByLayer
 62
  256
370
   -1
100
AcDbPolyline
 90
    4
 70
    1
 43
0
 10
41.97900000000001
 20
22.39999999999999
 10
41.97900000000001
 20
28.19999999999999
 10
44.37900000000001
 20
28.19999999999999
 10
44.37900000000001
 20
22.39999999999999
  0
LWPOLYLINE
  5
F1
100
AcDbEntity
  8
0
  6
ByLayer
 62
  256
370
   -1
100
AcDbPolyline
 90
    4
 70
    1
 43
0
 10
75
 20
22.39999999999999
 10
75
 20
28.19999999999999
 10
77.40000000000001
 20
28.19999999999999
 10
77.40000000000001
 20
22.39999999999999
  0
LWPOLYLINE
  5
F2
100
AcDbEntity
  8
0
  6
ByLayer
 62
  256
370
   -1
100
AcDbPolyline
 90
    4
 70
    1
 43
0
 10
69.91899999999998
 20
22.39999999999999
 10
69.91899999999998
 20
28.19999999999999
 10
72.31899999999999
 20
28.19999999999999
 10
72.31899999999999
 20
22.39999999999999
  0
LWPOLYLINE
  5
F3
100
AcDbEntity
  8
0
  6
ByLayer
 62
  256
370
   -1
100
AcDbPolyline
 90
    4
 70
    1
 43
0
 10
80.07900000000001
 20
22.39999999999999
 10
80.07900000000001
 20
28.19999999999999
 10
82.47900000000001
 20
28.19999999999999
 10
82.47900000000001
 20
22.39999999999999
  0
LWPOLYLINE
  5
F4
100
AcDbEntity
  8
0
  6
ByLayer
 62
  256
370
   -1
100
AcDbPolyline
 90
    4
 70
    1
 43
0
 10
113.1
 20
22.39999999999999
 10
113.1
 20
28.19999999999999
 10
115.5
 20
28.19999999999999
 10
115.5
 20
22.39999999999999
  0
LWPOLYLINE
  5
F5
100
AcDbEntity
  8
0
  6
ByLayer
 62
  256
370
   -1
100
AcDbPolyline
 90
    4
 70
    1
 43
0
 10
108.019
 20
22.39999999999999
 10
108.019
 20
28.19999999999999
 10
110.419
 20
28.19999999999999
 10
110.419
 20
22.39999999999999
  0
LWPOLYLINE
  5
F6
100
AcDbEntity
  8
0
  6
ByLayer
 62
  256
370
   -1
100
AcDbPolyline
 90
    4
 70
    1
 43
0
 10
118.179
 20
22.39999999999999
 10
118.179
 20
28.19999999999999
 10
120.579
 20
28.19999999999999
 10
120.579
 20
22.39999999999999
  0
LWPOLYLINE
  5
F7
100
AcDbEntity
  8
0
  6
ByLayer
 62
  256
370
   -1
100
AcDbPolyline
 90
    4
 70
    1
 43
0
 10
-1.200000000000004
 20
-15.70000000000002
 10
-1.200000000000004
 20
-9.900000000000006
 10
1.200000000000002
 20
-9.900000000000006
 10
1.200000000000002
 20
-15.70000000000002
  0
LWPOLYLINE
  5
F8
100
AcDbEntity
  8
0
  6
ByLayer
 62
  256
370
   -1
100
AcDbPolyline
 90
    4
 70
    1
 43
0
 10
-6.28100000000002
 20
-15.70000000000002
 10
-6.28100000000002
 20
-9.900000000000006
 10
-3.881000000000014
 20
-9.900000000000006
 10
-3.881000000000014
 20
-15.70000000000002
  0
LWPOLYLINE
  5
F9
100
AcDbEntity
  8
0
  6
ByLayer
 62
  256
370
   -1
100
AcDbPolyline
 90
    4
 70
    1
 43
0
 10
3.879000000000007
 20
-15.70000000000002
 10
3.879000000000007
 20
-9.900000000000006
 10
6.279000000000012
 20
-9.900000000000006
 10
6.279000000000012
 20
-15.70000000000002
  0
LWPOLYLINE
  5
FA
100
AcDbEntity
  8
0
  6
ByLayer
 62
  256
370
   -1
100
AcDbPolyline
 90
    4
 70
    1
 43
0
 10
36.9
 20
-15.70000000000002
 10
36.9
 20
-9.900000000000006
 10
39.3
 20
-9.900000000000006
 10
39.3
 20
-15.70000000000002
  0
LWPOLYLINE
  5
FB
100
AcDbEntity
  8
0
  6
ByLayer
 62
  256
370
   -1
100
AcDbPolyline
 90
    4
 70
    1
 43
0
 10
31.81899999999998
 20
-15.70000000000002
 10
31.81899999999998
 20
-9.900000000000006
 10
34.21899999999999
 20
-9.900000000000006
 10
34.21899999999999
 20
-15.70000000000002
  0
LWPOLYLINE
  5
FC
100
AcDbEntity
  8
0
  6
ByLayer
 62
  256
370
   -1
100
AcDbPolyline
 90
    4
 70
    1
 43
0
 10
41.97900000000001
 20
-15.70000000000002
 10
41.97900000000001
 20
-9.900000000000006
 10
44.37900000000001
 20
-9.900000000000006
 10
44.37900000000001
 20
-15.70000000000002
  0
LWPOLYLINE
  5
FD
100
AcDbEntity
  8
0
  6
ByLayer
 62
  256
370
   -1
100
AcDbPolyline
 90
    4
 70
    1
 43
0
 10
75
 20
-15.70000000000002
 10
75
 20
-9.900000000000006
 10
77.40000000000001
 20
-9.900000000000006
 10
77.40000000000001
 20
-15.70000000000002
  0
LWPOLYLINE
  5
FE
100
AcDbEntity
  8
0
  6
ByLayer
 62
  256
370
   -1
100
AcDbPolyline
 90
    4
 70
    1
 43
0
 10
69.91899999999998
 20
-15.70000000000002
 10
69.91899999999998
 20
-9.900000000000006
 10
72.31899999999999
 20
-9.900000000000006
 10
72.31899999999999
 20
-15.70000000000002
  0
LWPOLYLINE
  5
FF
100
AcDbEntity
  8
0
  6
ByLayer
 62
  256
370
   -1
100
AcDbPolyline
 90
    4
 70
    1
 43
0
 10
80.07900000000001
 20
-15.70000000000002
 10
80.07900000000001
 20
-9.900000000000006
 10
82.47900000000001
 20
-9.900000000000006
 10
82.47900000000001
 20
-15.70000000000002
  0
LWPOLYLINE
  5
100
100
AcDbEntity
  8
0
  6
ByLayer
 62
  256
370
   -1
100
AcDbPolyline
 90
    4
 70
    1
 43
0
 10
113.1
 20
-15.70000000000002
 10
113.1
 20
-9.900000000000006
 10
115.5
 20
-9.900000000000006
 10
115.5
 20
-15.70000000000002
  0
LWPOLYLINE
  5
101
100
AcDbEntity
  8
0
  6
ByLayer
 62
  256
370
   -1
100
AcDbPolyline
 90
    4
 70
    1
 43
0
 10
108.019
 20
-15.70000000000002
 10
108.019
 20
-9.900000000000006
 10
110.419
 20
-9.900000000000006
 10
110.419
 20
-15.70000000000002
  0
LWPOLYLINE
  5
102
100
AcDbEntity
  8
0
  6
ByLayer
 62
  256
370
   -1
100
AcDbPolyline
 90
    4
 70
    1
 43
0
 10
118.179
 20
-15.70000000000002
 10
118.179
 20
-9.900000000000006
 10
120.579
 20
-9.900000000000006
 10
120.579
 20
-15.70000000000002
  0
ENDBLK
  5
55
330
53
100
AcDbEntity
  8
0
100
AcDbBlockEnd
  0
BLOCK
  5
57
330
56
100
AcDbEntity
  8
0
100
AcDbBlockBegin
  2
BLOCK_FIXED_GRID_DJ_4X2_Keypad_020226-0
 70
    0
 10
0
 20
0
  3
BLOCK_FIXED_GRID_DJ_4X2_Keypad_020226-0
  1

  0
ENDBLK
  5
58
330
56
100
AcDbEntity
  8
0
100
AcDbBlockEnd
  0
BLOCK
  5
5A
330
59
100
AcDbEntity
  8
0
100
AcDbBlockBegin
  2
PCB_Keypad2
 70
    0
 10
0
 20
0
  3
PCB_Keypad2
  1

  0
ENDBLK
  5
5B
330
59
100
AcDbEntity
  8
0
100
AcDbBlockEnd
  0
BLOCK
  5
5D
330
5C
100
AcDbEntity
  8
0
100
AcDbBlockBegin
  2
KEYPADLED_PCB
 70
    0
 10
0
 20
0
  3
KEYPADLED_PCB
  1

  0
ENDBLK
  5
5E
330
5C
100
AcDbEntity
  8
0
100
AcDbBlockEnd
  0
BLOCK
  5
60
330
5F
100
AcDbEntity
  8
0
100
AcDbBlockBegin
  2
BLOCK_FIXED_GRID_DJ_4X2_Keypad_020226-1
 70
    0
 10
0
 20
0
  3
BLOCK_FIXED_GRID_DJ_4X2_Keypad_020226-1
  1

  0
ENDBLK
  5
61
330
5F
100
AcDbEntity
  8
0
100
AcDbBlockEnd
  0
BLOCK
  5
63
330
62
100
AcDbEntity
  8
0
100
AcDbBlockBegin
  2
KEYPADLED_PCB2
 70
    0
 10
0
 20
0
  3
KEYPADLED_PCB2
  1

  0
ENDBLK
  5
64
330
62
100
AcDbEntity
  8
0
100
AcDbBlockEnd
  0
BLOCK
  5
66
330
65
100
AcDbEntity
  8
0
100
AcDbBlockBegin
  2
BLOCK_FIXED_GLOW_DIAL_CONTROL_PANEL_260126
 70
    0
 10
0
 20
0
  3
BLOCK_FIXED_GLOW_DIAL_CONTROL_PANEL_260126
  1

  0
CIRCLE
  5
103
100
AcDbEntity
  8
0
  6
ByLayer
 62
  256
370
   -1
100
AcDbCircle
 10
600
 20
500
 40
1.5
  0
ENDBLK
  5
67
330
65
100
AcDbEntity
  8
0
100
AcDbBlockEnd
  0
BLOCK
  5
69
330
68
100
AcDbEntity
  8
0
100
AcDbBlockBegin
  2
TeencyContoller
 70
    0
 10
0
 20
0
  3
TeencyContoller
  1

  0
ENDBLK
  5
6A
330
68
100
AcDbEntity
  8
0
100
AcDbBlockEnd
  0
BLOCK
  5
6C
330
6B
100
AcDbEntity
  8
0
100
AcDbBlockBegin
  2
TeensyController
 70
    0
 10
0
 20
0
  3
TeensyController
  1

  0
ENDBLK
  5
6D
330
6B
100
AcDbEntity
  8
0
100
AcDbBlockEnd
  0
ENDSEC
  0
SECTION
  2
ENTITIES
  0
CIRCLE
  5
104
100
AcDbEntity
  8
0
  6
ByLayer
 62
  256
370
   -1
100
AcDbCircle
 10
-109
 20
-157
 40
1.5
  0
CIRCLE
  5
105
100
AcDbEntity
  8
0
  6
ByLayer
 62
  256
370
   -1
100
AcDbCircle
 10
-109
 20
-201
 40
1.5
  0
CIRCLE
  5
106
100
AcDbEntity
  8
0
  6
ByLayer
 62
  256
370
   -1
100
AcDbCircle
 10
-33
 20
-201
 40
1.5
  0
CIRCLE
  5
107
100
AcDbEntity
  8
0
  6
ByLayer
 62
  256
370
   -1
100
AcDbCircle
 10
-33
 20
-157
 40
1.5
  0
CIRCLE
  5
108
100
AcDbEntity
  8
0
  6
ByLayer
 62
  256
370
   -1
100
AcDbCircle
 10
-109
 20
-157
 40
1.5
  0
CIRCLE
  5
109
100
AcDbEntity
  8
0
  6
ByLayer
 62
  256
370
   -1
100
AcDbCircle
 10
-109
 20
-201
 40
1.5
  0
CIRCLE
  5
10A
100
AcDbEntity
  8
0
  6
ByLayer
 62
  256
370
   -1
100
AcDbCircle
 10
-33
 20
-201
 40
1.5
  0
CIRCLE
  5
10B
100
AcDbEntity
  8
0
  6
ByLayer
 62
  256
370
   -1
100
AcDbCircle
 10
-33
 20
-157
 40
1.5
  0
CIRCLE
  5
10C
100
AcDbEntity
  8
0
  6
ByLayer
 62
  256
370
   -1
100
AcDbCircle
 10
-109
 20
-157
 40
1.5
  0
CIRCLE
  5
10D
100
AcDbEntity
  8
0
  6
ByLayer
 62
  256
370
   -1
100
AcDbCircle
 10
-109
 20
-201
 40
1.5
  0
CIRCLE
  5
10E
100
AcDbEntity
  8
0
  6
ByLayer
 62
  256
370
   -1
100
AcDbCircle
 10
-33
 20
-201
 40
1.5
  0
CIRCLE
  5
10F
100
AcDbEntity
  8
0
  6
ByLayer
 62
  256
370
   -1
100
AcDbCircle
 10
-33
 20
-157
 40
1.5
  0
LWPOLYLINE
  5
110
100
AcDbEntity
  8
0
  6
ByLayer
 62
  256
370
   -1
100
AcDbPolyline
 90
    4
 70
    1
 43
0
 10
-16.69999999999999
 20
2.199999999999989
 10
-10.90000000000001
 20
2.199999999999989
 10
-10.90000000000001
 20
-0.200000000000017
 10
-16.69999999999999
 20
-0.200000000000017
  0
LWPOLYLINE
  5
111
100
AcDbEntity
  8
0
  6
ByLayer
 62
  256
370
   -1
100
AcDbPolyline
 90
    4
 70
    1
 43
0
 10
-15.96412877926529
 20
-3.899474449118371
 10
-10.60562749069985
 20
-1.679910541400858
 10
-9.687187253023628
 20
-3.897221419427951
 10
-15.04568854158908
 20
-6.116785327145465
  0
LWPOLYLINE
  5
112
100
AcDbEntity
  8
0
  6
ByLayer
 62
  256
370
   -1
100
AcDbPolyline
 90
    4
 70
    1
 43
0
 10
-12.95010460205264
 20
-9.253048327204938
 10
-8.848885271170674
 20
-5.151828996322974
 10
-7.151828996322957
 20
-6.848885271170692
 10
-11.25304832720492
 20
-10.95010460205266
  0
LWPOLYLINE
  5
113
100
AcDbEntity
  8
0
  6
ByLayer
 62
  256
370
   -1
100
AcDbPolyline
 90
    4
 70
    1
 43
0
 10
-2.19999999999999
 20
-14.69999999999999
 10
-2.199999999999989
 20
-8.900000000000006
 10
0.2000000000000165
 20
-8.900000000000006
 10
0.2000000000000163
 20
-14.69999999999999
  0
LWPOLYLINE
  5
114
100
AcDbEntity
  8
0
  6
ByLayer
 62
  256
370
   -1
100
AcDbPolyline
 90
    4
 70
    1
 43
0
 10
9.253048327204938
 20
-10.95010460205264
 10
5.151828996322974
 20
-6.848885271170674
 10
6.848885271170692
 20
-5.151828996322957
 10
10.95010460205266
 20
-9.253048327204919
  0
LWPOLYLINE
  5
115
100
AcDbEntity
  8
0
  6
ByLayer
 62
  256
370
   -1
100
AcDbPolyline
 90
    4
 70
    1
 43
0
 10
13.04568854158909
 20
-6.116785327145441
 10
7.687187253023639
 20
-3.897221419427925
 10
8.605627490699858
 20
-1.679910541400832
 10
13.96412877926531
 20
-3.899474449118348
  0
LWPOLYLINE
  5
116
100
AcDbEntity
  8
0
  6
ByLayer
 62
  256
370
   -1
100
AcDbPolyline
 90
    4
 70
    1
 43
0
 10
14.69999999999999
 20
-0.1999999999999906
 10
8.900000000000006
 20
-0.1999999999999897
 10
8.900000000000006
 20
2.200000000000016
 10
14.69999999999999
 20
2.200000000000015
  0
LWPOLYLINE
  5
117
100
AcDbEntity
  8
0
  6
ByLayer
 62
  256
370
   -1
100
AcDbPolyline
 90
    4
 70
    1
 43
0
 10
13.9641287792653
 20
5.89947444911837
 10
8.605627490699849
 20
3.679910541400856
 10
7.68718725302363
 20
5.89722141942795
 10
13.04568854158908
 20
8.116785327145463
  0
LWPOLYLINE
  5
118
100
AcDbEntity
  8
0
  6
ByLayer
 62
  256
370
   -1
100
AcDbPolyline
 90
    4
 70
    1
 43
0
 10
10.95010460205264
 20
11.25304832720494
 10
6.848885271170675
 20
7.151828996322974
 10
5.151828996322958
 20
8.848885271170694
 10
9.253048327204921
 20
12.95010460205266
  0
LWPOLYLINE
  5
119
100
AcDbEntity
  8
0
  6
ByLayer
 62
  256
370
   -1
100
AcDbPolyline
 90
    4
 70
    1
 43
0
 10
6.116785327145447
 20
15.04568854158908
 10
3.89722141942793
 20
9.687187253023637
 10
1.679910541400837
 20
10.60562749069986
 10
3.899474449118355
 20
15.9641287792653
  0
LWPOLYLINE
  5
11A
100
AcDbEntity
  8
0
  6
ByLayer
 62
  256
370
   -1
100
AcDbPolyline
 90
    4
 70
    1
 43
0
 10
0.1999999999999916
 20
16.69999999999999
 10
0.1999999999999905
 20
10.90000000000001
 10
-2.200000000000015
 20
10.90000000000001
 10
-2.200000000000014
 20
16.69999999999999
  0
LWPOLYLINE
  5
11B
100
AcDbEntity
  8
0
  6
ByLayer
 62
  256
370
   -1
100
AcDbPolyline
 90
    4
 70
    1
 43
0
 10
-5.899474449118375
 20
15.96412877926529
 10
-3.67991054140086
 20
10.60562749069985
 10
-5.897221419427953
 20
9.687187253023628
 10
-8.116785327145468
 20
15.04568854158907
  0
LWPOLYLINE
  5
11C
100
AcDbEntity
  8
0
  6
ByLayer
 62
  256
370
   -1
100
AcDbPolyline
 90
    4
 70
    1
 43
0
 10
-11.25304832720494
 20
12.95010460205264
 10
-7.151828996322974
 20
8.848885271170676
 10
-8.848885271170692
 20
7.151828996322958
 10
-12.95010460205265
 20
11.25304832720492
  0
LWPOLYLINE
  5
11D
100
AcDbEntity
  8
0
  6
ByLayer
 62
  256
370
   -1
100
AcDbPolyline
 90
    4
 70
    1
 43
0
 10
-15.04568854158908
 20
8.116785327145449
 10
-9.687187253023637
 20
5.897221419427931
 10
-10.60562749069986
 20
3.679910541400838
 10
-15.9641287792653
 20
5.899474449118356
  0
LWPOLYLINE
  5
11E
100
AcDbEntity
  8
0
  6
ByLayer
 62
  256
370
   -1
100
AcDbPolyline
 90
    4
 70
    1
 43
0
 10
-16.69999999999999
 20
2.199999999999992
 10
-10.90000000000001
 20
2.199999999999991
 10
-10.90000000000001
 20
-0.2000000000000146
 10
-16.69999999999999
 20
-0.2000000000000133
  0
LWPOLYLINE
  5
11F
100
AcDbEntity
  8
0
  6
ByLayer
 62
  256
370
   -1
100
AcDbPolyline
 90
    4
 70
    1
 43
0
 10
-7.281000000000006
 20
-8.90000000000002
 10
-4.880999999999999
 20
-8.90000000000002
 10
-4.880999999999999
 20
-14.70000000000002
 10
-7.281000000000006
 20
-14.70000000000002
  0
LWPOLYLINE
  5
120
100
AcDbEntity
  8
0
  6
ByLayer
 62
  256
370
   -1
100
AcDbPolyline
 90
    4
 70
    1
 43
0
 10
2.87900000000002
 20
-8.90000000000002
 10
5.279000000000026
 20
-8.90000000000002
 10
5.279000000000026
 20
-14.70000000000002
 10
2.87900000000002
 20
-14.70000000000002
  0
CIRCLE
  5
121
100
AcDbEntity
  8
0
  6
ByLayer
 62
  256
370
   -1
100
AcDbCircle
 10
-16.30000000000001
 20
16.29999999999997
 40
1.6
  0
CIRCLE
  5
122
100
AcDbEntity
  8
0
  6
ByLayer
 62
  256
370
   -1
100
AcDbCircle
 10
52.27999999999997
 20
16.29999999999997
 40
1.6
  0
CIRCLE
  5
123
100
AcDbEntity
  8
0
  6
ByLayer
 62
  256
370
   -1
100
AcDbCircle
 10
59.95999999999998
 20
16.30099999999995
 40
1.6
  0
CIRCLE
  5
124
100
AcDbEntity
  8
0
  6
ByLayer
 62
  256
370
   -1
100
AcDbCircle
 10
128.48
 20
16.29999999999997
 40
1.6
  0
CIRCLE
  5
125
100
AcDbEntity
  8
0
  6
ByLayer
 62
  256
370
   -1
100
AcDbCircle
 10
-16.30000000000001
 20
-52.28000000000002
 40
1.6
  0
CIRCLE
  5
126
100
AcDbEntity
  8
0
  6
ByLayer
 62
  256
370
   -1
100
AcDbCircle
 10
52.27999999999997
 20
-52.28000000000002
 40
1.6
  0
CIRCLE
  5
127
100
AcDbEntity
  8
0
  6
ByLayer
 62
  256
370
   -1
100
AcDbCircle
 10
59.95999999999998
 20
-52.28000000000002
 40
1.6
  0
CIRCLE
  5
128
100
AcDbEntity
  8
0
  6
ByLayer
 62
  256
370
   -1
100
AcDbCircle
 10
128.48
 20
-52.28000000000002
 40
1.6
  0
LWPOLYLINE
  5
129
100
AcDbEntity
  8
0
  6
ByLayer
 62
  256
370
   -1
100
AcDbPolyline
 90
    4
 70
    1
 43
0
 10
21.40000000000001
 20
2.199999999999989
 10
27.2
 20
2.199999999999989
 10
27.2
 20
-0.200000000000017
 10
21.40000000000001
 20
-0.200000000000017
  0
LWPOLYLINE
  5
12A
100
AcDbEntity
  8
0
  6
ByLayer
 62
  256
370
   -1
100
AcDbPolyline
 90
    4
 70
    1
 43
0
 10
22.13587122073471
 20
-3.899474449118371
 10
27.49437250930016
 20
-1.679910541400858
 10
28.41281274697637
 20
-3.897221419427951
 10
23.05431145841093
 20
-6.116785327145465
  0
LWPOLYLINE
  5
12B
100
AcDbEntity
  8
0
  6
ByLayer
 62
  256
370
   -1
100
AcDbPolyline
 90
    4
 70
    1
 43
0
 10
25.14989539794736
 20
-9.253048327204938
 10
29.25111472882933
 20
-5.151828996322974
 10
30.94817100367705
 20
-6.848885271170692
 10
26.84695167279508
 20
-10.95010460205266
  0
LWPOLYLINE
  5
12C
100
AcDbEntity
  8
0
  6
ByLayer
 62
  256
370
   -1
100
AcDbPolyline
 90
    4
 70
    1
 43
0
 10
35.90000000000001
 20
-14.69999999999999
 10
35.90000000000001
 20
-8.900000000000006
 10
38.30000000000002
 20
-8.900000000000006
 10
38.30000000000002
 20
-14.69999999999999
  0
LWPOLYLINE
  5
12D
100
AcDbEntity
  8
0
  6
ByLayer
 62
  256
370
   -1
100
AcDbPolyline
 90
    4
 70
    1
 43
0
 10
47.35304832720494
 20
-10.95010460205264
 10
43.25182899632298
 20
-6.848885271170674
 10
44.9488852711707
 20
-5.151828996322957
 10
49.05010460205266
 20
-9.253048327204919
  0
LWPOLYLINE
  5
12E
100
AcDbEntity
  8
0
  6
ByLayer
 62
  256
370
   -1
100
AcDbPolyline
 90
    4
 70
    1
 43
0
 10
51.14568854158909
 20
-6.116785327145441
 10
45.78718725302364
 20
-3.897221419427925
 10
46.70562749069986
 20
-1.679910541400832
 10
52.0641287792653
 20
-3.899474449118348
  0
LWPOLYLINE
  5
12F
100
AcDbEntity
  8
0
  6
ByLayer
 62
  256
370
   -1
100
AcDbPolyline
 90
    4
 70
    1
 43
0
 10
52.79999999999999
 20
-0.1999999999999906
 10
47.00000000000001
 20
-0.1999999999999897
 10
47.00000000000001
 20
2.200000000000016
 10
52.79999999999999
 20
2.200000000000015
  0
LWPOLYLINE
  5
130
100
AcDbEntity
  8
0
  6
ByLayer
 62
  256
370
   -1
100
AcDbPolyline
 90
    4
 70
    1
 43
0
 10
52.0641287792653
 20
5.89947444911837
 10
46.70562749069985
 20
3.679910541400856
 10
45.78718725302363
 20
5.89722141942795
 10
51.14568854158908
 20
8.116785327145463
  0
LWPOLYLINE
  5
131
100
AcDbEntity
  8
0
  6
ByLayer
 62
  256
370
   -1
100
AcDbPolyline
 90
    4
 70
    1
 43
0
 10
49.05010460205264
 20
11.25304832720494
 10
44.94888527117067
 20
7.151828996322974
 10
43.25182899632296
 20
8.848885271170694
 10
47.35304832720492
 20
12.95010460205266
  0
LWPOLYLINE
  5
132
100
AcDbEntity
  8
0
  6
ByLayer
 62
  256
370
   -1
100
AcDbPolyline
 90
    4
 70
    1
 43
0
 10
44.21678532714544
 20
15.04568854158908
 10
41.99722141942793
 20
9.687187253023637
 10
39.77991054140084
 20
10.60562749069986
 10
41.99947444911835
 20
15.9641287792653
  0
LWPOLYLINE
  5
133
100
AcDbEntity
  8
0
  6
ByLayer
 62
  256
370
   -1
100
AcDbPolyline
 90
    4
 70
    1
 43
0
 10
38.29999999999999
 20
16.69999999999999
 10
38.29999999999999
 20
10.90000000000001
 10
35.89999999999998
 20
10.90000000000001
 10
35.89999999999998
 20
16.69999999999999
  0
LWPOLYLINE
  5
134
100
AcDbEntity
  8
0
  6
ByLayer
 62
  256
370
   -1
100
AcDbPolyline
 90
    4
 70
    1
 43
0
 10
32.20052555088163
 20
15.96412877926529
 10
34.42008945859914
 20
10.60562749069985
 10
32.20277858057205
 20
9.687187253023628
 10
29.98321467285453
 20
15.04568854158907
  0
LWPOLYLINE
  5
135
100
AcDbEntity
  8
0
  6
ByLayer
 62
  256
370
   -1
100
AcDbPolyline
 90
    4
 70
    1
 43
0
 10
26.84695167279506
 20
12.95010460205264
 10
30.94817100367703
 20
8.848885271170676
 10
29.25111472882931
 20
7.151828996322958
 10
25.14989539794735
 20
11.25304832720492
  0
LWPOLYLINE
  5
136
100
AcDbEntity
  8
0
  6
ByLayer
 62
  256
370
   -1
100
AcDbPolyline
 90
    4
 70
    1
 43
0
 10
23.05431145841092
 20
8.116785327145449
 10
28.41281274697636
 20
5.897221419427931
 10
27.49437250930015
 20
3.679910541400838
 10
22.1358712207347
 20
5.899474449118356
  0
LWPOLYLINE
  5
137
100
AcDbEntity
  8
0
  6
ByLayer
 62
  256
370
   -1
100
AcDbPolyline
 90
    4
 70
    1
 43
0
 10
21.40000000000001
 20
2.199999999999992
 10
27.2
 20
2.199999999999991
 10
27.2
 20
-0.2000000000000146
 10
21.40000000000001
 20
-0.2000000000000133
  0
LWPOLYLINE
  5
138
100
AcDbEntity
  8
0
  6
ByLayer
 62
  256
370
   -1
100
AcDbPolyline
 90
    4
 70
    1
 43
0
 10
30.819
 20
-8.90000000000002
 10
33.219
 20
-8.90000000000002
 10
33.219
 20
-14.70000000000002
 10
30.819
 20
-14.70000000000002
  0
LWPOLYLINE
  5
139
100
AcDbEntity
  8
0
  6
ByLayer
 62
  256
370
   -1
100
AcDbPolyline
 90
    4
 70
    1
 43
0
 10
40.97900000000002
 20
-8.90000000000002
 10
43.37900000000003
 20
-8.90000000000002
 10
43.37900000000003
 20
-14.70000000000002
 10
40.97900000000002
 20
-14.70000000000002
  0
LWPOLYLINE
  5
13A
100
AcDbEntity
  8
0
  6
ByLayer
 62
  256
370
   -1
100
AcDbPolyline
 90
    4
 70
    1
 43
0
 10
59.50000000000001
 20
2.199999999999989
 10
65.3
 20
2.199999999999989
 10
65.3
 20
-0.200000000000017
 10
59.50000000000001
 20
-0.200000000000017
  0
LWPOLYLINE
  5
13B
100
AcDbEntity
  8
0
  6
ByLayer
 62
  256
370
   -1
100
AcDbPolyline
 90
    4
 70
    1
 43
0
 10
60.23587122073471
 20
-3.899474449118371
 10
65.59437250930016
 20
-1.679910541400858
 10
66.51281274697638
 20
-3.897221419427951
 10
61.15431145841093
 20
-6.116785327145465
  0
LWPOLYLINE
  5
13C
100
AcDbEntity
  8
0
  6
ByLayer
 62
  256
370
   -1
100
AcDbPolyline
 90
    4
 70
    1
 43
0
 10
63.24989539794737
 20
-9.253048327204938
 10
67.35111472882933
 20
-5.151828996322974
 10
69.04817100367706
 20
-6.848885271170692
 10
64.94695167279508
 20
-10.95010460205266
  0
LWPOLYLINE
  5
13D
100
AcDbEntity
  8
0
  6
ByLayer
 62
  256
370
   -1
100
AcDbPolyline
 90
    4
 70
    1
 43
0
 10
74.00000000000001
 20
-14.69999999999999
 10
74.00000000000001
 20
-8.900000000000006
 10
76.40000000000002
 20
-8.900000000000006
 10
76.40000000000002
 20
-14.69999999999999
  0
LWPOLYLINE
  5
13E
100
AcDbEntity
  8
0
  6
ByLayer
 62
  256
370
   -1
100
AcDbPolyline
 90
    4
 70
    1
 43
0
 10
85.45304832720494
 20
-10.95010460205264
 10
81.35182899632298
 20
-6.848885271170674
 10
83.04888527117069
 20
-5.151828996322957
 10
87.15010460205266
 20
-9.253048327204919
  0
LWPOLYLINE
  5
13F
100
AcDbEntity
  8
0
  6
ByLayer
 62
  256
370
   -1
100
AcDbPolyline
 90
    4
 70
    1
 43
0
 10
89.24568854158909
 20
-6.116785327145441
 10
83.88718725302364
 20
-3.897221419427925
 10
84.80562749069986
 20
-1.679910541400832
 10
90.1641287792653
 20
-3.899474449118348
  0
LWPOLYLINE
  5
140
100
AcDbEntity
  8
0
  6
ByLayer
 62
  256
370
   -1
100
AcDbPolyline
 90
    4
 70
    1
 43
0
 10
90.89999999999999
 20
-0.1999999999999906
 10
85.10000000000001
 20
-0.1999999999999897
 10
85.10000000000001
 20
2.200000000000016
 10
90.89999999999999
 20
2.200000000000015
  0
LWPOLYLINE
  5
141
100
AcDbEntity
  8
0
  6
ByLayer
 62
  256
370
   -1
100
AcDbPolyline
 90
    4
 70
    1
 43
0
 10
90.1641287792653
 20
5.89947444911837
 10
84.80562749069986
 20
3.679910541400856
 10
83.88718725302363
 20
5.89722141942795
 10
89.24568854158909
 20
8.116785327145463
  0
LWPOLYLINE
  5
142
100
AcDbEntity
  8
0
  6
ByLayer
 62
  256
370
   -1
100
AcDbPolyline
 90
    4
 70
    1
 43
0
 10
87.15010460205264
 20
11.25304832720494
 10
83.04888527117068
 20
7.151828996322974
 10
81.35182899632295
 20
8.848885271170694
 10
85.45304832720493
 20
12.95010460205266
  0
LWPOLYLINE
  5
143
100
AcDbEntity
  8
0
  6
ByLayer
 62
  256
370
   -1
100
AcDbPolyline
 90
    4
 70
    1
 43
0
 10
82.31678532714545
 20
15.04568854158908
 10
80.09722141942794
 20
9.687187253023637
 10
77.87991054140085
 20
10.60562749069986
 10
80.09947444911836
 20
15.9641287792653
  0
LWPOLYLINE
  5
144
100
AcDbEntity
  8
0
  6
ByLayer
 62
  256
370
   -1
100
AcDbPolyline
 90
    4
 70
    1
 43
0
 10
76.39999999999999
 20
16.69999999999999
 10
76.39999999999999
 20
10.90000000000001
 10
73.99999999999999
 20
10.90000000000001
 10
73.99999999999999
 20
16.69999999999999
  0
LWPOLYLINE
  5
145
100
AcDbEntity
  8
0
  6
ByLayer
 62
  256
370
   -1
100
AcDbPolyline
 90
    4
 70
    1
 43
0
 10
70.30052555088163
 20
15.96412877926529
 10
72.52008945859914
 20
10.60562749069985
 10
70.30277858057205
 20
9.687187253023628
 10
68.08321467285454
 20
15.04568854158907
  0
LWPOLYLINE
  5
146
100
AcDbEntity
  8
0
  6
ByLayer
 62
  256
370
   -1
100
AcDbPolyline
 90
    4
 70
    1
 43
0
 10
64.94695167279507
 20
12.95010460205264
 10
69.04817100367703
 20
8.848885271170676
 10
67.35111472882932
 20
7.151828996322958
 10
63.24989539794735
 20
11.25304832720492
  0
LWPOLYLINE
  5
147
100
AcDbEntity
  8
0
  6
ByLayer
 62
  256
370
   -1
100
AcDbPolyline
 90
    4
 70
    1
 43
0
 10
61.15431145841092
 20
8.116785327145449
 10
66.51281274697637
 20
5.897221419427931
 10
65.59437250930014
 20
3.679910541400838
 10
60.2358712207347
 20
5.899474449118356
  0
LWPOLYLINE
  5
148
100
AcDbEntity
  8
0
  6
ByLayer
 62
  256
370
   -1
100
AcDbPolyline
 90
    4
 70
    1
 43
0
 10
59.50000000000001
 20
2.199999999999992
 10
65.3
 20
2.199999999999991
 10
65.3
 20
-0.2000000000000146
 10
59.50000000000001
 20
-0.2000000000000133
  0
LWPOLYLINE
  5
149
100
AcDbEntity
  8
0
  6
ByLayer
 62
  256
370
   -1
100
AcDbPolyline
 90
    4
 70
    1
 43
0
 10
68.919
 20
-8.90000000000002
 10
71.319
 20
-8.90000000000002
 10
71.319
 20
-14.70000000000002
 10
68.919
 20
-14.70000000000002
  0
LWPOLYLINE
  5
14A
100
AcDbEntity
  8
0
  6
ByLayer
 62
  256
370
   -1
100
AcDbPolyline
 90
    4
 70
    1
 43
0
 10
79.07900000000002
 20
-8.90000000000002
 10
81.47900000000003
 20
-8.90000000000002
 10
81.47900000000003
 20
-14.70000000000002
 10
79.07900000000002
 20
-14.70000000000002
  0
LWPOLYLINE
  5
14B
100
AcDbEntity
  8
0
  6
ByLayer
 62
  256
370
   -1
100
AcDbPolyline
 90
    4
 70
    1
 43
0
 10
97.60000000000002
 20
2.199999999999989
 10
103.4
 20
2.199999999999989
 10
103.4
 20
-0.200000000000017
 10
97.60000000000002
 20
-0.200000000000017
  0
LWPOLYLINE
  5
14C
100
AcDbEntity
  8
0
  6
ByLayer
 62
  256
370
   -1
100
AcDbPolyline
 90
    4
 70
    1
 43
0
 10
98.3358712207347
 20
-3.899474449118371
 10
103.6943725093002
 20
-1.679910541400858
 10
104.6128127469764
 20
-3.897221419427951
 10
99.25431145841094
 20
-6.116785327145465
  0
LWPOLYLINE
  5
14D
100
AcDbEntity
  8
0
  6
ByLayer
 62
  256
370
   -1
100
AcDbPolyline
 90
    4
 70
    1
 43
0
 10
101.3498953979474
 20
-9.253048327204938
 10
105.4511147288293
 20
-5.151828996322974
 10
107.148171003677
 20
-6.848885271170692
 10
103.0469516727951
 20
-10.95010460205266
  0
LWPOLYLINE
  5
14E
100
AcDbEntity
  8
0
  6
ByLayer
 62
  256
370
   -1
100
AcDbPolyline
 90
    4
 70
    1
 43
0
 10
112.1
 20
-14.69999999999999
 10
112.1
 20
-8.900000000000006
 10
114.5
 20
-8.900000000000006
 10
114.5
 20
-14.69999999999999
  0
LWPOLYLINE
  5
14F
100
AcDbEntity
  8
0
  6
ByLayer
 62
  256
370
   -1
100
AcDbPolyline
 90
    4
 70
    1
 43
0
 10
123.5530483272049
 20
-10.95010460205264
 10
119.451828996323
 20
-6.848885271170674
 10
121.1488852711707
 20
-5.151828996322957
 10
125.2501046020527
 20
-9.253048327204919
  0
LWPOLYLINE
  5
150
100
AcDbEntity
  8
0
  6
ByLayer
 62
  256
370
   -1
100
AcDbPolyline
 90
    4
 70
    1
 43
0
 10
127.3456885415891
 20
-6.116785327145441
 10
121.9871872530236
 20
-3.897221419427925
 10
122.9056274906999
 20
-1.679910541400832
 10
128.2641287792653
 20
-3.899474449118348
  0
LWPOLYLINE
  5
151
100
AcDbEntity
  8
0
  6
ByLayer
 62
  256
370
   -1
100
AcDbPolyline
 90
    4
 70
    1
 43
0
 10
129
 20
-0.1999999999999906
 10
123.2
 20
-0.1999999999999897
 10
123.2
 20
2.200000000000016
 10
129
 20
2.200000000000015
  0
LWPOLYLINE
  5
152
100
AcDbEntity
  8
0
  6
ByLayer
 62
  256
370
   -1
100
AcDbPolyline
 90
    4
 70
    1
 43
0
 10
128.2641287792653
 20
5.89947444911837
 10
122.9056274906999
 20
3.679910541400856
 10
121.9871872530236
 20
5.89722141942795
 10
127.3456885415891
 20
8.116785327145463
  0
LWPOLYLINE
  5
153
100
AcDbEntity
  8
0
  6
ByLayer
 62
  256
370
   -1
100
AcDbPolyline
 90
    4
 70
    1
 43
0
 10
125.2501046020526
 20
11.25304832720494
 10
121.1488852711707
 20
7.151828996322974
 10
119.4518289963229
 20
8.848885271170694
 10
123.5530483272049
 20
12.95010460205266
  0
LWPOLYLINE
  5
154
100
AcDbEntity
  8
0
  6
ByLayer
 62
  256
370
   -1
100
AcDbPolyline
 90
    4
 70
    1
 43
0
 10
120.4167853271454
 20
15.04568854158908
 10
118.1972214194279
 20
9.687187253023637
 10
115.9799105414008
 20
10.60562749069986
 10
118.1994744491184
 20
15.9641287792653
  0
LWPOLYLINE
  5
155
100
AcDbEntity
  8
0
  6
ByLayer
 62
  256
370
   -1
100
AcDbPolyline
 90
    4
 70
    1
 43
0
 10
114.5
 20
16.69999999999999
 10
114.5
 20
10.90000000000001
 10
112.1
 20
10.90000000000001
 10
112.1
 20
16.69999999999999
  0
LWPOLYLINE
  5
156
100
AcDbEntity
  8
0
  6
ByLayer
 62
  256
370
   -1
100
AcDbPolyline
 90
    4
 70
    1
 43
0
 10
108.4005255508816
 20
15.96412877926529
 10
110.6200894585992
 20
10.60562749069985
 10
108.4027785805721
 20
9.687187253023628
 10
106.1832146728545
 20
15.04568854158907
  0
LWPOLYLINE
  5
157
100
AcDbEntity
  8
0
  6
ByLayer
 62
  256
370
   -1
100
AcDbPolyline
 90
    4
 70
    1
 43
0
 10
103.0469516727951
 20
12.95010460205264
 10
107.148171003677
 20
8.848885271170676
 10
105.4511147288293
 20
7.151828996322958
 10
101.3498953979473
 20
11.25304832720492
  0
LWPOLYLINE
  5
158
100
AcDbEntity
  8
0
  6
ByLayer
 62
  256
370
   -1
100
AcDbPolyline
 90
    4
 70
    1
 43
0
 10
99.25431145841091
 20
8.116785327145449
 10
104.6128127469764
 20
5.897221419427931
 10
103.6943725093001
 20
3.679910541400838
 10
98.3358712207347
 20
5.899474449118356
  0
LWPOLYLINE
  5
159
100
AcDbEntity
  8
0
  6
ByLayer
 62
  256
370
   -1
100
AcDbPolyline
 90
    4
 70
    1
 43
0
 10
97.60000000000002
 20
2.199999999999992
 10
103.4
 20
2.199999999999991
 10
103.4
 20
-0.2000000000000146
 10
97.60000000000002
 20
-0.2000000000000133
  0
LWPOLYLINE
  5
15A
100
AcDbEntity
  8
0
  6
ByLayer
 62
  256
370
   -1
100
AcDbPolyline
 90
    4
 70
    1
 43
0
 10
107.019
 20
-8.90000000000002
 10
109.419
 20
-8.90000000000002
 10
109.419
 20
-14.70000000000002
 10
107.019
 20
-14.70000000000002
  0
LWPOLYLINE
  5
15B
100
AcDbEntity
  8
0
  6
ByLayer
 62
  256
370
   -1
100
AcDbPolyline
 90
    4
 70
    1
 43
0
 10
117.179
 20
-8.90000000000002
 10
119.579
 20
-8.90000000000002
 10
119.579
 20
-14.70000000000002
 10
117.179
 20
-14.70000000000002
  0
LWPOLYLINE
  5
15C
100
AcDbEntity
  8
0
  6
ByLayer
 62
  256
370
   -1
100
AcDbPolyline
 90
    4
 70
    1
 43
0
 10
-16.69999999999999
 20
-35.90000000000001
 10
-10.90000000000001
 20
-35.90000000000001
 10
-10.90000000000001
 20
-38.30000000000002
 10
-16.69999999999999
 20
-38.30000000000002
  0
LWPOLYLINE
  5
15D
100
AcDbEntity
  8
0
  6
ByLayer
 62
  256
370
   -1
100
AcDbPolyline
 90
    4
 70
    1
 43
0
 10
-15.96412877926529
 20
-41.99947444911837
 10
-10.60562749069985
 20
-39.77991054140086
 10
-9.687187253023628
 20
-41.99722141942795
 10
-15.04568854158908
 20
-44.21678532714547
  0
LWPOLYLINE
  5
15E
100
AcDbEntity
  8
0
  6
ByLayer
 62
  256
370
   -1
100
AcDbPolyline
 90
    4
 70
    1
 43
0
 10
-12.95010460205264
 20
-47.35304832720494
 10
-8.848885271170674
 20
-43.25182899632298
 10
-7.151828996322957
 20
-44.9488852711707
 10
-11.25304832720492
 20
-49.05010460205266
  0
LWPOLYLINE
  5
15F
100
AcDbEntity
  8
0
  6
ByLayer
 62
  256
370
   -1
100
AcDbPolyline
 90
    4
 70
    1
 43
0
 10
-2.19999999999999
 20
-52.79999999999999
 10
-2.199999999999989
 20
-47.00000000000001
 10
0.2000000000000165
 20
-47.00000000000001
 10
0.2000000000000163
 20
-52.79999999999999
  0
LWPOLYLINE
  5
160
100
AcDbEntity
  8
0
  6
ByLayer
 62
  256
370
   -1
100
AcDbPolyline
 90
    4
 70
    1
 43
0
 10
9.253048327204938
 20
-49.05010460205264
 10
5.151828996322974
 20
-44.94888527117067
 10
6.848885271170692
 20
-43.25182899632296
 10
10.95010460205266
 20
-47.35304832720492
  0
LWPOLYLINE
  5
161
100
AcDbEntity
  8
0
  6
ByLayer
 62
  256
370
   -1
100
AcDbPolyline
 90
    4
 70
    1
 43
0
 10
13.04568854158909
 20
-44.21678532714544
 10
7.687187253023639
 20
-41.99722141942793
 10
8.605627490699858
 20
-39.77991054140083
 10
13.96412877926531
 20
-41.99947444911835
  0
LWPOLYLINE
  5
162
100
AcDbEntity
  8
0
  6
ByLayer
 62
  256
370
   -1
100
AcDbPolyline
 90
    4
 70
    1
 43
0
 10
14.69999999999999
 20
-38.29999999999999
 10
8.900000000000006
 20
-38.29999999999999
 10
8.900000000000006
 20
-35.89999999999998
 10
14.69999999999999
 20
-35.89999999999998
  0
LWPOLYLINE
  5
163
100
AcDbEntity
  8
0
  6
ByLayer
 62
  256
370
   -1
100
AcDbPolyline
 90
    4
 70
    1
 43
0
 10
13.9641287792653
 20
-32.20052555088163
 10
8.605627490699849
 20
-34.42008945859914
 10
7.68718725302363
 20
-32.20277858057205
 10
13.04568854158908
 20
-29.98321467285454
  0
LWPOLYLINE
  5
164
100
AcDbEntity
  8
0
  6
ByLayer
 62
  256
370
   -1
100
AcDbPolyline
 90
    4
 70
    1
 43
0
 10
10.95010460205264
 20
-26.84695167279506
 10
6.848885271170675
 20
-30.94817100367703
 10
5.151828996322958
 20
-29.25111472882931
 10
9.253048327204921
 20
-25.14989539794735
  0
LWPOLYLINE
  5
165
100
AcDbEntity
  8
0
  6
ByLayer
 62
  256
370
   -1
100
AcDbPolyline
 90
    4
 70
    1
 43
0
 10
6.116785327145447
 20
-23.05431145841092
 10
3.89722141942793
 20
-28.41281274697636
 10
1.679910541400837
 20
-27.49437250930015
 10
3.899474449118355
 20
-22.1358712207347
  0
LWPOLYLINE
  5
166
100
AcDbEntity
  8
0
  6
ByLayer
 62
  256
370
   -1
100
AcDbPolyline
 90
    4
 70
    1
 43
0
 10
0.1999999999999916
 20
-21.40000000000001
 10
0.1999999999999905
 20
-27.2
 10
-2.200000000000015
 20
-27.2
 10
-2.200000000000014
 20
-21.40000000000001
  0
LWPOLYLINE
  5
167
100
AcDbEntity
  8
0
  6
ByLayer
 62
  256
370
   -1
100
AcDbPolyline
 90
    4
 70
    1
 43
0
 10
-5.899474449118375
 20
-22.13587122073471
 10
-3.67991054140086
 20
-27.49437250930016
 10
-5.897221419427953
 20
-28.41281274697637
 10
-8.116785327145468
 20
-23.05431145841093
  0
LWPOLYLINE
  5
168
100
AcDbEntity
  8
0
  6
ByLayer
 62
  256
370
   -1
100
AcDbPolyline
 90
    4
 70
    1
 43
0
 10
-11.25304832720494
 20
-25.14989539794736
 10
-7.151828996322974
 20
-29.25111472882933
 10
-8.848885271170692
 20
-30.94817100367704
 10
-12.95010460205265
 20
-26.84695167279508
  0
LWPOLYLINE
  5
169
100
AcDbEntity
  8
0
  6
ByLayer
 62
  256
370
   -1
100
AcDbPolyline
 90
    4
 70
    1
 43
0
 10
-15.04568854158908
 20
-29.98321467285455
 10
-9.687187253023637
 20
-32.20277858057207
 10
-10.60562749069986
 20
-34.42008945859916
 10
-15.9641287792653
 20
-32.20052555088164
  0
LWPOLYLINE
  5
16A
100
AcDbEntity
  8
0
  6
ByLayer
 62
  256
370
   -1
100
AcDbPolyline
 90
    4
 70
    1
 43
0
 10
-16.69999999999999
 20
-35.90000000000001
 10
-10.90000000000001
 20
-35.90000000000001
 10
-10.90000000000001
 20
-38.30000000000002
 10
-16.69999999999999
 20
-38.30000000000001
  0
LWPOLYLINE
  5
16B
100
AcDbEntity
  8
0
  6
ByLayer
 62
  256
370
   -1
100
AcDbPolyline
 90
    4
 70
    1
 43
0
 10
-7.281000000000006
 20
-47.00000000000002
 10
-4.880999999999999
 20
-47.00000000000002
 10
-4.880999999999999
 20
-52.80000000000002
 10
-7.281000000000006
 20
-52.80000000000002
  0
LWPOLYLINE
  5
16C
100
AcDbEntity
  8
0
  6
ByLayer
 62
  256
370
   -1
100
AcDbPolyline
 90
    4
 70
    1
 43
0
 10
2.87900000000002
 20
-47.00000000000002
 10
5.279000000000026
 20
-47.00000000000002
 10
5.279000000000026
 20
-52.80000000000002
 10
2.87900000000002
 20
-52.80000000000002
  0
LWPOLYLINE
  5
16D
100
AcDbEntity
  8
0
  6
ByLayer
 62
  256
370
   -1
100
AcDbPolyline
 90
    4
 70
    1
 43
0
 10
21.40000000000001
 20
-35.90000000000001
 10
27.2
 20
-35.90000000000001
 10
27.2
 20
-38.30000000000002
 10
21.40000000000001
 20
-38.30000000000002
  0
LWPOLYLINE
  5
16E
100
AcDbEntity
  8
0
  6
ByLayer
 62
  256
370
   -1
100
AcDbPolyline
 90
    4
 70
    1
 43
0
 10
22.13587122073471
 20
-41.99947444911837
 10
27.49437250930016
 20
-39.77991054140086
 10
28.41281274697637
 20
-41.99722141942795
 10
23.05431145841093
 20
-44.21678532714547
  0
LWPOLYLINE
  5
16F
100
AcDbEntity
  8
0
  6
ByLayer
 62
  256
370
   -1
100
AcDbPolyline
 90
    4
 70
    1
 43
0
 10
25.14989539794736
 20
-47.35304832720494
 10
29.25111472882933
 20
-43.25182899632298
 10
30.94817100367705
 20
-44.9488852711707
 10
26.84695167279508
 20
-49.05010460205266
  0
LWPOLYLINE
  5
170
100
AcDbEntity
  8
0
  6
ByLayer
 62
  256
370
   -1
100
AcDbPolyline
 90
    4
 70
    1
 43
0
 10
35.90000000000001
 20
-52.79999999999999
 10
35.90000000000001
 20
-47.00000000000001
 10
38.30000000000002
 20
-47.00000000000001
 10
38.30000000000002
 20
-52.79999999999999
  0
LWPOLYLINE
  5
171
100
AcDbEntity
  8
0
  6
ByLayer
 62
  256
370
   -1
100
AcDbPolyline
 90
    4
 70
    1
 43
0
 10
47.35304832720494
 20
-49.05010460205264
 10
43.25182899632298
 20
-44.94888527117067
 10
44.9488852711707
 20
-43.25182899632296
 10
49.05010460205266
 20
-47.35304832720492
  0
LWPOLYLINE
  5
172
100
AcDbEntity
  8
0
  6
ByLayer
 62
  256
370
   -1
100
AcDbPolyline
 90
    4
 70
    1
 43
0
 10
51.14568854158909
 20
-44.21678532714544
 10
45.78718725302364
 20
-41.99722141942793
 10
46.70562749069986
 20
-39.77991054140083
 10
52.0641287792653
 20
-41.99947444911835
  0
LWPOLYLINE
  5
173
100
AcDbEntity
  8
0
  6
ByLayer
 62
  256
370
   -1
100
AcDbPolyline
 90
    4
 70
    1
 43
0
 10
52.79999999999999
 20
-38.29999999999999
 10
47.00000000000001
 20
-38.29999999999999
 10
47.00000000000001
 20
-35.89999999999998
 10
52.79999999999999
 20
-35.89999999999998
  0
LWPOLYLINE
  5
174
100
AcDbEntity
  8
0
  6
ByLayer
 62
  256
370
   -1
100
AcDbPolyline
 90
    4
 70
    1
 43
0
 10
52.0641287792653
 20
-32.20052555088163
 10
46.70562749069985
 20
-34.42008945859914
 10
45.78718725302363
 20
-32.20277858057205
 10
51.14568854158908
 20
-29.98321467285454
  0
LWPOLYLINE
  5
175
100
AcDbEntity
  8
0
  6
ByLayer
 62
  256
370
   -1
100
AcDbPolyline
 90
    4
 70
    1
 43
0
 10
49.05010460205264
 20
-26.84695167279506
 10
44.94888527117067
 20
-30.94817100367703
 10
43.25182899632296
 20
-29.25111472882931
 10
47.35304832720492
 20
-25.14989539794735
  0
LWPOLYLINE
  5
176
100
AcDbEntity
  8
0
  6
ByLayer
 62
  256
370
   -1
100
AcDbPolyline
 90
    4
 70
    1
 43
0
 10
44.21678532714544
 20
-23.05431145841092
 10
41.99722141942793
 20
-28.41281274697636
 10
39.77991054140084
 20
-27.49437250930015
 10
41.99947444911835
 20
-22.1358712207347
  0
LWPOLYLINE
  5
177
100
AcDbEntity
  8
0
  6
ByLayer
 62
  256
370
   -1
100
AcDbPolyline
 90
    4
 70
    1
 43
0
 10
38.29999999999999
 20
-21.40000000000001
 10
38.29999999999999
 20
-27.2
 10
35.89999999999998
 20
-27.2
 10
35.89999999999998
 20
-21.40000000000001
  0
LWPOLYLINE
  5
178
100
AcDbEntity
  8
0
  6
ByLayer
 62
  256
370
   -1
100
AcDbPolyline
 90
    4
 70
    1
 43
0
 10
32.20052555088163
 20
-22.13587122073471
 10
34.42008945859914
 20
-27.49437250930016
 10
32.20277858057205
 20
-28.41281274697637
 10
29.98321467285453
 20
-23.05431145841093
  0
LWPOLYLINE
  5
179
100
AcDbEntity
  8
0
  6
ByLayer
 62
  256
370
   -1
100
AcDbPolyline
 90
    4
 70
    1
 43
0
 10
26.84695167279506
 20
-25.14989539794736
 10
30.94817100367703
 20
-29.25111472882933
 10
29.25111472882931
 20
-30.94817100367704
 10
25.14989539794735
 20
-26.84695167279508
  0
LWPOLYLINE
  5
17A
100
AcDbEntity
  8
0
  6
ByLayer
 62
  256
370
   -1
100
AcDbPolyline
 90
    4
 70
    1
 43
0
 10
23.05431145841092
 20
-29.98321467285455
 10
28.41281274697636
 20
-32.20277858057207
 10
27.49437250930015
 20
-34.42008945859916
 10
22.1358712207347
 20
-32.20052555088164
  0
LWPOLYLINE
  5
17B
100
AcDbEntity
  8
0
  6
ByLayer
 62
  256
370
   -1
100
AcDbPolyline
 90
    4
 70
    1
 43
0
 10
21.40000000000001
 20
-35.90000000000001
 10
27.2
 20
-35.90000000000001
 10
27.2
 20
-38.30000000000002
 10
21.40000000000001
 20
-38.30000000000001
  0
LWPOLYLINE
  5
17C
100
AcDbEntity
  8
0
  6
ByLayer
 62
  256
370
   -1
100
AcDbPolyline
 90
    4
 70
    1
 43
0
 10
30.819
 20
-47.00000000000002
 10
33.219
 20
-47.00000000000002
 10
33.219
 20
-52.80000000000002
 10
30.819
 20
-52.80000000000002
  0
LWPOLYLINE
  5
17D
100
AcDbEntity
  8
0
  6
ByLayer
 62
  256
370
   -1
100
AcDbPolyline
 90
    4
 70
    1
 43
0
 10
40.97900000000002
 20
-47.00000000000002
 10
43.37900000000003
 20
-47.00000000000002
 10
43.37900000000003
 20
-52.80000000000002
 10
40.97900000000002
 20
-52.80000000000002
  0
LWPOLYLINE
  5
17E
100
AcDbEntity
  8
0
  6
ByLayer
 62
  256
370
   -1
100
AcDbPolyline
 90
    4
 70
    1
 43
0
 10
59.50000000000001
 20
-35.90000000000001
 10
65.3
 20
-35.90000000000001
 10
65.3
 20
-38.30000000000002
 10
59.50000000000001
 20
-38.30000000000002
  0
LWPOLYLINE
  5
17F
100
AcDbEntity
  8
0
  6
ByLayer
 62
  256
370
   -1
100
AcDbPolyline
 90
    4
 70
    1
 43
0
 10
60.23587122073471
 20
-41.99947444911837
 10
65.59437250930016
 20
-39.77991054140086
 10
66.51281274697638
 20
-41.99722141942795
 10
61.15431145841093
 20
-44.21678532714547
  0
LWPOLYLINE
  5
180
100
AcDbEntity
  8
0
  6
ByLayer
 62
  256
370
   -1
100
AcDbPolyline
 90
    4
 70
    1
 43
0
 10
63.24989539794737
 20
-47.35304832720494
 10
67.35111472882933
 20
-43.25182899632298
 10
69.04817100367706
 20
-44.9488852711707
 10
64.94695167279508
 20
-49.05010460205266
  0
LWPOLYLINE
  5
181
100
AcDbEntity
  8
0
  6
ByLayer
 62
  256
370
   -1
100
AcDbPolyline
 90
    4
 70
    1
 43
0
 10
74.00000000000001
 20
-52.79999999999999
 10
74.00000000000001
 20
-47.00000000000001
 10
76.40000000000002
 20
-47.00000000000001
 10
76.40000000000002
 20
-52.79999999999999
  0
LWPOLYLINE
  5
182
100
AcDbEntity
  8
0
  6
ByLayer
 62
  256
370
   -1
100
AcDbPolyline
 90
    4
 70
    1
 43
0
 10
85.45304832720494
 20
-49.05010460205264
 10
81.35182899632298
 20
-44.94888527117067
 10
83.04888527117069
 20
-43.25182899632296
 10
87.15010460205266
 20
-47.35304832720492
  0
LWPOLYLINE
  5
183
100
AcDbEntity
  8
0
  6
ByLayer
 62
  256
370
   -1
100
AcDbPolyline
 90
    4
 70
    1
 43
0
 10
89.24568854158909
 20
-44.21678532714544
 10
83.88718725302364
 20
-41.99722141942793
 10
84.80562749069986
 20
-39.77991054140083
 10
90.1641287792653
 20
-41.99947444911835
  0
LWPOLYLINE
  5
184
100
AcDbEntity
  8
0
  6
ByLayer
 62
  256
370
   -1
100
AcDbPolyline
 90
    4
 70
    1
 43
0
 10
90.89999999999999
 20
-38.29999999999999
 10
85.10000000000001
 20
-38.29999999999999
 10
85.10000000000001
 20
-35.89999999999998
 10
90.89999999999999
 20
-35.89999999999998
  0
LWPOLYLINE
  5
185
100
AcDbEntity
  8
0
  6
ByLayer
 62
  256
370
   -1
100
AcDbPolyline
 90
    4
 70
    1
 43
0
 10
90.1641287792653
 20
-32.20052555088163
 10
84.80562749069986
 20
-34.42008945859914
 10
83.88718725302363
 20
-32.20277858057205
 10
89.24568854158909
 20
-29.98321467285454
  0
LWPOLYLINE
  5
186
100
AcDbEntity
  8
0
  6
ByLayer
 62
  256
370
   -1
100
AcDbPolyline
 90
    4
 70
    1
 43
0
 10
87.15010460205264
 20
-26.84695167279506
 10
83.04888527117068
 20
-30.94817100367703
 10
81.35182899632295
 20
-29.25111472882931
 10
85.45304832720493
 20
-25.14989539794735
  0
LWPOLYLINE
  5
187
100
AcDbEntity
  8
0
  6
ByLayer
 62
  256
370
   -1
100
AcDbPolyline
 90
    4
 70
    1
 43
0
 10
82.31678532714545
 20
-23.05431145841092
 10
80.09722141942794
 20
-28.41281274697636
 10
77.87991054140085
 20
-27.49437250930015
 10
80.09947444911836
 20
-22.1358712207347
  0
LWPOLYLINE
  5
188
100
AcDbEntity
  8
0
  6
ByLayer
 62
  256
370
   -1
100
AcDbPolyline
 90
    4
 70
    1
 43
0
 10
76.39999999999999
 20
-21.40000000000001
 10
76.39999999999999
 20
-27.2
 10
73.99999999999999
 20
-27.2
 10
73.99999999999999
 20
-21.40000000000001
  0
LWPOLYLINE
  5
189
100
AcDbEntity
  8
0
  6
ByLayer
 62
  256
370
   -1
100
AcDbPolyline
 90
    4
 70
    1
 43
0
 10
70.30052555088163
 20
-22.13587122073471
 10
72.52008945859914
 20
-27.49437250930016
 10
70.30277858057205
 20
-28.41281274697637
 10
68.08321467285454
 20
-23.05431145841093
  0
LWPOLYLINE
  5
18A
100
AcDbEntity
  8
0
  6
ByLayer
 62
  256
370
   -1
100
AcDbPolyline
 90
    4
 70
    1
 43
0
 10
64.94695167279507
 20
-25.14989539794736
 10
69.04817100367703
 20
-29.25111472882933
 10
67.35111472882932
 20
-30.94817100367704
 10
63.24989539794735
 20
-26.84695167279508
  0
LWPOLYLINE
  5
18B
100
AcDbEntity
  8
0
  6
ByLayer
 62
  256
370
   -1
100
AcDbPolyline
 90
    4
 70
    1
 43
0
 10
61.15431145841092
 20
-29.98321467285455
 10
66.51281274697637
 20
-32.20277858057207
 10
65.59437250930014
 20
-34.42008945859916
 10
60.2358712207347
 20
-32.20052555088164
  0
LWPOLYLINE
  5
18C
100
AcDbEntity
  8
0
  6
ByLayer
 62
  256
370
   -1
100
AcDbPolyline
 90
    4
 70
    1
 43
0
 10
59.50000000000001
 20
-35.90000000000001
 10
65.3
 20
-35.90000000000001
 10
65.3
 20
-38.30000000000002
 10
59.50000000000001
 20
-38.30000000000001
  0
LWPOLYLINE
  5
18D
100
AcDbEntity
  8
0
  6
ByLayer
 62
  256
370
   -1
100
AcDbPolyline
 90
    4
 70
    1
 43
0
 10
68.919
 20
-47.00000000000002
 10
71.319
 20
-47.00000000000002
 10
71.319
 20
-52.80000000000002
 10
68.919
 20
-52.80000000000002
  0
LWPOLYLINE
  5
18E
100
AcDbEntity
  8
0
  6
ByLayer
 62
  256
370
   -1
100
AcDbPolyline
 90
    4
 70
    1
 43
0
 10
79.07900000000002
 20
-47.00000000000002
 10
81.47900000000003
 20
-47.00000000000002
 10
81.47900000000003
 20
-52.80000000000002
 10
79.07900000000002
 20
-52.80000000000002
  0
LWPOLYLINE
  5
18F
100
AcDbEntity
  8
0
  6
ByLayer
 62
  256
370
   -1
100
AcDbPolyline
 90
    4
 70
    1
 43
0
 10
97.60000000000002
 20
-35.90000000000001
 10
103.4
 20
-35.90000000000001
 10
103.4
 20
-38.30000000000002
 10
97.60000000000002
 20
-38.30000000000002
  0
LWPOLYLINE
  5
190
100
AcDbEntity
  8
0
  6
ByLayer
 62
  256
370
   -1
100
AcDbPolyline
 90
    4
 70
    1
 43
0
 10
98.3358712207347
 20
-41.99947444911837
 10
103.6943725093002
 20
-39.77991054140086
 10
104.6128127469764
 20
-41.99722141942795
 10
99.25431145841094
 20
-44.21678532714547
  0
LWPOLYLINE
  5
191
100
AcDbEntity
  8
0
  6
ByLayer
 62
  256
370
   -1
100
AcDbPolyline
 90
    4
 70
    1
 43
0
 10
101.3498953979474
 20
-47.35304832720494
 10
105.4511147288293
 20
-43.25182899632298
 10
107.148171003677
 20
-44.9488852711707
 10
103.0469516727951
 20
-49.05010460205266
  0
LWPOLYLINE
  5
192
100
AcDbEntity
  8
0
  6
ByLayer
 62
  256
370
   -1
100
AcDbPolyline
 90
    4
 70
    1
 43
0
 10
112.1
 20
-52.79999999999999
 10
112.1
 20
-47.00000000000001
 10
114.5
 20
-47.00000000000001
 10
114.5
 20
-52.79999999999999
  0
LWPOLYLINE
  5
193
100
AcDbEntity
  8
0
  6
ByLayer
 62
  256
370
   -1
100
AcDbPolyline
 90
    4
 70
    1
 43
0
 10
123.5530483272049
 20
-49.05010460205264
 10
119.451828996323
 20
-44.94888527117067
 10
121.1488852711707
 20
-43.25182899632296
 10
125.2501046020527
 20
-47.35304832720492
  0
LWPOLYLINE
  5
194
100
AcDbEntity
  8
0
  6
ByLayer
 62
  256
370
   -1
100
AcDbPolyline
 90
    4
 70
    1
 43
0
 10
127.3456885415891
 20
-44.21678532714544
 10
121.9871872530236
 20
-41.99722141942793
 10
122.9056274906999
 20
-39.77991054140083
 10
128.2641287792653
 20
-41.99947444911835
  0
LWPOLYLINE
  5
195
100
AcDbEntity
  8
0
  6
ByLayer
 62
  256
370
   -1
100
AcDbPolyline
 90
    4
 70
    1
 43
0
 10
129
 20
-38.29999999999999
 10
123.2
 20
-38.29999999999999
 10
123.2
 20
-35.89999999999998
 10
129
 20
-35.89999999999998
  0
LWPOLYLINE
  5
196
100
AcDbEntity
  8
0
  6
ByLayer
 62
  256
370
   -1
100
AcDbPolyline
 90
    4
 70
    1
 43
0
 10
128.2641287792653
 20
-32.20052555088163
 10
122.9056274906999
 20
-34.42008945859914
 10
121.9871872530236
 20
-32.20277858057205
 10
127.3456885415891
 20
-29.98321467285454
  0
LWPOLYLINE
  5
197
100
AcDbEntity
  8
0
  6
ByLayer
 62
  256
370
   -1
100
AcDbPolyline
 90
    4
 70
    1
 43
0
 10
125.2501046020526
 20
-26.84695167279506
 10
121.1488852711707
 20
-30.94817100367703
 10
119.4518289963229
 20
-29.25111472882931
 10
123.5530483272049
 20
-25.14989539794735
  0
LWPOLYLINE
  5
198
100
AcDbEntity
  8
0
  6
ByLayer
 62
  256
370
   -1
100
AcDbPolyline
 90
    4
 70
    1
 43
0
 10
120.4167853271454
 20
-23.05431145841092
 10
118.1972214194279
 20
-28.41281274697636
 10
115.9799105414008
 20
-27.49437250930015
 10
118.1994744491184
 20
-22.1358712207347
  0
LWPOLYLINE
  5
199
100
AcDbEntity
  8
0
  6
ByLayer
 62
  256
370
   -1
100
AcDbPolyline
 90
    4
 70
    1
 43
0
 10
114.5
 20
-21.40000000000001
 10
114.5
 20
-27.2
 10
112.1
 20
-27.2
 10
112.1
 20
-21.40000000000001
  0
LWPOLYLINE
  5
19A
100
AcDbEntity
  8
0
  6
ByLayer
 62
  256
370
   -1
100
AcDbPolyline
 90
    4
 70
    1
 43
0
 10
108.4005255508816
 20
-22.13587122073471
 10
110.6200894585992
 20
-27.49437250930016
 10
108.4027785805721
 20
-28.41281274697637
 10
106.1832146728545
 20
-23.05431145841093
  0
LWPOLYLINE
  5
19B
100
AcDbEntity
  8
0
  6
ByLayer
 62
  256
370
   -1
100
AcDbPolyline
 90
    4
 70
    1
 43
0
 10
103.0469516727951
 20
-25.14989539794736
 10
107.148171003677
 20
-29.25111472882933
 10
105.4511147288293
 20
-30.94817100367704
 10
101.3498953979473
 20
-26.84695167279508
  0
LWPOLYLINE
  5
19C
100
AcDbEntity
  8
0
  6
ByLayer
 62
  256
370
   -1
100
AcDbPolyline
 90
    4
 70
    1
 43
0
 10
99.25431145841091
 20
-29.98321467285455
 10
104.6128127469764
 20
-32.20277858057207
 10
103.6943725093001
 20
-34.42008945859916
 10
98.3358712207347
 20
-32.20052555088164
  0
LWPOLYLINE
  5
19D
100
AcDbEntity
  8
0
  6
ByLayer
 62
  256
370
   -1
100
AcDbPolyline
 90
    4
 70
    1
 43
0
 10
97.60000000000002
 20
-35.90000000000001
 10
103.4
 20
-35.90000000000001
 10
103.4
 20
-38.30000000000002
 10
97.60000000000002
 20
-38.30000000000001
  0
LWPOLYLINE
  5
19E
100
AcDbEntity
  8
0
  6
ByLayer
 62
  256
370
   -1
100
AcDbPolyline
 90
    4
 70
    1
 43
0
 10
107.019
 20
-47.00000000000002
 10
109.419
 20
-47.00000000000002
 10
109.419
 20
-52.80000000000002
 10
107.019
 20
-52.80000000000002
  0
LWPOLYLINE
  5
19F
100
AcDbEntity
  8
0
  6
ByLayer
 62
  256
370
   -1
100
AcDbPolyline
 90
    4
 70
    1
 43
0
 10
117.179
 20
-47.00000000000002
 10
119.579
 20
-47.00000000000002
 10
119.579
 20
-52.80000000000002
 10
117.179
 20
-52.80000000000002
  0
LWPOLYLINE
  5
1A0
100
AcDbEntity
  8
0
  6
ByLayer
 62
  256
370
   -1
100
AcDbPolyline
 90
    4
 70
    1
 43
0
 10
-16.69999999999999
 20
-77.70000000000002
 10
-10.90000000000001
 20
-77.70000000000002
 10
-10.90000000000001
 20
-80.10000000000002
 10
-16.69999999999999
 20
-80.10000000000002
  0
LWPOLYLINE
  5
1A1
100
AcDbEntity
  8
0
  6
ByLayer
 62
  256
370
   -1
100
AcDbPolyline
 90
    4
 70
    1
 43
0
 10
-15.96412877926529
 20
-83.79947444911838
 10
-10.60562749069985
 20
-81.57991054140086
 10
-9.687187253023628
 20
-83.79722141942796
 10
-15.04568854158908
 20
-86.01678532714547
  0
LWPOLYLINE
  5
1A2
100
AcDbEntity
  8
0
  6
ByLayer
 62
  256
370
   -1
100
AcDbPolyline
 90
    4
 70
    1
 43
0
 10
-12.95010460205264
 20
-89.15304832720494
 10
-8.848885271170674
 20
-85.05182899632298
 10
-7.151828996322957
 20
-86.74888527117069
 10
-11.25304832720492
 20
-90.85010460205267
  0
LWPOLYLINE
  5
1A3
100
AcDbEntity
  8
0
  6
ByLayer
 62
  256
370
   -1
100
AcDbPolyline
 90
    4
 70
    1
 43
0
 10
-2.19999999999999
 20
-94.59999999999999
 10
-2.199999999999989
 20
-88.80000000000001
 10
0.2000000000000165
 20
-88.80000000000001
 10
0.2000000000000163
 20
-94.59999999999999
  0
LWPOLYLINE
  5
1A4
100
AcDbEntity
  8
0
  6
ByLayer
 62
  256
370
   -1
100
AcDbPolyline
 90
    4
 70
    1
 43
0
 10
9.253048327204938
 20
-90.85010460205264
 10
5.151828996322974
 20
-86.74888527117068
 10
6.848885271170692
 20
-85.05182899632297
 10
10.95010460205266
 20
-89.15304832720493
  0
LWPOLYLINE
  5
1A5
100
AcDbEntity
  8
0
  6
ByLayer
 62
  256
370
   -1
100
AcDbPolyline
 90
    4
 70
    1
 43
0
 10
13.04568854158909
 20
-86.01678532714544
 10
7.687187253023639
 20
-83.79722141942793
 10
8.605627490699858
 20
-81.57991054140084
 10
13.96412877926531
 20
-83.79947444911835
  0
LWPOLYLINE
  5
1A6
100
AcDbEntity
  8
0
  6
ByLayer
 62
  256
370
   -1
100
AcDbPolyline
 90
    4
 70
    1
 43
0
 10
14.69999999999999
 20
-80.09999999999999
 10
8.900000000000006
 20
-80.09999999999999
 10
8.900000000000006
 20
-77.69999999999999
 10
14.69999999999999
 20
-77.69999999999999
  0
LWPOLYLINE
  5
1A7
100
AcDbEntity
  8
0
  6
ByLayer
 62
  256
370
   -1
100
AcDbPolyline
 90
    4
 70
    1
 43
0
 10
13.9641287792653
 20
-74.00052555088163
 10
8.605627490699849
 20
-76.22008945859915
 10
7.68718725302363
 20
-74.00277858057206
 10
13.04568854158908
 20
-71.78321467285454
  0
LWPOLYLINE
  5
1A8
100
AcDbEntity
  8
0
  6
ByLayer
 62
  256
370
   -1
100
AcDbPolyline
 90
    4
 70
    1
 43
0
 10
10.95010460205264
 20
-68.64695167279507
 10
6.848885271170675
 20
-72.74817100367703
 10
5.151828996322958
 20
-71.0511147288293
 10
9.253048327204921
 20
-66.94989539794734
  0
LWPOLYLINE
  5
1A9
100
AcDbEntity
  8
0
  6
ByLayer
 62
  256
370
   -1
100
AcDbPolyline
 90
    4
 70
    1
 43
0
 10
6.116785327145447
 20
-64.85431145841092
 10
3.89722141942793
 20
-70.21281274697637
 10
1.679910541400837
 20
-69.29437250930015
 10
3.899474449118355
 20
-63.9358712207347
  0
LWPOLYLINE
  5
1AA
100
AcDbEntity
  8
0
  6
ByLayer
 62
  256
370
   -1
100
AcDbPolyline
 90
    4
 70
    1
 43
0
 10
0.1999999999999916
 20
-63.20000000000002
 10
0.1999999999999905
 20
-69
 10
-2.200000000000015
 20
-69
 10
-2.200000000000014
 20
-63.20000000000002
  0
LWPOLYLINE
  5
1AB
100
AcDbEntity
  8
0
  6
ByLayer
 62
  256
370
   -1
100
AcDbPolyline
 90
    4
 70
    1
 43
0
 10
-5.899474449118375
 20
-63.93587122073471
 10
-3.67991054140086
 20
-69.29437250930016
 10
-5.897221419427953
 20
-70.21281274697638
 10
-8.116785327145468
 20
-64.85431145841093
  0
LWPOLYLINE
  5
1AC
100
AcDbEntity
  8
0
  6
ByLayer
 62
  256
370
   -1
100
AcDbPolyline
 90
    4
 70
    1
 43
0
 10
-11.25304832720494
 20
-66.94989539794737
 10
-7.151828996322974
 20
-71.05111472882933
 10
-8.848885271170692
 20
-72.74817100367704
 10
-12.95010460205265
 20
-68.64695167279508
  0
LWPOLYLINE
  5
1AD
100
AcDbEntity
  8
0
  6
ByLayer
 62
  256
370
   -1
100
AcDbPolyline
 90
    4
 70
    1
 43
0
 10
-15.04568854158908
 20
-71.78321467285456
 10
-9.687187253023637
 20
-74.00277858057207
 10
-10.60562749069986
 20
-76.22008945859916
 10
-15.9641287792653
 20
-74.00052555088165
  0
LWPOLYLINE
  5
1AE
100
AcDbEntity
  8
0
  6
ByLayer
 62
  256
370
   -1
100
AcDbPolyline
 90
    4
 70
    1
 43
0
 10
-16.69999999999999
 20
-77.70000000000002
 10
-10.90000000000001
 20
-77.70000000000002
 10
-10.90000000000001
 20
-80.10000000000002
 10
-16.69999999999999
 20
-80.10000000000002
  0
LWPOLYLINE
  5
1AF
100
AcDbEntity
  8
0
  6
ByLayer
 62
  256
370
   -1
100
AcDbPolyline
 90
    4
 70
    1
 43
0
 10
-7.281000000000006
 20
-88.80000000000003
 10
-4.880999999999999
 20
-88.80000000000003
 10
-4.880999999999999
 20
-94.60000000000002
 10
-7.281000000000006
 20
-94.60000000000002
  0
LWPOLYLINE
  5
1B0
100
AcDbEntity
  8
0
  6
ByLayer
 62
  256
370
   -1
100
AcDbPolyline
 90
    4
 70
    1
 43
0
 10
2.87900000000002
 20
-88.80000000000003
 10
5.279000000000026
 20
-88.80000000000003
 10
5.279000000000026
 20
-94.60000000000002
 10
2.87900000000002
 20
-94.60000000000002
  0
CIRCLE
  5
1B1
100
AcDbEntity
  8
0
  6
ByLayer
 62
  256
370
   -1
100
AcDbCircle
 10
-16.30000000000001
 20
-63.60000000000004
 40
1.6
  0
CIRCLE
  5
1B2
100
AcDbEntity
  8
0
  6
ByLayer
 62
  256
370
   -1
100
AcDbCircle
 10
52.27999999999997
 20
-63.60000000000004
 40
1.6
  0
CIRCLE
  5
1B3
100
AcDbEntity
  8
0
  6
ByLayer
 62
  256
370
   -1
100
AcDbCircle
 10
59.95999999999998
 20
-63.59900000000006
 40
1.6
  0
CIRCLE
  5
1B4
100
AcDbEntity
  8
0
  6
ByLayer
 62
  256
370
   -1
100
AcDbCircle
 10
128.48
 20
-63.60000000000004
 40
1.6
  0
CIRCLE
  5
1B5
100
AcDbEntity
  8
0
  6
ByLayer
 62
  256
370
   -1
100
AcDbCircle
 10
-16.30000000000001
 20
-132.18
 40
1.6
  0
CIRCLE
  5
1B6
100
AcDbEntity
  8
0
  6
ByLayer
 62
  256
370
   -1
100
AcDbCircle
 10
52.27999999999997
 20
-132.18
 40
1.6
  0
CIRCLE
  5
1B7
100
AcDbEntity
  8
0
  6
ByLayer
 62
  256
370
   -1
100
AcDbCircle
 10
59.95999999999998
 20
-132.18
 40
1.6
  0
CIRCLE
  5
1B8
100
AcDbEntity
  8
0
  6
ByLayer
 62
  256
370
   -1
100
AcDbCircle
 10
128.48
 20
-132.18
 40
1.6
  0
LWPOLYLINE
  5
1B9
100
AcDbEntity
  8
0
  6
ByLayer
 62
  256
370
   -1
100
AcDbPolyline
 90
    4
 70
    1
 43
0
 10
21.40000000000001
 20
-77.70000000000002
 10
27.2
 20
-77.70000000000002
 10
27.2
 20
-80.10000000000002
 10
21.40000000000001
 20
-80.10000000000002
  0
LWPOLYLINE
  5
1BA
100
AcDbEntity
  8
0
  6
ByLayer
 62
  256
370
   -1
100
AcDbPolyline
 90
    4
 70
    1
 43
0
 10
22.13587122073471
 20
-83.79947444911838
 10
27.49437250930016
 20
-81.57991054140086
 10
28.41281274697637
 20
-83.79722141942796
 10
23.05431145841093
 20
-86.01678532714547
  0
LWPOLYLINE
  5
1BB
100
AcDbEntity
  8
0
  6
ByLayer
 62
  256
370
   -1
100
AcDbPolyline
 90
    4
 70
    1
 43
0
 10
25.14989539794736
 20
-89.15304832720494
 10
29.25111472882933
 20
-85.05182899632298
 10
30.94817100367705
 20
-86.74888527117069
 10
26.84695167279508
 20
-90.85010460205267
  0
LWPOLYLINE
  5
1BC
100
AcDbEntity
  8
0
  6
ByLayer
 62
  256
370
   -1
100
AcDbPolyline
 90
    4
 70
    1
 43
0
 10
35.90000000000001
 20
-94.59999999999999
 10
35.90000000000001
 20
-88.80000000000001
 10
38.30000000000002
 20
-88.80000000000001
 10
38.30000000000002
 20
-94.59999999999999
  0
LWPOLYLINE
  5
1BD
100
AcDbEntity
  8
0
  6
ByLayer
 62
  256
370
   -1
100
AcDbPolyline
 90
    4
 70
    1
 43
0
 10
47.35304832720494
 20
-90.85010460205264
 10
43.25182899632298
 20
-86.74888527117068
 10
44.9488852711707
 20
-85.05182899632297
 10
49.05010460205266
 20
-89.15304832720493
  0
LWPOLYLINE
  5
1BE
100
AcDbEntity
  8
0
  6
ByLayer
 62
  256
370
   -1
100
AcDbPolyline
 90
    4
 70
    1
 43
0
 10
51.14568854158909
 20
-86.01678532714544
 10
45.78718725302364
 20
-83.79722141942793
 10
46.70562749069986
 20
-81.57991054140084
 10
52.0641287792653
 20
-83.79947444911835
  0
LWPOLYLINE
  5
1BF
100
AcDbEntity
  8
0
  6
ByLayer
 62
  256
370
   -1
100
AcDbPolyline
 90
    4
 70
    1
 43
0
 10
52.79999999999999
 20
-80.09999999999999
 10
47.00000000000001
 20
-80.09999999999999
 10
47.00000000000001
 20
-77.69999999999999
 10
52.79999999999999
 20
-77.69999999999999
  0
LWPOLYLINE
  5
1C0
100
AcDbEntity
  8
0
  6
ByLayer
 62
  256
370
   -1
100
AcDbPolyline
 90
    4
 70
    1
 43
0
 10
52.0641287792653
 20
-74.00052555088163
 10
46.70562749069985
 20
-76.22008945859915
 10
45.78718725302363
 20
-74.00277858057206
 10
51.14568854158908
 20
-71.78321467285454
  0
LWPOLYLINE
  5
1C1
100
AcDbEntity
  8
0
  6
ByLayer
 62
  256
370
   -1
100
AcDbPolyline
 90
    4
 70
    1
 43
0
 10
49.05010460205264
 20
-68.64695167279507
 10
44.94888527117067
 20
-72.74817100367703
 10
43.25182899632296
 20
-71.0511147288293
 10
47.35304832720492
 20
-66.94989539794734
  0
LWPOLYLINE
  5
1C2
100
AcDbEntity
  8
0
  6
ByLayer
 62
  256
370
   -1
100
AcDbPolyline
 90
    4
 70
    1
 43
0
 10
44.21678532714544
 20
-64.85431145841092
 10
41.99722141942793
 20
-70.21281274697637
 10
39.77991054140084
 20
-69.29437250930015
 10
41.99947444911835
 20
-63.9358712207347
  0
LWPOLYLINE
  5
1C3
100
AcDbEntity
  8
0
  6
ByLayer
 62
  256
370
   -1
100
AcDbPolyline
 90
    4
 70
    1
 43
0
 10
38.29999999999999
 20
-63.20000000000002
 10
38.29999999999999
 20
-69
 10
35.89999999999998
 20
-69
 10
35.89999999999998
 20
-63.20000000000002
  0
LWPOLYLINE
  5
1C4
100
AcDbEntity
  8
0
  6
ByLayer
 62
  256
370
   -1
100
AcDbPolyline
 90
    4
 70
    1
 43
0
 10
32.20052555088163
 20
-63.93587122073471
 10
34.42008945859914
 20
-69.29437250930016
 10
32.20277858057205
 20
-70.21281274697638
 10
29.98321467285453
 20
-64.85431145841093
  0
LWPOLYLINE
  5
1C5
100
AcDbEntity
  8
0
  6
ByLayer
 62
  256
370
   -1
100
AcDbPolyline
 90
    4
 70
    1
 43
0
 10
26.84695167279506
 20
-66.94989539794737
 10
30.94817100367703
 20
-71.05111472882933
 10
29.25111472882931
 20
-72.74817100367704
 10
25.14989539794735
 20
-68.64695167279508
  0
LWPOLYLINE
  5
1C6
100
AcDbEntity
  8
0
  6
ByLayer
 62
  256
370
   -1
100
AcDbPolyline
 90
    4
 70
    1
 43
0
 10
23.05431145841092
 20
-71.78321467285456
 10
28.41281274697636
 20
-74.00277858057207
 10
27.49437250930015
 20
-76.22008945859916
 10
22.1358712207347
 20
-74.00052555088165
  0
LWPOLYLINE
  5
1C7
100
AcDbEntity
  8
0
  6
ByLayer
 62
  256
370
   -1
100
AcDbPolyline
 90
    4
 70
    1
 43
0
 10
21.40000000000001
 20
-77.70000000000002
 10
27.2
 20
-77.70000000000002
 10
27.2
 20
-80.10000000000002
 10
21.40000000000001
 20
-80.10000000000002
  0
LWPOLYLINE
  5
1C8
100
AcDbEntity
  8
0
  6
ByLayer
 62
  256
370
   -1
100
AcDbPolyline
 90
    4
 70
    1
 43
0
 10
30.819
 20
-88.80000000000003
 10
33.219
 20
-88.80000000000003
 10
33.219
 20
-94.60000000000002
 10
30.819
 20
-94.60000000000002
  0
LWPOLYLINE
  5
1C9
100
AcDbEntity
  8
0
  6
ByLayer
 62
  256
370
   -1
100
AcDbPolyline
 90
    4
 70
    1
 43
0
 10
40.97900000000002
 20
-88.80000000000003
 10
43.37900000000003
 20
-88.80000000000003
 10
43.37900000000003
 20
-94.60000000000002
 10
40.97900000000002
 20
-94.60000000000002
  0
LWPOLYLINE
  5
1CA
100
AcDbEntity
  8
0
  6
ByLayer
 62
  256
370
   -1
100
AcDbPolyline
 90
    4
 70
    1
 43
0
 10
59.50000000000001
 20
-77.70000000000002
 10
65.3
 20
-77.70000000000002
 10
65.3
 20
-80.10000000000002
 10
59.50000000000001
 20
-80.10000000000002
  0
LWPOLYLINE
  5
1CB
100
AcDbEntity
  8
0
  6
ByLayer
 62
  256
370
   -1
100
AcDbPolyline
 90
    4
 70
    1
 43
0
 10
60.23587122073471
 20
-83.79947444911838
 10
65.59437250930016
 20
-81.57991054140086
 10
66.51281274697638
 20
-83.79722141942796
 10
61.15431145841093
 20
-86.01678532714547
  0
LWPOLYLINE
  5
1CC
100
AcDbEntity
  8
0
  6
ByLayer
 62
  256
370
   -1
100
AcDbPolyline
 90
    4
 70
    1
 43
0
 10
63.24989539794737
 20
-89.15304832720494
 10
67.35111472882933
 20
-85.05182899632298
 10
69.04817100367706
 20
-86.74888527117069
 10
64.94695167279508
 20
-90.85010460205267
  0
LWPOLYLINE
  5
1CD
100
AcDbEntity
  8
0
  6
ByLayer
 62
  256
370
   -1
100
AcDbPolyline
 90
    4
 70
    1
 43
0
 10
74.00000000000001
 20
-94.59999999999999
 10
74.00000000000001
 20
-88.80000000000001
 10
76.40000000000002
 20
-88.80000000000001
 10
76.40000000000002
 20
-94.59999999999999
  0
LWPOLYLINE
  5
1CE
100
AcDbEntity
  8
0
  6
ByLayer
 62
  256
370
   -1
100
AcDbPolyline
 90
    4
 70
    1
 43
0
 10
85.45304832720494
 20
-90.85010460205264
 10
81.35182899632298
 20
-86.74888527117068
 10
83.04888527117069
 20
-85.05182899632297
 10
87.15010460205266
 20
-89.15304832720493
  0
LWPOLYLINE
  5
1CF
100
AcDbEntity
  8
0
  6
ByLayer
 62
  256
370
   -1
100
AcDbPolyline
 90
    4
 70
    1
 43
0
 10
89.24568854158909
 20
-86.01678532714544
 10
83.88718725302364
 20
-83.79722141942793
 10
84.80562749069986
 20
-81.57991054140084
 10
90.1641287792653
 20
-83.79947444911835
  0
LWPOLYLINE
  5
1D0
100
AcDbEntity
  8
0
  6
ByLayer
 62
  256
370
   -1
100
AcDbPolyline
 90
    4
 70
    1
 43
0
 10
90.89999999999999
 20
-80.09999999999999
 10
85.10000000000001
 20
-80.09999999999999
 10
85.10000000000001
 20
-77.69999999999999
 10
90.89999999999999
 20
-77.69999999999999
  0
LWPOLYLINE
  5
1D1
100
AcDbEntity
  8
0
  6
ByLayer
 62
  256
370
   -1
100
AcDbPolyline
 90
    4
 70
    1
 43
0
 10
90.1641287792653
 20
-74.00052555088163
 10
84.80562749069986
 20
-76.22008945859915
 10
83.88718725302363
 20
-74.00277858057206
 10
89.24568854158909
 20
-71.78321467285454
  0
LWPOLYLINE
  5
1D2
100
AcDbEntity
  8
0
  6
ByLayer
 62
  256
370
   -1
100
AcDbPolyline
 90
    4
 70
    1
 43
0
 10
87.15010460205264
 20
-68.64695167279507
 10
83.04888527117068
 20
-72.74817100367703
 10
81.35182899632295
 20
-71.0511147288293
 10
85.45304832720493
 20
-66.94989539794734
  0
LWPOLYLINE
  5
1D3
100
AcDbEntity
  8
0
  6
ByLayer
 62
  256
370
   -1
100
AcDbPolyline
 90
    4
 70
    1
 43
0
 10
82.31678532714545
 20
-64.85431145841092
 10
80.09722141942794
 20
-70.21281274697637
 10
77.87991054140085
 20
-69.29437250930015
 10
80.09947444911836
 20
-63.9358712207347
  0
LWPOLYLINE
  5
1D4
100
AcDbEntity
  8
0
  6
ByLayer
 62
  256
370
   -1
100
AcDbPolyline
 90
    4
 70
    1
 43
0
 10
76.39999999999999
 20
-63.20000000000002
 10
76.39999999999999
 20
-69
 10
73.99999999999999
 20
-69
 10
73.99999999999999
 20
-63.20000000000002
  0
LWPOLYLINE
  5
1D5
100
AcDbEntity
  8
0
  6
ByLayer
 62
  256
370
   -1
100
AcDbPolyline
 90
    4
 70
    1
 43
0
 10
70.30052555088163
 20
-63.93587122073471
 10
72.52008945859914
 20
-69.29437250930016
 10
70.30277858057205
 20
-70.21281274697638
 10
68.08321467285454
 20
-64.85431145841093
  0
LWPOLYLINE
  5
1D6
100
AcDbEntity
  8
0
  6
ByLayer
 62
  256
370
   -1
100
AcDbPolyline
 90
    4
 70
    1
 43
0
 10
64.94695167279507
 20
-66.94989539794737
 10
69.04817100367703
 20
-71.05111472882933
 10
67.35111472882932
 20
-72.74817100367704
 10
63.24989539794735
 20
-68.64695167279508
  0
LWPOLYLINE
  5
1D7
100
AcDbEntity
  8
0
  6
ByLayer
 62
  256
370
   -1
100
AcDbPolyline
 90
    4
 70
    1
 43
0
 10
61.15431145841092
 20
-71.78321467285456
 10
66.51281274697637
 20
-74.00277858057207
 10
65.59437250930014
 20
-76.22008945859916
 10
60.2358712207347
 20
-74.00052555088165
  0
LWPOLYLINE
  5
1D8
100
AcDbEntity
  8
0
  6
ByLayer
 62
  256
370
   -1
100
AcDbPolyline
 90
    4
 70
    1
 43
0
 10
59.50000000000001
 20
-77.70000000000002
 10
65.3
 20
-77.70000000000002
 10
65.3
 20
-80.10000000000002
 10
59.50000000000001
 20
-80.10000000000002
  0
LWPOLYLINE
  5
1D9
100
AcDbEntity
  8
0
  6
ByLayer
 62
  256
370
   -1
100
AcDbPolyline
 90
    4
 70
    1
 43
0
 10
68.919
 20
-88.80000000000003
 10
71.319
 20
-88.80000000000003
 10
71.319
 20
-94.60000000000002
 10
68.919
 20
-94.60000000000002
  0
LWPOLYLINE
  5
1DA
100
AcDbEntity
  8
0
  6
ByLayer
 62
  256
370
   -1
100
AcDbPolyline
 90
    4
 70
    1
 43
0
 10
79.07900000000002
 20
-88.80000000000003
 10
81.47900000000003
 20
-88.80000000000003
 10
81.47900000000003
 20
-94.60000000000002
 10
79.07900000000002
 20
-94.60000000000002
  0
LWPOLYLINE
  5
1DB
100
AcDbEntity
  8
0
  6
ByLayer
 62
  256
370
   -1
100
AcDbPolyline
 90
    4
 70
    1
 43
0
 10
97.60000000000002
 20
-77.70000000000002
 10
103.4
 20
-77.70000000000002
 10
103.4
 20
-80.10000000000002
 10
97.60000000000002
 20
-80.10000000000002
  0
LWPOLYLINE
  5
1DC
100
AcDbEntity
  8
0
  6
ByLayer
 62
  256
370
   -1
100
AcDbPolyline
 90
    4
 70
    1
 43
0
 10
98.3358712207347
 20
-83.79947444911838
 10
103.6943725093002
 20
-81.57991054140086
 10
104.6128127469764
 20
-83.79722141942796
 10
99.25431145841094
 20
-86.01678532714547
  0
LWPOLYLINE
  5
1DD
100
AcDbEntity
  8
0
  6
ByLayer
 62
  256
370
   -1
100
AcDbPolyline
 90
    4
 70
    1
 43
0
 10
101.3498953979474
 20
-89.15304832720494
 10
105.4511147288293
 20
-85.05182899632298
 10
107.148171003677
 20
-86.74888527117069
 10
103.0469516727951
 20
-90.85010460205267
  0
LWPOLYLINE
  5
1DE
100
AcDbEntity
  8
0
  6
ByLayer
 62
  256
370
   -1
100
AcDbPolyline
 90
    4
 70
    1
 43
0
 10
112.1
 20
-94.59999999999999
 10
112.1
 20
-88.80000000000001
 10
114.5
 20
-88.80000000000001
 10
114.5
 20
-94.59999999999999
  0
LWPOLYLINE
  5
1DF
100
AcDbEntity
  8
0
  6
ByLayer
 62
  256
370
   -1
100
AcDbPolyline
 90
    4
 70
    1
 43
0
 10
123.5530483272049
 20
-90.85010460205264
 10
119.451828996323
 20
-86.74888527117068
 10
121.1488852711707
 20
-85.05182899632297
 10
125.2501046020527
 20
-89.15304832720493
  0
LWPOLYLINE
  5
1E0
100
AcDbEntity
  8
0
  6
ByLayer
 62
  256
370
   -1
100
AcDbPolyline
 90
    4
 70
    1
 43
0
 10
127.3456885415891
 20
-86.01678532714544
 10
121.9871872530236
 20
-83.79722141942793
 10
122.9056274906999
 20
-81.57991054140084
 10
128.2641287792653
 20
-83.79947444911835
  0
LWPOLYLINE
  5
1E1
100
AcDbEntity
  8
0
  6
ByLayer
 62
  256
370
   -1
100
AcDbPolyline
 90
    4
 70
    1
 43
0
 10
129
 20
-80.09999999999999
 10
123.2
 20
-80.09999999999999
 10
123.2
 20
-77.69999999999999
 10
129
 20
-77.69999999999999
  0
LWPOLYLINE
  5
1E2
100
AcDbEntity
  8
0
  6
ByLayer
 62
  256
370
   -1
100
AcDbPolyline
 90
    4
 70
    1
 43
0
 10
128.2641287792653
 20
-74.00052555088163
 10
122.9056274906999
 20
-76.22008945859915
 10
121.9871872530236
 20
-74.00277858057206
 10
127.3456885415891
 20
-71.78321467285454
  0
LWPOLYLINE
  5
1E3
100
AcDbEntity
  8
0
  6
ByLayer
 62
  256
370
   -1
100
AcDbPolyline
 90
    4
 70
    1
 43
0
 10
125.2501046020526
 20
-68.64695167279507
 10
121.1488852711707
 20
-72.74817100367703
 10
119.4518289963229
 20
-71.0511147288293
 10
123.5530483272049
 20
-66.94989539794734
  0
LWPOLYLINE
  5
1E4
100
AcDbEntity
  8
0
  6
ByLayer
 62
  256
370
   -1
100
AcDbPolyline
 90
    4
 70
    1
 43
0
 10
120.4167853271454
 20
-64.85431145841092
 10
118.1972214194279
 20
-70.21281274697637
 10
115.9799105414008
 20
-69.29437250930015
 10
118.1994744491184
 20
-63.9358712207347
  0
LWPOLYLINE
  5
1E5
100
AcDbEntity
  8
0
  6
ByLayer
 62
  256
370
   -1
100
AcDbPolyline
 90
    4
 70
    1
 43
0
 10
114.5
 20
-63.20000000000002
 10
114.5
 20
-69
 10
112.1
 20
-69
 10
112.1
 20
-63.20000000000002
  0
LWPOLYLINE
  5
1E6
100
AcDbEntity
  8
0
  6
ByLayer
 62
  256
370
   -1
100
AcDbPolyline
 90
    4
 70
    1
 43
0
 10
108.4005255508816
 20
-63.93587122073471
 10
110.6200894585992
 20
-69.29437250930016
 10
108.4027785805721
 20
-70.21281274697638
 10
106.1832146728545
 20
-64.85431145841093
  0
LWPOLYLINE
  5
1E7
100
AcDbEntity
  8
0
  6
ByLayer
 62
  256
370
   -1
100
AcDbPolyline
 90
    4
 70
    1
 43
0
 10
103.0469516727951
 20
-66.94989539794737
 10
107.148171003677
 20
-71.05111472882933
 10
105.4511147288293
 20
-72.74817100367704
 10
101.3498953979473
 20
-68.64695167279508
  0
LWPOLYLINE
  5
1E8
100
AcDbEntity
  8
0
  6
ByLayer
 62
  256
370
   -1
100
AcDbPolyline
 90
    4
 70
    1
 43
0
 10
99.25431145841091
 20
-71.78321467285456
 10
104.6128127469764
 20
-74.00277858057207
 10
103.6943725093001
 20
-76.22008945859916
 10
98.3358712207347
 20
-74.00052555088165
  0
LWPOLYLINE
  5
1E9
100
AcDbEntity
  8
0
  6
ByLayer
 62
  256
370
   -1
100
AcDbPolyline
 90
    4
 70
    1
 43
0
 10
97.60000000000002
 20
-77.70000000000002
 10
103.4
 20
-77.70000000000002
 10
103.4
 20
-80.10000000000002
 10
97.60000000000002
 20
-80.10000000000002
  0
LWPOLYLINE
  5
1EA
100
AcDbEntity
  8
0
  6
ByLayer
 62
  256
370
   -1
100
AcDbPolyline
 90
    4
 70
    1
 43
0
 10
107.019
 20
-88.80000000000003
 10
109.419
 20
-88.80000000000003
 10
109.419
 20
-94.60000000000002
 10
107.019
 20
-94.60000000000002
  0
LWPOLYLINE
  5
1EB
100
AcDbEntity
  8
0
  6
ByLayer
 62
  256
370
   -1
100
AcDbPolyline
 90
    4
 70
    1
 43
0
 10
117.179
 20
-88.80000000000003
 10
119.579
 20
-88.80000000000003
 10
119.579
 20
-94.60000000000002
 10
117.179
 20
-94.60000000000002
  0
LWPOLYLINE
  5
1EC
100
AcDbEntity
  8
0
  6
ByLayer
 62
  256
370
   -1
100
AcDbPolyline
 90
    4
 70
    1
 43
0
 10
-16.69999999999999
 20
-115.8
 10
-10.90000000000001
 20
-115.8
 10
-10.90000000000001
 20
-118.2
 10
-16.69999999999999
 20
-118.2
  0
LWPOLYLINE
  5
1ED
100
AcDbEntity
  8
0
  6
ByLayer
 62
  256
370
   -1
100
AcDbPolyline
 90
    4
 70
    1
 43
0
 10
-15.96412877926529
 20
-121.8994744491184
 10
-10.60562749069985
 20
-119.6799105414009
 10
-9.687187253023628
 20
-121.897221419428
 10
-15.04568854158908
 20
-124.1167853271455
  0
LWPOLYLINE
  5
1EE
100
AcDbEntity
  8
0
  6
ByLayer
 62
  256
370
   -1
100
AcDbPolyline
 90
    4
 70
    1
 43
0
 10
-12.95010460205264
 20
-127.2530483272049
 10
-8.848885271170674
 20
-123.151828996323
 10
-7.151828996322957
 20
-124.8488852711707
 10
-11.25304832720492
 20
-128.9501046020526
  0
LWPOLYLINE
  5
1EF
100
AcDbEntity
  8
0
  6
ByLayer
 62
  256
370
   -1
100
AcDbPolyline
 90
    4
 70
    1
 43
0
 10
-2.19999999999999
 20
-132.7
 10
-2.199999999999989
 20
-126.9
 10
0.2000000000000165
 20
-126.9
 10
0.2000000000000163
 20
-132.7
  0
LWPOLYLINE
  5
1F0
100
AcDbEntity
  8
0
  6
ByLayer
 62
  256
370
   -1
100
AcDbPolyline
 90
    4
 70
    1
 43
0
 10
9.253048327204938
 20
-128.9501046020526
 10
5.151828996322974
 20
-124.8488852711707
 10
6.848885271170692
 20
-123.151828996323
 10
10.95010460205266
 20
-127.2530483272049
  0
LWPOLYLINE
  5
1F1
100
AcDbEntity
  8
0
  6
ByLayer
 62
  256
370
   -1
100
AcDbPolyline
 90
    4
 70
    1
 43
0
 10
13.04568854158909
 20
-124.1167853271455
 10
7.687187253023639
 20
-121.8972214194279
 10
8.605627490699858
 20
-119.6799105414008
 10
13.96412877926531
 20
-121.8994744491184
  0
LWPOLYLINE
  5
1F2
100
AcDbEntity
  8
0
  6
ByLayer
 62
  256
370
   -1
100
AcDbPolyline
 90
    4
 70
    1
 43
0
 10
14.69999999999999
 20
-118.2
 10
8.900000000000006
 20
-118.2
 10
8.900000000000006
 20
-115.8
 10
14.69999999999999
 20
-115.8
  0
LWPOLYLINE
  5
1F3
100
AcDbEntity
  8
0
  6
ByLayer
 62
  256
370
   -1
100
AcDbPolyline
 90
    4
 70
    1
 43
0
 10
13.9641287792653
 20
-112.1005255508816
 10
8.605627490699849
 20
-114.3200894585991
 10
7.68718725302363
 20
-112.102778580572
 10
13.04568854158908
 20
-109.8832146728545
  0
LWPOLYLINE
  5
1F4
100
AcDbEntity
  8
0
  6
ByLayer
 62
  256
370
   -1
100
AcDbPolyline
 90
    4
 70
    1
 43
0
 10
10.95010460205264
 20
-106.7469516727951
 10
6.848885271170675
 20
-110.848171003677
 10
5.151828996322958
 20
-109.1511147288293
 10
9.253048327204921
 20
-105.0498953979474
  0
LWPOLYLINE
  5
1F5
100
AcDbEntity
  8
0
  6
ByLayer
 62
  256
370
   -1
100
AcDbPolyline
 90
    4
 70
    1
 43
0
 10
6.116785327145447
 20
-102.9543114584109
 10
3.89722141942793
 20
-108.3128127469764
 10
1.679910541400837
 20
-107.3943725093002
 10
3.899474449118355
 20
-102.0358712207347
  0
LWPOLYLINE
  5
1F6
100
AcDbEntity
  8
0
  6
ByLayer
 62
  256
370
   -1
100
AcDbPolyline
 90
    4
 70
    1
 43
0
 10
0.1999999999999916
 20
-101.3
 10
0.1999999999999905
 20
-107.1
 10
-2.200000000000015
 20
-107.1
 10
-2.200000000000014
 20
-101.3
  0
LWPOLYLINE
  5
1F7
100
AcDbEntity
  8
0
  6
ByLayer
 62
  256
370
   -1
100
AcDbPolyline
 90
    4
 70
    1
 43
0
 10
-5.899474449118375
 20
-102.0358712207347
 10
-3.67991054140086
 20
-107.3943725093002
 10
-5.897221419427953
 20
-108.3128127469764
 10
-8.116785327145468
 20
-102.9543114584109
  0
LWPOLYLINE
  5
1F8
100
AcDbEntity
  8
0
  6
ByLayer
 62
  256
370
   -1
100
AcDbPolyline
 90
    4
 70
    1
 43
0
 10
-11.25304832720494
 20
-105.0498953979474
 10
-7.151828996322974
 20
-109.1511147288293
 10
-8.848885271170692
 20
-110.8481710036771
 10
-12.95010460205265
 20
-106.7469516727951
  0
LWPOLYLINE
  5
1F9
100
AcDbEntity
  8
0
  6
ByLayer
 62
  256
370
   -1
100
AcDbPolyline
 90
    4
 70
    1
 43
0
 10
-15.04568854158908
 20
-109.8832146728546
 10
-9.687187253023637
 20
-112.1027785805721
 10
-10.60562749069986
 20
-114.3200894585992
 10
-15.9641287792653
 20
-112.1005255508817
  0
LWPOLYLINE
  5
1FA
100
AcDbEntity
  8
0
  6
ByLayer
 62
  256
370
   -1
100
AcDbPolyline
 90
    4
 70
    1
 43
0
 10
-16.69999999999999
 20
-115.8
 10
-10.90000000000001
 20
-115.8
 10
-10.90000000000001
 20
-118.2
 10
-16.69999999999999
 20
-118.2
  0
LWPOLYLINE
  5
1FB
100
AcDbEntity
  8
0
  6
ByLayer
 62
  256
370
   -1
100
AcDbPolyline
 90
    4
 70
    1
 43
0
 10
-7.281000000000006
 20
-126.9
 10
-4.880999999999999
 20
-126.9
 10
-4.880999999999999
 20
-132.7
 10
-7.281000000000006
 20
-132.7
  0
LWPOLYLINE
  5
1FC
100
AcDbEntity
  8
0
  6
ByLayer
 62
  256
370
   -1
100
AcDbPolyline
 90
    4
 70
    1
 43
0
 10
2.87900000000002
 20
-126.9
 10
5.279000000000026
 20
-126.9
 10
5.279000000000026
 20
-132.7
 10
2.87900000000002
 20
-132.7
  0
LWPOLYLINE
  5
1FD
100
AcDbEntity
  8
0
  6
ByLayer
 62
  256
370
   -1
100
AcDbPolyline
 90
    4
 70
    1
 43
0
 10
21.40000000000001
 20
-115.8
 10
27.2
 20
-115.8
 10
27.2
 20
-118.2
 10
21.40000000000001
 20
-118.2
  0
LWPOLYLINE
  5
1FE
100
AcDbEntity
  8
0
  6
ByLayer
 62
  256
370
   -1
100
AcDbPolyline
 90
    4
 70
    1
 43
0
 10
22.13587122073471
 20
-121.8994744491184
 10
27.49437250930016
 20
-119.6799105414009
 10
28.41281274697637
 20
-121.897221419428
 10
23.05431145841093
 20
-124.1167853271455
  0
LWPOLYLINE
  5
1FF
100
AcDbEntity
  8
0
  6
ByLayer
 62
  256
370
   -1
100
AcDbPolyline
 90
    4
 70
    1
 43
0
 10
25.14989539794736
 20
-127.2530483272049
 10
29.25111472882933
 20
-123.151828996323
 10
30.94817100367705
 20
-124.8488852711707
 10
26.84695167279508
 20
-128.9501046020526
  0
LWPOLYLINE
  5
200
100
AcDbEntity
  8
0
  6
ByLayer
 62
  256
370
   -1
100
AcDbPolyline
 90
    4
 70
    1
 43
0
 10
35.90000000000001
 20
-132.7
 10
35.90000000000001
 20
-126.9
 10
38.30000000000002
 20
-126.9
 10
38.30000000000002
 20
-132.7
  0
LWPOLYLINE
  5
201
100
AcDbEntity
  8
0
  6
ByLayer
 62
  256
370
   -1
100
AcDbPolyline
 90
    4
 70
    1
 43
0
 10
47.35304832720494
 20
-128.9501046020526
 10
43.25182899632298
 20
-124.8488852711707
 10
44.9488852711707
 20
-123.151828996323
 10
49.05010460205266
 20
-127.2530483272049
  0
LWPOLYLINE
  5
202
100
AcDbEntity
  8
0
  6
ByLayer
 62
  256
370
   -1
100
AcDbPolyline
 90
    4
 70
    1
 43
0
 10
51.14568854158909
 20
-124.1167853271455
 10
45.78718725302364
 20
-121.8972214194279
 10
46.70562749069986
 20
-119.6799105414008
 10
52.0641287792653
 20
-121.8994744491184
  0
LWPOLYLINE
  5
203
100
AcDbEntity
  8
0
  6
ByLayer
 62
  256
370
   -1
100
AcDbPolyline
 90
    4
 70
    1
 43
0
 10
52.79999999999999
 20
-118.2
 10
47.00000000000001
 20
-118.2
 10
47.00000000000001
 20
-115.8
 10
52.79999999999999
 20
-115.8
  0
LWPOLYLINE
  5
204
100
AcDbEntity
  8
0
  6
ByLayer
 62
  256
370
   -1
100
AcDbPolyline
 90
    4
 70
    1
 43
0
 10
52.0641287792653
 20
-112.1005255508816
 10
46.70562749069985
 20
-114.3200894585991
 10
45.78718725302363
 20
-112.102778580572
 10
51.14568854158908
 20
-109.8832146728545
  0
LWPOLYLINE
  5
205
100
AcDbEntity
  8
0
  6
ByLayer
 62
  256
370
   -1
100
AcDbPolyline
 90
    4
 70
    1
 43
0
 10
49.05010460205264
 20
-106.7469516727951
 10
44.94888527117067
 20
-110.848171003677
 10
43.25182899632296
 20
-109.1511147288293
 10
47.35304832720492
 20
-105.0498953979474
  0
LWPOLYLINE
  5
206
100
AcDbEntity
  8
0
  6
ByLayer
 62
  256
370
   -1
100
AcDbPolyline
 90
    4
 70
    1
 43
0
 10
44.21678532714544
 20
-102.9543114584109
 10
41.99722141942793
 20
-108.3128127469764
 10
39.77991054140084
 20
-107.3943725093002
 10
41.99947444911835
 20
-102.0358712207347
  0
LWPOLYLINE
  5
207
100
AcDbEntity
  8
0
  6
ByLayer
 62
  256
370
   -1
100
AcDbPolyline
 90
    4
 70
    1
 43
0
 10
38.29999999999999
 20
-101.3
 10
38.29999999999999
 20
-107.1
 10
35.89999999999998
 20
-107.1
 10
35.89999999999998
 20
-101.3
  0
LWPOLYLINE
  5
208
100
AcDbEntity
  8
0
  6
ByLayer
 62
  256
370
   -1
100
AcDbPolyline
 90
    4
 70
    1
 43
0
 10
32.20052555088163
 20
-102.0358712207347
 10
34.42008945859914
 20
-107.3943725093002
 10
32.20277858057205
 20
-108.3128127469764
 10
29.98321467285453
 20
-102.9543114584109
  0
LWPOLYLINE
  5
209
100
AcDbEntity
  8
0
  6
ByLayer
 62
  256
370
   -1
100
AcDbPolyline
 90
    4
 70
    1
 43
0
 10
26.84695167279506
 20
-105.0498953979474
 10
30.94817100367703
 20
-109.1511147288293
 10
29.25111472882931
 20
-110.8481710036771
 10
25.14989539794735
 20
-106.7469516727951
  0
LWPOLYLINE
  5
20A
100
AcDbEntity
  8
0
  6
ByLayer
 62
  256
370
   -1
100
AcDbPolyline
 90
    4
 70
    1
 43
0
 10
23.05431145841092
 20
-109.8832146728546
 10
28.41281274697636
 20
-112.1027785805721
 10
27.49437250930015
 20
-114.3200894585992
 10
22.1358712207347
 20
-112.1005255508817
  0
LWPOLYLINE
  5
20B
100
AcDbEntity
  8
0
  6
ByLayer
 62
  256
370
   -1
100
AcDbPolyline
 90
    4
 70
    1
 43
0
 10
21.40000000000001
 20
-115.8
 10
27.2
 20
-115.8
 10
27.2
 20
-118.2
 10
21.40000000000001
 20
-118.2
  0
LWPOLYLINE
  5
20C
100
AcDbEntity
  8
0
  6
ByLayer
 62
  256
370
   -1
100
AcDbPolyline
 90
    4
 70
    1
 43
0
 10
30.819
 20
-126.9
 10
33.219
 20
-126.9
 10
33.219
 20
-132.7
 10
30.819
 20
-132.7
  0
LWPOLYLINE
  5
20D
100
AcDbEntity
  8
0
  6
ByLayer
 62
  256
370
   -1
100
AcDbPolyline
 90
    4
 70
    1
 43
0
 10
40.97900000000002
 20
-126.9
 10
43.37900000000003
 20
-126.9
 10
43.37900000000003
 20
-132.7
 10
40.97900000000002
 20
-132.7
  0
LWPOLYLINE
  5
20E
100
AcDbEntity
  8
0
  6
ByLayer
 62
  256
370
   -1
100
AcDbPolyline
 90
    4
 70
    1
 43
0
 10
59.50000000000001
 20
-115.8
 10
65.3
 20
-115.8
 10
65.3
 20
-118.2
 10
59.50000000000001
 20
-118.2
  0
LWPOLYLINE
  5
20F
100
AcDbEntity
  8
0
  6
ByLayer
 62
  256
370
   -1
100
AcDbPolyline
 90
    4
 70
    1
 43
0
 10
60.23587122073471
 20
-121.8994744491184
 10
65.59437250930016
 20
-119.6799105414009
 10
66.51281274697638
 20
-121.897221419428
 10
61.15431145841093
 20
-124.1167853271455
  0
LWPOLYLINE
  5
210
100
AcDbEntity
  8
0
  6
ByLayer
 62
  256
370
   -1
100
AcDbPolyline
 90
    4
 70
    1
 43
0
 10
63.24989539794737
 20
-127.2530483272049
 10
67.35111472882933
 20
-123.151828996323
 10
69.04817100367706
 20
-124.8488852711707
 10
64.94695167279508
 20
-128.9501046020526
  0
LWPOLYLINE
  5
211
100
AcDbEntity
  8
0
  6
ByLayer
 62
  256
370
   -1
100
AcDbPolyline
 90
    4
 70
    1
 43
0
 10
74.00000000000001
 20
-132.7
 10
74.00000000000001
 20
-126.9
 10
76.40000000000002
 20
-126.9
 10
76.40000000000002
 20
-132.7
  0
LWPOLYLINE
  5
212
100
AcDbEntity
  8
0
  6
ByLayer
 62
  256
370
   -1
100
AcDbPolyline
 90
    4
 70
    1
 43
0
 10
85.45304832720494
 20
-128.9501046020526
 10
81.35182899632298
 20
-124.8488852711707
 10
83.04888527117069
 20
-123.151828996323
 10
87.15010460205266
 20
-127.2530483272049
  0
LWPOLYLINE
  5
213
100
AcDbEntity
  8
0
  6
ByLayer
 62
  256
370
   -1
100
AcDbPolyline
 90
    4
 70
    1
 43
0
 10
89.24568854158909
 20
-124.1167853271455
 10
83.88718725302364
 20
-121.8972214194279
 10
84.80562749069986
 20
-119.6799105414008
 10
90.1641287792653
 20
-121.8994744491184
  0
LWPOLYLINE
  5
214
100
AcDbEntity
  8
0
  6
ByLayer
 62
  256
370
   -1
100
AcDbPolyline
 90
    4
 70
    1
 43
0
 10
90.89999999999999
 20
-118.2
 10
85.10000000000001
 20
-118.2
 10
85.10000000000001
 20
-115.8
 10
90.89999999999999
 20
-115.8
  0
LWPOLYLINE
  5
215
100
AcDbEntity
  8
0
  6
ByLayer
 62
  256
370
   -1
100
AcDbPolyline
 90
    4
 70
    1
 43
0
 10
90.1641287792653
 20
-112.1005255508816
 10
84.80562749069986
 20
-114.3200894585991
 10
83.88718725302363
 20
-112.102778580572
 10
89.24568854158909
 20
-109.8832146728545
  0
LWPOLYLINE
  5
216
100
AcDbEntity
  8
0
  6
ByLayer
 62
  256
370
   -1
100
AcDbPolyline
 90
    4
 70
    1
 43
0
 10
87.15010460205264
 20
-106.7469516727951
 10
83.04888527117068
 20
-110.848171003677
 10
81.35182899632295
 20
-109.1511147288293
 10
85.45304832720493
 20
-105.0498953979474
  0
LWPOLYLINE
  5
217
100
AcDbEntity
  8
0
  6
ByLayer
 62
  256
370
   -1
100
AcDbPolyline
 90
    4
 70
    1
 43
0
 10
82.31678532714545
 20
-102.9543114584109
 10
80.09722141942794
 20
-108.3128127469764
 10
77.87991054140085
 20
-107.3943725093002
 10
80.09947444911836
 20
-102.0358712207347
  0
LWPOLYLINE
  5
218
100
AcDbEntity
  8
0
  6
ByLayer
 62
  256
370
   -1
100
AcDbPolyline
 90
    4
 70
    1
 43
0
 10
76.39999999999999
 20
-101.3
 10
76.39999999999999
 20
-107.1
 10
73.99999999999999
 20
-107.1
 10
73.99999999999999
 20
-101.3
  0
LWPOLYLINE
  5
219
100
AcDbEntity
  8
0
  6
ByLayer
 62
  256
370
   -1
100
AcDbPolyline
 90
    4
 70
    1
 43
0
 10
70.30052555088163
 20
-102.0358712207347
 10
72.52008945859914
 20
-107.3943725093002
 10
70.30277858057205
 20
-108.3128127469764
 10
68.08321467285454
 20
-102.9543114584109
  0
LWPOLYLINE
  5
21A
100
AcDbEntity
  8
0
  6
ByLayer
 62
  256
370
   -1
100
AcDbPolyline
 90
    4
 70
    1
 43
0
 10
64.94695167279507
 20
-105.0498953979474
 10
69.04817100367703
 20
-109.1511147288293
 10
67.35111472882932
 20
-110.8481710036771
 10
63.24989539794735
 20
-106.7469516727951
  0
LWPOLYLINE
  5
21B
100
AcDbEntity
  8
0
  6
ByLayer
 62
  256
370
   -1
100
AcDbPolyline
 90
    4
 70
    1
 43
0
 10
61.15431145841092
 20
-109.8832146728546
 10
66.51281274697637
 20
-112.1027785805721
 10
65.59437250930014
 20
-114.3200894585992
 10
60.2358712207347
 20
-112.1005255508817
  0
LWPOLYLINE
  5
21C
100
AcDbEntity
  8
0
  6
ByLayer
 62
  256
370
   -1
100
AcDbPolyline
 90
    4
 70
    1
 43
0
 10
59.50000000000001
 20
-115.8
 10
65.3
 20
-115.8
 10
65.3
 20
-118.2
 10
59.50000000000001
 20
-118.2
  0
LWPOLYLINE
  5
21D
100
AcDbEntity
  8
0
  6
ByLayer
 62
  256
370
   -1
100
AcDbPolyline
 90
    4
 70
    1
 43
0
 10
68.919
 20
-126.9
 10
71.319
 20
-126.9
 10
71.319
 20
-132.7
 10
68.919
 20
-132.7
  0
LWPOLYLINE
  5
21E
100
AcDbEntity
  8
0
  6
ByLayer
 62
  256
370
   -1
100
AcDbPolyline
 90
    4
 70
    1
 43
0
 10
79.07900000000002
 20
-126.9
 10
81.47900000000003
 20
-126.9
 10
81.47900000000003
 20
-132.7
 10
79.07900000000002
 20
-132.7
  0
LWPOLYLINE
  5
21F
100
AcDbEntity
  8
0
  6
ByLayer
 62
  256
370
   -1
100
AcDbPolyline
 90
    4
 70
    1
 43
0
 10
97.60000000000002
 20
-115.8
 10
103.4
 20
-115.8
 10
103.4
 20
-118.2
 10
97.60000000000002
 20
-118.2
  0
LWPOLYLINE
  5
220
100
AcDbEntity
  8
0
  6
ByLayer
 62
  256
370
   -1
100
AcDbPolyline
 90
    4
 70
    1
 43
0
 10
98.3358712207347
 20
-121.8994744491184
 10
103.6943725093002
 20
-119.6799105414009
 10
104.6128127469764
 20
-121.897221419428
 10
99.25431145841094
 20
-124.1167853271455
  0
LWPOLYLINE
  5
221
100
AcDbEntity
  8
0
  6
ByLayer
 62
  256
370
   -1
100
AcDbPolyline
 90
    4
 70
    1
 43
0
 10
101.3498953979474
 20
-127.2530483272049
 10
105.4511147288293
 20
-123.151828996323
 10
107.148171003677
 20
-124.8488852711707
 10
103.0469516727951
 20
-128.9501046020526
  0
LWPOLYLINE
  5
222
100
AcDbEntity
  8
0
  6
ByLayer
 62
  256
370
   -1
100
AcDbPolyline
 90
    4
 70
    1
 43
0
 10
112.1
 20
-132.7
 10
112.1
 20
-126.9
 10
114.5
 20
-126.9
 10
114.5
 20
-132.7
  0
LWPOLYLINE
  5
223
100
AcDbEntity
  8
0
  6
ByLayer
 62
  256
370
   -1
100
AcDbPolyline
 90
    4
 70
    1
 43
0
 10
123.5530483272049
 20
-128.9501046020526
 10
119.451828996323
 20
-124.8488852711707
 10
121.1488852711707
 20
-123.151828996323
 10
125.2501046020527
 20
-127.2530483272049
  0
LWPOLYLINE
  5
224
100
AcDbEntity
  8
0
  6
ByLayer
 62
  256
370
   -1
100
AcDbPolyline
 90
    4
 70
    1
 43
0
 10
127.3456885415891
 20
-124.1167853271455
 10
121.9871872530236
 20
-121.8972214194279
 10
122.9056274906999
 20
-119.6799105414008
 10
128.2641287792653
 20
-121.8994744491184
  0
LWPOLYLINE
  5
225
100
AcDbEntity
  8
0
  6
ByLayer
 62
  256
370
   -1
100
AcDbPolyline
 90
    4
 70
    1
 43
0
 10
129
 20
-118.2
 10
123.2
 20
-118.2
 10
123.2
 20
-115.8
 10
129
 20
-115.8
  0
LWPOLYLINE
  5
226
100
AcDbEntity
  8
0
  6
ByLayer
 62
  256
370
   -1
100
AcDbPolyline
 90
    4
 70
    1
 43
0
 10
128.2641287792653
 20
-112.1005255508816
 10
122.9056274906999
 20
-114.3200894585991
 10
121.9871872530236
 20
-112.102778580572
 10
127.3456885415891
 20
-109.8832146728545
  0
LWPOLYLINE
  5
227
100
AcDbEntity
  8
0
  6
ByLayer
 62
  256
370
   -1
100
AcDbPolyline
 90
    4
 70
    1
 43
0
 10
125.2501046020526
 20
-106.7469516727951
 10
121.1488852711707
 20
-110.848171003677
 10
119.4518289963229
 20
-109.1511147288293
 10
123.5530483272049
 20
-105.0498953979474
  0
LWPOLYLINE
  5
228
100
AcDbEntity
  8
0
  6
ByLayer
 62
  256
370
   -1
100
AcDbPolyline
 90
    4
 70
    1
 43
0
 10
120.4167853271454
 20
-102.9543114584109
 10
118.1972214194279
 20
-108.3128127469764
 10
115.9799105414008
 20
-107.3943725093002
 10
118.1994744491184
 20
-102.0358712207347
  0
LWPOLYLINE
  5
229
100
AcDbEntity
  8
0
  6
ByLayer
 62
  256
370
   -1
100
AcDbPolyline
 90
    4
 70
    1
 43
0
 10
114.5
 20
-101.3
 10
114.5
 20
-107.1
 10
112.1
 20
-107.1
 10
112.1
 20
-101.3
  0
LWPOLYLINE
  5
22A
100
AcDbEntity
  8
0
  6
ByLayer
 62
  256
370
   -1
100
AcDbPolyline
 90
    4
 70
    1
 43
0
 10
108.4005255508816
 20
-102.0358712207347
 10
110.6200894585992
 20
-107.3943725093002
 10
108.4027785805721
 20
-108.3128127469764
 10
106.1832146728545
 20
-102.9543114584109
  0
LWPOLYLINE
  5
22B
100
AcDbEntity
  8
0
  6
ByLayer
 62
  256
370
   -1
100
AcDbPolyline
 90
    4
 70
    1
 43
0
 10
103.0469516727951
 20
-105.0498953979474
 10
107.148171003677
 20
-109.1511147288293
 10
105.4511147288293
 20
-110.8481710036771
 10
101.3498953979473
 20
-106.7469516727951
  0
LWPOLYLINE
  5
22C
100
AcDbEntity
  8
0
  6
ByLayer
 62
  256
370
   -1
100
AcDbPolyline
 90
    4
 70
    1
 43
0
 10
99.25431145841091
 20
-109.8832146728546
 10
104.6128127469764
 20
-112.1027785805721
 10
103.6943725093001
 20
-114.3200894585992
 10
98.3358712207347
 20
-112.1005255508817
  0
LWPOLYLINE
  5
22D
100
AcDbEntity
  8
0
  6
ByLayer
 62
  256
370
   -1
100
AcDbPolyline
 90
    4
 70
    1
 43
0
 10
97.60000000000002
 20
-115.8
 10
103.4
 20
-115.8
 10
103.4
 20
-118.2
 10
97.60000000000002
 20
-118.2
  0
LWPOLYLINE
  5
22E
100
AcDbEntity
  8
0
  6
ByLayer
 62
  256
370
   -1
100
AcDbPolyline
 90
    4
 70
    1
 43
0
 10
107.019
 20
-126.9
 10
109.419
 20
-126.9
 10
109.419
 20
-132.7
 10
107.019
 20
-132.7
  0
LWPOLYLINE
  5
22F
100
AcDbEntity
  8
0
  6
ByLayer
 62
  256
370
   -1
100
AcDbPolyline
 90
    4
 70
    1
 43
0
 10
117.179
 20
-126.9
 10
119.579
 20
-126.9
 10
119.579
 20
-132.7
 10
117.179
 20
-132.7
  0
CIRCLE
  5
230
100
AcDbEntity
  8
0
  6
ByLayer
 62
  256
370
   -1
100
AcDbCircle
 10
-0.9999999999999991
 20
0.9999999999999858
 40
3.5
  0
CIRCLE
  5
231
100
AcDbEntity
  8
0
  6
ByLayer
 62
  256
370
   -1
100
AcDbCircle
 10
37.10000000000002
 20
0.9999999999999858
 40
3.5
  0
CIRCLE
  5
232
100
AcDbEntity
  8
0
  6
ByLayer
 62
  256
370
   -1
100
AcDbCircle
 10
75.2
 20
1
 40
3.5
  0
CIRCLE
  5
233
100
AcDbEntity
  8
0
  6
ByLayer
 62
  256
370
   -1
100
AcDbCircle
 10
113.3
 20
1
 40
3.5
  0
CIRCLE
  5
234
100
AcDbEntity
  8
0
  6
ByLayer
 62
  256
370
   -1
100
AcDbCircle
 10
113.3
 20
-37.1
 40
3.5
  0
CIRCLE
  5
235
100
AcDbEntity
  8
0
  6
ByLayer
 62
  256
370
   -1
100
AcDbCircle
 10
75.2
 20
-37.1
 40
3.5
  0
CIRCLE
  5
236
100
AcDbEntity
  8
0
  6
ByLayer
 62
  256
370
   -1
100
AcDbCircle
 10
37.10000000000002
 20
-37.10000000000001
 40
3.5
  0
CIRCLE
  5
237
100
AcDbEntity
  8
0
  6
ByLayer
 62
  256
370
   -1
100
AcDbCircle
 10
-1.000000000000002
 20
-37.1
 40
3.5
  0
CIRCLE
  5
238
100
AcDbEntity
  8
0
  6
ByLayer
 62
  256
370
   -1
100
AcDbCircle
 10
-1.000000000000005
 20
-78.8795789022405
 40
3.5
  0
CIRCLE
  5
239
100
AcDbEntity
  8
0
  6
ByLayer
 62
  256
370
   -1
100
AcDbCircle
 10
37.1
 20
-78.8795789022405
 40
3.5
  0
CIRCLE
  5
23A
100
AcDbEntity
  8
0
  6
ByLayer
 62
  256
370
   -1
100
AcDbCircle
 10
75.2
 20
-78.8795789022405
 40
3.5
  0
CIRCLE
  5
23B
100
AcDbEntity
  8
0
  6
ByLayer
 62
  256
370
   -1
100
AcDbCircle
 10
113.3
 20
-78.8795789022405
 40
3.5
  0
CIRCLE
  5
23C
100
AcDbEntity
  8
0
  6
ByLayer
 62
  256
370
   -1
100
AcDbCircle
 10
113.3
 20
-117
 40
3.5
  0
CIRCLE
  5
23D
100
AcDbEntity
  8
0
  6
ByLayer
 62
  256
370
   -1
100
AcDbCircle
 10
75.2
 20
-117
 40
3.5
  0
CIRCLE
  5
23E
100
AcDbEntity
  8
0
  6
ByLayer
 62
  256
370
   -1
100
AcDbCircle
 10
37.1
 20
-117
 40
3.5
  0
CIRCLE
  5
23F
100
AcDbEntity
  8
0
  6
ByLayer
 62
  256
370
   -1
100
AcDbCircle
 10
-1.000000000000008
 20
-117
 40
3.5
  0
CIRCLE
  5
240
100
AcDbEntity
  8
0
  6
ByLayer
 62
  256
370
   -1
100
AcDbCircle
 10
-21.84969999999451
 20
-151.4018000000086
 40
1.5
  0
CIRCLE
  5
241
100
AcDbEntity
  8
0
  6
ByLayer
 62
  256
370
   -1
100
AcDbCircle
 10
-21.89970000000864
 20
-207.2650000000086
 40
1.5
  0
CIRCLE
  5
242
100
AcDbEntity
  8
0
  6
ByLayer
 62
  256
370
   -1
100
AcDbCircle
 10
133.0903000000055
 20
-207.2650000000086
 40
1.5
  0
CIRCLE
  5
243
100
AcDbEntity
  8
0
  6
ByLayer
 62
  256
370
   -1
100
AcDbCircle
 10
133.0903000000055
 20
-151.4018000000086
 40
1.5
  0
LWPOLYLINE
  5
244
100
AcDbEntity
  8
0
  6
ByLayer
 62
  256
370
   -1
100
AcDbPolyline
 90
    4
 70
    1
 43
0
 10
-15.12190000000862
 20
-206.2818000000086
 10
-7.121900000008623
 20
-206.2818000000086
 10
-7.121900000008623
 20
-208.2818000000086
 10
-15.12190000000862
 20
-208.2818000000086
  0
LWPOLYLINE
  5
245
100
AcDbEntity
  8
0
  6
ByLayer
 62
  256
370
   -1
100
AcDbPolyline
 90
    4
 70
    1
 43
0
 10
3.928099999991389
 20
-206.2818000000086
 10
11.92809999999139
 20
-206.2818000000086
 10
11.92809999999139
 20
-208.2818000000086
 10
3.928099999991389
 20
-208.2818000000086
  0
LWPOLYLINE
  5
246
100
AcDbEntity
  8
0
  6
ByLayer
 62
  256
370
   -1
100
AcDbPolyline
 90
    4
 70
    1
 43
0
 10
22.9780999999914
 20
-206.2818000000086
 10
30.9780999999914
 20
-206.2818000000086
 10
30.9780999999914
 20
-208.2818000000086
 10
22.9780999999914
 20
-208.2818000000086
  0
LWPOLYLINE
  5
247
100
AcDbEntity
  8
0
  6
ByLayer
 62
  256
370
   -1
100
AcDbPolyline
 90
    4
 70
    1
 43
0
 10
42.02809999999141
 20
-206.2818000000086
 10
50.02809999999141
 20
-206.2818000000086
 10
50.02809999999141
 20
-208.2818000000086
 10
42.02809999999141
 20
-208.2818000000086
  0
LWPOLYLINE
  5
248
100
AcDbEntity
  8
0
  6
ByLayer
 62
  256
370
   -1
100
AcDbPolyline
 90
    4
 70
    1
 43
0
 10
61.07809999999142
 20
-206.2818000000086
 10
69.07809999999142
 20
-206.2818000000086
 10
69.07809999999142
 20
-208.2818000000086
 10
61.07809999999142
 20
-208.2818000000086
  0
LWPOLYLINE
  5
249
100
AcDbEntity
  8
0
  6
ByLayer
 62
  256
370
   -1
100
AcDbPolyline
 90
    4
 70
    1
 43
0
 10
80.12809999999143
 20
-206.2818000000086
 10
88.12809999999143
 20
-206.2818000000086
 10
88.12809999999143
 20
-208.2818000000086
 10
80.12809999999143
 20
-208.2818000000086
  0
LWPOLYLINE
  5
24A
100
AcDbEntity
  8
0
  6
ByLayer
 62
  256
370
   -1
100
AcDbPolyline
 90
    4
 70
    1
 43
0
 10
99.17809999999145
 20
-206.2818000000086
 10
107.1780999999914
 20
-206.2818000000086
 10
107.1780999999914
 20
-208.2818000000086
 10
99.17809999999145
 20
-208.2818000000086
  0
LWPOLYLINE
  5
24B
100
AcDbEntity
  8
0
  6
ByLayer
 62
  256
370
   -1
100
AcDbPolyline
 90
    4
 70
    1
 43
0
 10
118.2280999999915
 20
-206.2818000000086
 10
126.2280999999915
 20
-206.2818000000086
 10
126.2280999999915
 20
-208.2818000000086
 10
118.2280999999915
 20
-208.2818000000086
  0
LWPOLYLINE
  5
24C
100
AcDbEntity
  8
0
  6
ByLayer
 62
  256
370
   -1
100
AcDbPolyline
 90
    4
 70
    1
 43
0
 10
-15.08750000000869
 20
-150.4018000000086
 10
-7.087500000008693
 20
-150.4018000000086
 10
-7.087500000008693
 20
-152.4018000000086
 10
-15.08750000000869
 20
-152.4018000000086
  0
LWPOLYLINE
  5
24D
100
AcDbEntity
  8
0
  6
ByLayer
 62
  256
370
   -1
100
AcDbPolyline
 90
    4
 70
    1
 43
0
 10
3.962499999991319
 20
-150.4018000000086
 10
11.96249999999132
 20
-150.4018000000086
 10
11.96249999999132
 20
-152.4018000000086
 10
3.962499999991319
 20
-152.4018000000086
  0
LWPOLYLINE
  5
24E
100
AcDbEntity
  8
0
  6
ByLayer
 62
  256
370
   -1
100
AcDbPolyline
 90
    4
 70
    1
 43
0
 10
23.01249999999133
 20
-150.4018000000086
 10
31.01249999999133
 20
-150.4018000000086
 10
31.01249999999133
 20
-152.4018000000086
 10
23.01249999999133
 20
-152.4018000000086
  0
LWPOLYLINE
  5
24F
100
AcDbEntity
  8
0
  6
ByLayer
 62
  256
370
   -1
100
AcDbPolyline
 90
    4
 70
    1
 43
0
 10
42.06249999999135
 20
-150.4018000000086
 10
50.06249999999135
 20
-150.4018000000086
 10
50.06249999999135
 20
-152.4018000000086
 10
42.06249999999135
 20
-152.4018000000086
  0
LWPOLYLINE
  5
250
100
AcDbEntity
  8
0
  6
ByLayer
 62
  256
370
   -1
100
AcDbPolyline
 90
    4
 70
    1
 43
0
 10
61.11249999999136
 20
-150.4018000000086
 10
69.11249999999136
 20
-150.4018000000086
 10
69.11249999999136
 20
-152.4018000000086
 10
61.11249999999136
 20
-152.4018000000086
  0
LWPOLYLINE
  5
251
100
AcDbEntity
  8
0
  6
ByLayer
 62
  256
370
   -1
100
AcDbPolyline
 90
    4
 70
    1
 43
0
 10
80.16249999999137
 20
-150.4018000000086
 10
88.16249999999137
 20
-150.4018000000086
 10
88.16249999999137
 20
-152.4018000000086
 10
80.16249999999137
 20
-152.4018000000086
  0
LWPOLYLINE
  5
252
100
AcDbEntity
  8
0
  6
ByLayer
 62
  256
370
   -1
100
AcDbPolyline
 90
    4
 70
    1
 43
0
 10
99.21249999999138
 20
-150.4018000000086
 10
107.2124999999914
 20
-150.4018000000086
 10
107.2124999999914
 20
-152.4018000000086
 10
99.21249999999138
 20
-152.4018000000086
  0
LWPOLYLINE
  5
253
100
AcDbEntity
  8
0
  6
ByLayer
 62
  256
370
   -1
100
AcDbPolyline
 90
    4
 70
    1
 43
0
 10
118.2624999999914
 20
-150.4018000000086
 10
126.2624999999914
 20
-150.4018000000086
 10
126.2624999999914
 20
-152.4018000000086
 10
118.2624999999914
 20
-152.4018000000086
  0
CIRCLE
  5
254
100
AcDbEntity
  8
0
  6
ByLayer
 62
  256
370
   -1
100
AcDbCircle
 10
-95.6981999999914
 20
-137.8496999999945
 40
1.5
  0
CIRCLE
  5
255
100
AcDbEntity
  8
0
  6
ByLayer
 62
  256
370
   -1
100
AcDbCircle
 10
-39.8349999999914
 20
-137.8997000000086
 40
1.5
  0
CIRCLE
  5
256
100
AcDbEntity
  8
0
  6
ByLayer
 62
  256
370
   -1
100
AcDbCircle
 10
-39.8349999999914
 20
17.0903000000055
 40
1.5
  0
CIRCLE
  5
257
100
AcDbEntity
  8
0
  6
ByLayer
 62
  256
370
   -1
100
AcDbCircle
 10
-95.6981999999914
 20
17.0903000000055
 40
1.5
  0
LWPOLYLINE
  5
258
100
AcDbEntity
  8
0
  6
ByLayer
 62
  256
370
   -1
100
AcDbPolyline
 90
    4
 70
    1
 43
0
 10
-40.81819999999141
 20
-131.1219000000086
 10
-40.81819999999141
 20
-123.1219000000086
 10
-38.81819999999141
 20
-123.1219000000086
 10
-38.81819999999141
 20
-131.1219000000086
  0
LWPOLYLINE
  5
259
100
AcDbEntity
  8
0
  6
ByLayer
 62
  256
370
   -1
100
AcDbPolyline
 90
    4
 70
    1
 43
0
 10
-40.81819999999141
 20
-112.0719000000086
 10
-40.81819999999141
 20
-104.0719000000086
 10
-38.81819999999141
 20
-104.0719000000086
 10
-38.81819999999141
 20
-112.0719000000086
  0
LWPOLYLINE
  5
25A
100
AcDbEntity
  8
0
  6
ByLayer
 62
  256
370
   -1
100
AcDbPolyline
 90
    4
 70
    1
 43
0
 10
-40.81819999999141
 20
-93.0219000000086
 10
-40.81819999999141
 20
-85.0219000000086
 10
-38.81819999999141
 20
-85.0219000000086
 10
-38.81819999999141
 20
-93.0219000000086
  0
LWPOLYLINE
  5
25B
100
AcDbEntity
  8
0
  6
ByLayer
 62
  256
370
   -1
100
AcDbPolyline
 90
    4
 70
    1
 43
0
 10
-40.81819999999141
 20
-73.97190000000859
 10
-40.81819999999141
 20
-65.97190000000859
 10
-38.81819999999141
 20
-65.97190000000859
 10
-38.81819999999141
 20
-73.97190000000859
  0
LWPOLYLINE
  5
25C
100
AcDbEntity
  8
0
  6
ByLayer
 62
  256
370
   -1
100
AcDbPolyline
 90
    4
 70
    1
 43
0
 10
-40.81819999999141
 20
-54.92190000000858
 10
-40.81819999999141
 20
-46.92190000000858
 10
-38.81819999999141
 20
-46.92190000000858
 10
-38.81819999999141
 20
-54.92190000000858
  0
LWPOLYLINE
  5
25D
100
AcDbEntity
  8
0
  6
ByLayer
 62
  256
370
   -1
100
AcDbPolyline
 90
    4
 70
    1
 43
0
 10
-40.81819999999141
 20
-35.87190000000857
 10
-40.81819999999141
 20
-27.87190000000857
 10
-38.81819999999141
 20
-27.87190000000857
 10
-38.81819999999141
 20
-35.87190000000857
  0
LWPOLYLINE
  5
25E
100
AcDbEntity
  8
0
  6
ByLayer
 62
  256
370
   -1
100
AcDbPolyline
 90
    4
 70
    1
 43
0
 10
-40.81819999999141
 20
-16.82190000000855
 10
-40.81819999999141
 20
-8.821900000008611
 10
-38.81819999999141
 20
-8.821900000008611
 10
-38.81819999999141
 20
-16.82190000000855
  0
LWPOLYLINE
  5
25F
100
AcDbEntity
  8
0
  6
ByLayer
 62
  256
370
   -1
100
AcDbPolyline
 90
    4
 70
    1
 43
0
 10
-40.81819999999141
 20
2.228099999991514
 10
-40.81819999999141
 20
10.22809999999151
 10
-38.81819999999141
 20
10.22809999999151
 10
-38.81819999999141
 20
2.228099999991514
  0
LWPOLYLINE
  5
260
100
AcDbEntity
  8
0
  6
ByLayer
 62
  256
370
   -1
100
AcDbPolyline
 90
    4
 70
    1
 43
0
 10
-96.6981999999914
 20
-131.0875000000087
 10
-96.6981999999914
 20
-123.0875000000087
 10
-94.6981999999914
 20
-123.0875000000087
 10
-94.6981999999914
 20
-131.0875000000087
  0
LWPOLYLINE
  5
261
100
AcDbEntity
  8
0
  6
ByLayer
 62
  256
370
   -1
100
AcDbPolyline
 90
    4
 70
    1
 43
0
 10
-96.6981999999914
 20
-112.0375000000087
 10
-96.6981999999914
 20
-104.0375000000087
 10
-94.6981999999914
 20
-104.0375000000087
 10
-94.6981999999914
 20
-112.0375000000087
  0
LWPOLYLINE
  5
262
100
AcDbEntity
  8
0
  6
ByLayer
 62
  256
370
   -1
100
AcDbPolyline
 90
    4
 70
    1
 43
0
 10
-96.6981999999914
 20
-92.98750000000865
 10
-96.6981999999914
 20
-84.98750000000865
 10
-94.6981999999914
 20
-84.98750000000865
 10
-94.6981999999914
 20
-92.98750000000865
  0
LWPOLYLINE
  5
263
100
AcDbEntity
  8
0
  6
ByLayer
 62
  256
370
   -1
100
AcDbPolyline
 90
    4
 70
    1
 43
0
 10
-96.6981999999914
 20
-73.93750000000864
 10
-96.6981999999914
 20
-65.93750000000864
 10
-94.6981999999914
 20
-65.93750000000864
 10
-94.6981999999914
 20
-73.93750000000864
  0
LWPOLYLINE
  5
264
100
AcDbEntity
  8
0
  6
ByLayer
 62
  256
370
   -1
100
AcDbPolyline
 90
    4
 70
    1
 43
0
 10
-96.6981999999914
 20
-54.88750000000863
 10
-96.6981999999914
 20
-46.88750000000863
 10
-94.6981999999914
 20
-46.88750000000863
 10
-94.6981999999914
 20
-54.88750000000863
  0
LWPOLYLINE
  5
265
100
AcDbEntity
  8
0
  6
ByLayer
 62
  256
370
   -1
100
AcDbPolyline
 90
    4
 70
    1
 43
0
 10
-96.6981999999914
 20
-35.83750000000862
 10
-96.6981999999914
 20
-27.83750000000862
 10
-94.6981999999914
 20
-27.83750000000862
 10
-94.6981999999914
 20
-35.83750000000862
  0
LWPOLYLINE
  5
266
100
AcDbEntity
  8
0
  6
ByLayer
 62
  256
370
   -1
100
AcDbPolyline
 90
    4
 70
    1
 43
0
 10
-96.6981999999914
 20
-16.78750000000861
 10
-96.6981999999914
 20
-8.787500000008606
 10
-94.6981999999914
 20
-8.787500000008606
 10
-94.6981999999914
 20
-16.78750000000861
  0
LWPOLYLINE
  5
267
100
AcDbEntity
  8
0
  6
ByLayer
 62
  256
370
   -1
100
AcDbPolyline
 90
    4
 70
    1
 43
0
 10
-96.6981999999914
 20
2.262499999991405
 10
-96.6981999999914
 20
10.26249999999141
 10
-94.6981999999914
 20
10.26249999999141
 10
-94.6981999999914
 20
2.262499999991405
  0
LWPOLYLINE
  5
268
100
AcDbEntity
  8
0
  6
ByLayer
 62
  256
370
   -1
100
AcDbPolyline
 90
    4
 70
    1
 43
0
 10
-145
 20
70
 10
175
 20
70
 10
175
 20
-250
 10
-145
 20
-250
  0
LWPOLYLINE
  5
269
100
AcDbEntity
  8
0
  6
ByLayer
 62
  256
370
   -1
100
AcDbPolyline
 90
    4
 70
    1
 43
0
 10
-100
 20
50
 10
-70
 20
50
 10
-70
 20
55
 10
-100
 20
55
  0
LWPOLYLINE
  5
26A
100
AcDbEntity
  8
0
  6
ByLayer
 62
  256
370
   -1
100
AcDbPolyline
 90
    4
 70
    1
 43
0
 10
-30
 20
50
 10
0
 20
50
 10
0
 20
55
 10
-30
 20
55
  0
LWPOLYLINE
  5
26B
100
AcDbEntity
  8
0
  6
ByLayer
 62
  256
370
   -1
100
AcDbPolyline
 90
    4
 70
    1
 43
0
 10
30
 20
50
 10
60
 20
50
 10
60
 20
55
 10
30
 20
55
  0
LWPOLYLINE
  5
26C
100
AcDbEntity
  8
0
  6
ByLayer
 62
  256
370
   -1
100
AcDbPolyline
 90
    4
 70
    1
 43
0
 10
100
 20
50
 10
130
 20
50
 10
130
 20
55
 10
100
 20
55
  0
CIRCLE
  5
26D
100
AcDbEntity
  8
0
  6
ByLayer
 62
  256
370
   -1
100
AcDbCircle
 10
-120
 20
-85
 40
1.5
  0
LWPOLYLINE
  5
26E
100
AcDbEntity
  8
0
  6
ByLayer
 62
  256
370
   -1
100
AcDbPolyline
 90
    4
 70
    1
 43
0
 10
-130
 20
20
 10
-125
 20
20
 10
-125
 20
-10
 10
-130
 20
-10
  0
LWPOLYLINE
  5
26F
100
AcDbEntity
  8
0
  6
ByLayer
 62
  256
370
   -1
100
AcDbPolyline
 90
    4
 70
    1
 43
0
 10
-130
 20
-40
 10
-125
 20
-40
 10
-125
 20
-70
 10
-130
 20
-70
  0
LWPOLYLINE
  5
270
100
AcDbEntity
  8
0
  6
ByLayer
 62
  256
370
   -1
100
AcDbPolyline
 90
    4
 70
    1
 43
0
 10
-130
 20
-100
 10
-125
 20
-100
 10
-125
 20
-130
 10
-130
 20
-130
  0
LWPOLYLINE
  5
271
100
AcDbEntity
  8
0
  6
ByLayer
 62
  256
370
   -1
100
AcDbPolyline
 90
    4
 70
    1
 43
0
 10
-130
 20
-160
 10
-125
 20
-160
 10
-125
 20
-190
 10
-130
 20
-190
  0
CIRCLE
  5
272
100
AcDbEntity
  8
0
  6
ByLayer
 62
  256
370
   -1
100
AcDbCircle
 10
-120
 20
45
 40
1.5
  0
CIRCLE
  5
273
100
AcDbEntity
  8
0
  6
ByLayer
 62
  256
370
   -1
100
AcDbCircle
 10
150
 20
-85
 40
1.5
  0
LWPOLYLINE
  5
274
100
AcDbEntity
  8
0
  6
ByLayer
 62
  256
370
   -1
100
AcDbPolyline
 90
    4
 70
    1
 43
0
 10
155
 20
20
 10
160
 20
20
 10
160
 20
-10
 10
155
 20
-10
  0
LWPOLYLINE
  5
275
100
AcDbEntity
  8
0
  6
ByLayer
 62
  256
370
   -1
100
AcDbPolyline
 90
    4
 70
    1
 43
0
 10
155
 20
-40
 10
160
 20
-40
 10
160
 20
-70
 10
155
 20
-70
  0
LWPOLYLINE
  5
276
100
AcDbEntity
  8
0
  6
ByLayer
 62
  256
370
   -1
100
AcDbPolyline
 90
    4
 70
    1
 43
0
 10
155
 20
-100
 10
160
 20
-100
 10
160
 20
-130
 10
155
 20
-130
  0
LWPOLYLINE
  5
277
100
AcDbEntity
  8
0
  6
ByLayer
 62
  256
370
   -1
100
AcDbPolyline
 90
    4
 70
    1
 43
0
 10
155
 20
-160
 10
160
 20
-160
 10
160
 20
-190
 10
155
 20
-190
  0
CIRCLE
  5
278
100
AcDbEntity
  8
0
  6
ByLayer
 62
  256
370
   -1
100
AcDbCircle
 10
150
 20
45
 40
1.5
  0
CIRCLE
  5
279
100
AcDbEntity
  8
0
  6
ByLayer
 62
  256
370
   -1
100
AcDbCircle
 10
15
 20
-225
 40
1.5
  0
LWPOLYLINE
  5
27A
100
AcDbEntity
  8
0
  6
ByLayer
 62
  256
370
   -1
100
AcDbPolyline
 90
    4
 70
    1
 43
0
 10
-100
 20
-235
 10
-70
 20
-235
 10
-70
 20
-230
 10
-100
 20
-230
  0
LWPOLYLINE
  5
27B
100
AcDbEntity
  8
0
  6
ByLayer
 62
  256
370
   -1
100
AcDbPolyline
 90
    4
 70
    1
 43
0
 10
-30
 20
-235
 10
0
 20
-235
 10
0
 20
-230
 10
-30
 20
-230
  0
LWPOLYLINE
  5
27C
100
AcDbEntity
  8
0
  6
ByLayer
 62
  256
370
   -1
100
AcDbPolyline
 90
    4
 70
    1
 43
0
 10
100
 20
-235
 10
130
 20
-235
 10
130
 20
-230
 10
100
 20
-230
  0
LWPOLYLINE
  5
27D
100
AcDbEntity
  8
0
  6
ByLayer
 62
  256
370
   -1
100
AcDbPolyline
 90
    4
 70
    1
 43
0
 10
30
 20
-235
 10
60
 20
-235
 10
60
 20
-230
 10
30
 20
-230
  0
CIRCLE
  5
27E
100
AcDbEntity
  8
0
  6
ByLayer
 62
  256
370
   -1
100
AcDbCircle
 10
-120
 20
-225
 40
1.5
  0
CIRCLE
  5
27F
100
AcDbEntity
  8
0
  6
ByLayer
 62
  256
370
   -1
100
AcDbCircle
 10
150
 20
-225
 40
1.5
  0
LINE
  5
280
100
AcDbEntity
  8
0
  6
ByLayer
 62
  256
370
   -1
100
AcDbLine
 10
210
 20
20
 11
205
 21
20
  0
LINE
  5
281
100
AcDbEntity
  8
0
  6
ByLayer
 62
  256
370
   -1
100
AcDbLine
 10
205
 20
20
 11
205
 21
-10
  0
LINE
  5
282
100
AcDbEntity
  8
0
  6
ByLayer
 62
  256
370
   -1
100
AcDbLine
 10
205
 20
-10
 11
210
 21
-10
  0
LINE
  5
283
100
AcDbEntity
  8
0
  6
ByLayer
 62
  256
370
   -1
100
AcDbLine
 10
210
 20
-10
 11
210
 21
-40
  0
LINE
  5
284
100
AcDbEntity
  8
0
  6
ByLayer
 62
  256
370
   -1
100
AcDbLine
 10
210
 20
-40
 11
205
 21
-40
  0
LINE
  5
285
100
AcDbEntity
  8
0
  6
ByLayer
 62
  256
370
   -1
100
AcDbLine
 10
205
 20
-40
 11
205
 21
-70
  0
LINE
  5
286
100
AcDbEntity
  8
0
  6
ByLayer
 62
  256
370
   -1
100
AcDbLine
 10
205
 20
-70
 11
210
 21
-70
  0
LINE
  5
287
100
AcDbEntity
  8
0
  6
ByLayer
 62
  256
370
   -1
100
AcDbLine
 10
210
 20
-70
 11
210
 21
-100
  0
LINE
  5
288
100
AcDbEntity
  8
0
  6
ByLayer
 62
  256
370
   -1
100
AcDbLine
 10
210
 20
-100
 11
205
 21
-100
  0
LINE
  5
289
100
AcDbEntity
  8
0
  6
ByLayer
 62
  256
370
   -1
100
AcDbLine
 10
205
 20
-100
 11
205
 21
-130
  0
LINE
  5
28A
100
AcDbEntity
  8
0
  6
ByLayer
 62
  256
370
   -1
100
AcDbLine
 10
205
 20
-130
 11
210
 21
-130
  0
LINE
  5
28B
100
AcDbEntity
  8
0
  6
ByLayer
 62
  256
370
   -1
100
AcDbLine
 10
210
 20
-130
 11
210
 21
-160
  0
LINE
  5
28C
100
AcDbEntity
  8
0
  6
ByLayer
 62
  256
370
   -1
100
AcDbLine
 10
210
 20
-160
 11
205
 21
-160
  0
LINE
  5
28D
100
AcDbEntity
  8
0
  6
ByLayer
 62
  256
370
   -1
100
AcDbLine
 10
205
 20
-160
 11
205
 21
-190
  0
LINE
  5
28E
100
AcDbEntity
  8
0
  6
ByLayer
 62
  256
370
   -1
100
AcDbLine
 10
205
 20
-190
 11
210
 21
-190
  0
LINE
  5
28F
100
AcDbEntity
  8
0
  6
ByLayer
 62
  256
370
   -1
100
AcDbLine
 10
260
 20
-160
 11
260
 21
-130
  0
LINE
  5
290
100
AcDbEntity
  8
0
  6
ByLayer
 62
  256
370
   -1
100
AcDbLine
 10
260
 20
-100
 11
260
 21
-70
  0
LINE
  5
291
100
AcDbEntity
  8
0
  6
ByLayer
 62
  256
370
   -1
100
AcDbLine
 10
260
 20
-40
 11
260
 21
-10
  0
LINE
  5
292
100
AcDbEntity
  8
0
  6
ByLayer
 62
  256
370
   -1
100
AcDbLine
 10
300
 20
20
 11
295
 21
20
  0
LINE
  5
293
100
AcDbEntity
  8
0
  6
ByLayer
 62
  256
370
   -1
100
AcDbLine
 10
295
 20
20
 11
295
 21
-10
  0
LINE
  5
294
100
AcDbEntity
  8
0
  6
ByLayer
 62
  256
370
   -1
100
AcDbLine
 10
295
 20
-10
 11
300
 21
-10
  0
LINE
  5
295
100
AcDbEntity
  8
0
  6
ByLayer
 62
  256
370
   -1
100
AcDbLine
 10
300
 20
-10
 11
300
 21
-40
  0
LINE
  5
296
100
AcDbEntity
  8
0
  6
ByLayer
 62
  256
370
   -1
100
AcDbLine
 10
300
 20
-40
 11
295
 21
-40
  0
LINE
  5
297
100
AcDbEntity
  8
0
  6
ByLayer
 62
  256
370
   -1
100
AcDbLine
 10
295
 20
-40
 11
295
 21
-70
  0
LINE
  5
298
100
AcDbEntity
  8
0
  6
ByLayer
 62
  256
370
   -1
100
AcDbLine
 10
295
 20
-70
 11
300
 21
-70
  0
LINE
  5
299
100
AcDbEntity
  8
0
  6
ByLayer
 62
  256
370
   -1
100
AcDbLine
 10
300
 20
-70
 11
300
 21
-100
  0
LINE
  5
29A
100
AcDbEntity
  8
0
  6
ByLayer
 62
  256
370
   -1
100
AcDbLine
 10
300
 20
-100
 11
295
 21
-100
  0
LINE
  5
29B
100
AcDbEntity
  8
0
  6
ByLayer
 62
  256
370
   -1
100
AcDbLine
 10
295
 20
-100
 11
295
 21
-130
  0
LINE
  5
29C
100
AcDbEntity
  8
0
  6
ByLayer
 62
  256
370
   -1
100
AcDbLine
 10
295
 20
-130
 11
300
 21
-130
  0
LINE
  5
29D
100
AcDbEntity
  8
0
  6
ByLayer
 62
  256
370
   -1
100
AcDbLine
 10
300
 20
-130
 11
300
 21
-160
  0
LINE
  5
29E
100
AcDbEntity
  8
0
  6
ByLayer
 62
  256
370
   -1
100
AcDbLine
 10
300
 20
-160
 11
295
 21
-160
  0
LINE
  5
29F
100
AcDbEntity
  8
0
  6
ByLayer
 62
  256
370
   -1
100
AcDbLine
 10
295
 20
-160
 11
295
 21
-190
  0
LINE
  5
2A0
100
AcDbEntity
  8
0
  6
ByLayer
 62
  256
370
   -1
100
AcDbLine
 10
295
 20
-190
 11
300
 21
-190
  0
LINE
  5
2A1
100
AcDbEntity
  8
0
  6
ByLayer
 62
  256
370
   -1
100
AcDbLine
 10
-100
 20
195
 11
-100
 21
190
  0
LINE
  5
2A2
100
AcDbEntity
  8
0
  6
ByLayer
 62
  256
370
   -1
100
AcDbLine
 10
-100
 20
190
 11
-70
 21
190
  0
LINE
  5
2A3
100
AcDbEntity
  8
0
  6
ByLayer
 62
  256
370
   -1
100
AcDbLine
 10
-70
 20
190
 11
-70
 21
195
  0
LINE
  5
2A4
100
AcDbEntity
  8
0
  6
ByLayer
 62
  256
370
   -1
100
AcDbLine
 10
-70
 20
195
 11
-30
 21
195
  0
LINE
  5
2A5
100
AcDbEntity
  8
0
  6
ByLayer
 62
  256
370
   -1
100
AcDbLine
 10
-30
 20
195
 11
-30
 21
190
  0
LINE
  5
2A6
100
AcDbEntity
  8
0
  6
ByLayer
 62
  256
370
   -1
100
AcDbLine
 10
-30
 20
190
 11
3.367778697655221e-15
 21
190
  0
LINE
  5
2A7
100
AcDbEntity
  8
0
  6
ByLayer
 62
  256
370
   -1
100
AcDbLine
 10
3.367778697655221e-15
 20
190
 11
3.673940397442059e-15
 21
195
  0
LINE
  5
2A8
100
AcDbEntity
  8
0
  6
ByLayer
 62
  256
370
   -1
100
AcDbLine
 10
3.673940397442059e-15
 20
195
 11
30
 21
195
  0
LINE
  5
2A9
100
AcDbEntity
  8
0
  6
ByLayer
 62
  256
370
   -1
100
AcDbLine
 10
30
 20
195
 11
30
 21
190
  0
LINE
  5
2AA
100
AcDbEntity
  8
0
  6
ByLayer
 62
  256
370
   -1
100
AcDbLine
 10
30
 20
190
 11
60
 21
190
  0
LINE
  5
2AB
100
AcDbEntity
  8
0
  6
ByLayer
 62
  256
370
   -1
100
AcDbLine
 10
60
 20
190
 11
60
 21
195
  0
LINE
  5
2AC
100
AcDbEntity
  8
0
  6
ByLayer
 62
  256
370
   -1
100
AcDbLine
 10
60
 20
195
 11
100
 21
195
  0
LINE
  5
2AD
100
AcDbEntity
  8
0
  6
ByLayer
 62
  256
370
   -1
100
AcDbLine
 10
100
 20
195
 11
100
 21
190
  0
LINE
  5
2AE
100
AcDbEntity
  8
0
  6
ByLayer
 62
  256
370
   -1
100
AcDbLine
 10
100
 20
190
 11
130
 21
190
  0
LINE
  5
2AF
100
AcDbEntity
  8
0
  6
ByLayer
 62
  256
370
   -1
100
AcDbLine
 10
130
 20
190
 11
130
 21
195
  0
LINE
  5
2B0
100
AcDbEntity
  8
0
  6
ByLayer
 62
  256
370
   -1
100
AcDbLine
 10
100
 20
245
 11
60
 21
245
  0
LINE
  5
2B1
100
AcDbEntity
  8
0
  6
ByLayer
 62
  256
370
   -1
100
AcDbLine
 10
30
 20
245
 11
6.735557395310443e-15
 21
245
  0
LINE
  5
2B2
100
AcDbEntity
  8
0
  6
ByLayer
 62
  256
370
   -1
100
AcDbLine
 10
-30
 20
245
 11
-70
 21
245
  0
LINE
  5
2B3
100
AcDbEntity
  8
0
  6
ByLayer
 62
  256
370
   -1
100
AcDbLine
 10
-100
 20
100
 11
-100
 21
95
  0
LINE
  5
2B4
100
AcDbEntity
  8
0
  6
ByLayer
 62
  256
370
   -1
100
AcDbLine
 10
-100
 20
95
 11
-70
 21
95
  0
LINE
  5
2B5
100
AcDbEntity
  8
0
  6
ByLayer
 62
  256
370
   -1
100
AcDbLine
 10
-70
 20
95
 11
-70
 21
100
  0
LINE
  5
2B6
100
AcDbEntity
  8
0
  6
ByLayer
 62
  256
370
   -1
100
AcDbLine
 10
-70
 20
100
 11
-30
 21
100
  0
LINE
  5
2B7
100
AcDbEntity
  8
0
  6
ByLayer
 62
  256
370
   -1
100
AcDbLine
 10
-30
 20
100
 11
-30
 21
95
  0
LINE
  5
2B8
100
AcDbEntity
  8
0
  6
ByLayer
 62
  256
370
   -1
100
AcDbLine
 10
-30
 20
95
 11
3.367778697655221e-15
 21
95
  0
LINE
  5
2B9
100
AcDbEntity
  8
0
  6
ByLayer
 62
  256
370
   -1
100
AcDbLine
 10
3.367778697655221e-15
 20
95
 11
3.673940397442059e-15
 21
100
  0
LINE
  5
2BA
100
AcDbEntity
  8
0
  6
ByLayer
 62
  256
370
   -1
100
AcDbLine
 10
3.673940397442059e-15
 20
100
 11
30
 21
100
  0
LINE
  5
2BB
100
AcDbEntity
  8
0
  6
ByLayer
 62
  256
370
   -1
100
AcDbLine
 10
30
 20
100
 11
30
 21
95
  0
LINE
  5
2BC
100
AcDbEntity
  8
0
  6
ByLayer
 62
  256
370
   -1
100
AcDbLine
 10
30
 20
95
 11
60
 21
95
  0
LINE
  5
2BD
100
AcDbEntity
  8
0
  6
ByLayer
 62
  256
370
   -1
100
AcDbLine
 10
60
 20
95
 11
60
 21
100
  0
LINE
  5
2BE
100
AcDbEntity
  8
0
  6
ByLayer
 62
  256
370
   -1
100
AcDbLine
 10
60
 20
100
 11
100
 21
100
  0
LINE
  5
2BF
100
AcDbEntity
  8
0
  6
ByLayer
 62
  256
370
   -1
100
AcDbLine
 10
100
 20
100
 11
100
 21
95
  0
LINE
  5
2C0
100
AcDbEntity
  8
0
  6
ByLayer
 62
  256
370
   -1
100
AcDbLine
 10
100
 20
95
 11
130
 21
95
  0
LINE
  5
2C1
100
AcDbEntity
  8
0
  6
ByLayer
 62
  256
370
   -1
100
AcDbLine
 10
130
 20
95
 11
130
 21
100
  0
LINE
  5
2C2
100
AcDbEntity
  8
0
  6
ByLayer
 62
  256
370
   -1
100
AcDbLine
 10
-100
 20
245
 11
-100
 21
250
  0
LINE
  5
2C3
100
AcDbEntity
  8
0
  6
ByLayer
 62
  256
370
   -1
100
AcDbLine
 10
-100
 20
250
 11
-70
 21
250
  0
LINE
  5
2C4
100
AcDbEntity
  8
0
  6
ByLayer
 62
  256
370
   -1
100
AcDbLine
 10
-70
 20
250
 11
-70
 21
245
  0
LINE
  5
2C5
100
AcDbEntity
  8
0
  6
ByLayer
 62
  256
370
   -1
100
AcDbLine
 10
-30
 20
245
 11
-30
 21
250
  0
LINE
  5
2C6
100
AcDbEntity
  8
0
  6
ByLayer
 62
  256
370
   -1
100
AcDbLine
 10
-30
 20
250
 11
0
 21
250
  0
LINE
  5
2C7
100
AcDbEntity
  8
0
  6
ByLayer
 62
  256
370
   -1
100
AcDbLine
 10
0
 20
250
 11
0
 21
245
  0
LINE
  5
2C8
100
AcDbEntity
  8
0
  6
ByLayer
 62
  256
370
   -1
100
AcDbLine
 10
30
 20
245
 11
30
 21
250
  0
LINE
  5
2C9
100
AcDbEntity
  8
0
  6
ByLayer
 62
  256
370
   -1
100
AcDbLine
 10
30
 20
250
 11
60
 21
250
  0
LINE
  5
2CA
100
AcDbEntity
  8
0
  6
ByLayer
 62
  256
370
   -1
100
AcDbLine
 10
60
 20
250
 11
60
 21
245
  0
LINE
  5
2CB
100
AcDbEntity
  8
0
  6
ByLayer
 62
  256
370
   -1
100
AcDbLine
 10
100
 20
245
 11
100
 21
250
  0
LINE
  5
2CC
100
AcDbEntity
  8
0
  6
ByLayer
 62
  256
370
   -1
100
AcDbLine
 10
100
 20
250
 11
130
 21
250
  0
LINE
  5
2CD
100
AcDbEntity
  8
0
  6
ByLayer
 62
  256
370
   -1
100
AcDbLine
 10
130
 20
250
 11
130
 21
245
  0
LINE
  5
2CE
100
AcDbEntity
  8
0
  6
ByLayer
 62
  256
370
   -1
100
AcDbLine
 10
100
 20
150
 11
60
 21
150
  0
LINE
  5
2CF
100
AcDbEntity
  8
0
  6
ByLayer
 62
  256
370
   -1
100
AcDbLine
 10
30
 20
150
 11
6.735557395310443e-15
 21
150
  0
LINE
  5
2D0
100
AcDbEntity
  8
0
  6
ByLayer
 62
  256
370
   -1
100
AcDbLine
 10
-30
 20
150
 11
-70
 21
150
  0
LINE
  5
2D1
100
AcDbEntity
  8
0
  6
ByLayer
 62
  256
370
   -1
100
AcDbLine
 10
-100
 20
150
 11
-100
 21
155
  0
LINE
  5
2D2
100
AcDbEntity
  8
0
  6
ByLayer
 62
  256
370
   -1
100
AcDbLine
 10
-100
 20
155
 11
-70
 21
155
  0
LINE
  5
2D3
100
AcDbEntity
  8
0
  6
ByLayer
 62
  256
370
   -1
100
AcDbLine
 10
-70
 20
155
 11
-70
 21
150
  0
LINE
  5
2D4
100
AcDbEntity
  8
0
  6
ByLayer
 62
  256
370
   -1
100
AcDbLine
 10
-30
 20
150
 11
-30
 21
155
  0
LINE
  5
2D5
100
AcDbEntity
  8
0
  6
ByLayer
 62
  256
370
   -1
100
AcDbLine
 10
-30
 20
155
 11
0
 21
155
  0
LINE
  5
2D6
100
AcDbEntity
  8
0
  6
ByLayer
 62
  256
370
   -1
100
AcDbLine
 10
0
 20
155
 11
0
 21
150
  0
LINE
  5
2D7
100
AcDbEntity
  8
0
  6
ByLayer
 62
  256
370
   -1
100
AcDbLine
 10
30
 20
150
 11
30
 21
155
  0
LINE
  5
2D8
100
AcDbEntity
  8
0
  6
ByLayer
 62
  256
370
   -1
100
AcDbLine
 10
30
 20
155
 11
60
 21
155
  0
LINE
  5
2D9
100
AcDbEntity
  8
0
  6
ByLayer
 62
  256
370
   -1
100
AcDbLine
 10
60
 20
155
 11
60
 21
150
  0
LINE
  5
2DA
100
AcDbEntity
  8
0
  6
ByLayer
 62
  256
370
   -1
100
AcDbLine
 10
100
 20
150
 11
100
 21
155
  0
LINE
  5
2DB
100
AcDbEntity
  8
0
  6
ByLayer
 62
  256
370
   -1
100
AcDbLine
 10
100
 20
155
 11
130
 21
155
  0
LINE
  5
2DC
100
AcDbEntity
  8
0
  6
ByLayer
 62
  256
370
   -1
100
AcDbLine
 10
130
 20
155
 11
130
 21
150
  0
LINE
  5
2DD
100
AcDbEntity
  8
0
  6
ByLayer
 62
  256
370
   -1
100
AcDbLine
 10
265
 20
20
 11
265
 21
-10
  0
LINE
  5
2DE
100
AcDbEntity
  8
0
  6
ByLayer
 62
  256
370
   -1
100
AcDbLine
 10
260
 20
20
 11
265
 21
20
  0
LINE
  5
2DF
100
AcDbEntity
  8
0
  6
ByLayer
 62
  256
370
   -1
100
AcDbLine
 10
260
 20
-10
 11
265
 21
-10
  0
LINE
  5
2E0
100
AcDbEntity
  8
0
  6
ByLayer
 62
  256
370
   -1
100
AcDbLine
 10
265
 20
-40
 11
265
 21
-70
  0
LINE
  5
2E1
100
AcDbEntity
  8
0
  6
ByLayer
 62
  256
370
   -1
100
AcDbLine
 10
260
 20
-40
 11
265
 21
-40
  0
LINE
  5
2E2
100
AcDbEntity
  8
0
  6
ByLayer
 62
  256
370
   -1
100
AcDbLine
 10
260
 20
-70
 11
265
 21
-70
  0
LINE
  5
2E3
100
AcDbEntity
  8
0
  6
ByLayer
 62
  256
370
   -1
100
AcDbLine
 10
265
 20
-160
 11
265
 21
-190
  0
LINE
  5
2E4
100
AcDbEntity
  8
0
  6
ByLayer
 62
  256
370
   -1
100
AcDbLine
 10
260
 20
-160
 11
265
 21
-160
  0
LINE
  5
2E5
100
AcDbEntity
  8
0
  6
ByLayer
 62
  256
370
   -1
100
AcDbLine
 10
260
 20
-190
 11
265
 21
-190
  0
LINE
  5
2E6
100
AcDbEntity
  8
0
  6
ByLayer
 62
  256
370
   -1
100
AcDbLine
 10
265
 20
-100
 11
265
 21
-130
  0
LINE
  5
2E7
100
AcDbEntity
  8
0
  6
ByLayer
 62
  256
370
   -1
100
AcDbLine
 10
260
 20
-100
 11
265
 21
-100
  0
LINE
  5
2E8
100
AcDbEntity
  8
0
  6
ByLayer
 62
  256
370
   -1
100
AcDbLine
 10
260
 20
-130
 11
265
 21
-130
  0
LINE
  5
2E9
100
AcDbEntity
  8
0
  6
ByLayer
 62
  256
370
   -1
100
AcDbLine
 10
350
 20
-160
 11
350
 21
-130
  0
LINE
  5
2EA
100
AcDbEntity
  8
0
  6
ByLayer
 62
  256
370
   -1
100
AcDbLine
 10
350
 20
-100
 11
350
 21
-70
  0
LINE
  5
2EB
100
AcDbEntity
  8
0
  6
ByLayer
 62
  256
370
   -1
100
AcDbLine
 10
350
 20
-40
 11
350
 21
-10
  0
LINE
  5
2EC
100
AcDbEntity
  8
0
  6
ByLayer
 62
  256
370
   -1
100
AcDbLine
 10
355
 20
20
 11
355
 21
-10
  0
LINE
  5
2ED
100
AcDbEntity
  8
0
  6
ByLayer
 62
  256
370
   -1
100
AcDbLine
 10
350
 20
20
 11
355
 21
20
  0
LINE
  5
2EE
100
AcDbEntity
  8
0
  6
ByLayer
 62
  256
370
   -1
100
AcDbLine
 10
350
 20
-10
 11
355
 21
-10
  0
LINE
  5
2EF
100
AcDbEntity
  8
0
  6
ByLayer
 62
  256
370
   -1
100
AcDbLine
 10
355
 20
-40
 11
355
 21
-70
  0
LINE
  5
2F0
100
AcDbEntity
  8
0
  6
ByLayer
 62
  256
370
   -1
100
AcDbLine
 10
350
 20
-40
 11
355
 21
-40
  0
LINE
  5
2F1
100
AcDbEntity
  8
0
  6
ByLayer
 62
  256
370
   -1
100
AcDbLine
 10
350
 20
-70
 11
355
 21
-70
  0
LINE
  5
2F2
100
AcDbEntity
  8
0
  6
ByLayer
 62
  256
370
   -1
100
AcDbLine
 10
355
 20
-160
 11
355
 21
-190
  0
LINE
  5
2F3
100
AcDbEntity
  8
0
  6
ByLayer
 62
  256
370
   -1
100
AcDbLine
 10
350
 20
-160
 11
355
 21
-160
  0
LINE
  5
2F4
100
AcDbEntity
  8
0
  6
ByLayer
 62
  256
370
   -1
100
AcDbLine
 10
350
 20
-190
 11
355
 21
-190
  0
LINE
  5
2F5
100
AcDbEntity
  8
0
  6
ByLayer
 62
  256
370
   -1
100
AcDbLine
 10
355
 20
-100
 11
355
 21
-130
  0
LINE
  5
2F6
100
AcDbEntity
  8
0
  6
ByLayer
 62
  256
370
   -1
100
AcDbLine
 10
350
 20
-100
 11
355
 21
-100
  0
LINE
  5
2F7
100
AcDbEntity
  8
0
  6
ByLayer
 62
  256
370
   -1
100
AcDbLine
 10
350
 20
-130
 11
355
 21
-130
  0
CIRCLE
  5
2F8
100
AcDbEntity
  8
0
  6
ByLayer
 62
  256
370
   -1
100
AcDbCircle
 10
-50
 20
-225
 40
1.5
  0
CIRCLE
  5
2F9
100
AcDbEntity
  8
0
  6
ByLayer
 62
  256
370
   -1
100
AcDbCircle
 10
81
 20
-225
 40
1.5
  0
LINE
  5
2FA
100
AcDbEntity
  8
0
  6
ByLayer
 62
  256
370
   -1
100
AcDbLine
 10
-125
 20
245
 11
-125
 21
230
  0
LINE
  5
2FB
100
AcDbEntity
  8
0
  6
ByLayer
 62
  256
370
   -1
100
AcDbLine
 10
-125
 20
230
 11
-130
 21
230
  0
LINE
  5
2FC
100
AcDbEntity
  8
0
  6
ByLayer
 62
  256
370
   -1
100
AcDbLine
 10
-130
 20
230
 11
-130
 21
210
  0
LINE
  5
2FD
100
AcDbEntity
  8
0
  6
ByLayer
 62
  256
370
   -1
100
AcDbLine
 10
-125
 20
150
 11
-125
 21
135
  0
LINE
  5
2FE
100
AcDbEntity
  8
0
  6
ByLayer
 62
  256
370
   -1
100
AcDbLine
 10
-125
 20
135
 11
-130
 21
135
  0
LINE
  5
2FF
100
AcDbEntity
  8
0
  6
ByLayer
 62
  256
370
   -1
100
AcDbLine
 10
-130
 20
135
 11
-130
 21
115
  0
LINE
  5
300
100
AcDbEntity
  8
0
  6
ByLayer
 62
  256
370
   -1
100
AcDbLine
 10
-130
 20
115
 11
-125
 21
115
  0
LINE
  5
301
100
AcDbEntity
  8
0
  6
ByLayer
 62
  256
370
   -1
100
AcDbLine
 10
-125
 20
115
 11
-125
 21
100
  0
LINE
  5
302
100
AcDbEntity
  8
0
  6
ByLayer
 62
  256
370
   -1
100
AcDbLine
 10
-130
 20
210
 11
-125
 21
210
  0
LINE
  5
303
100
AcDbEntity
  8
0
  6
ByLayer
 62
  256
370
   -1
100
AcDbLine
 10
-125
 20
210
 11
-125
 21
195
  0
LINE
  5
304
100
AcDbEntity
  8
0
  6
ByLayer
 62
  256
370
   -1
100
AcDbLine
 10
-125
 20
245
 11
-100
 21
245
  0
LINE
  5
305
100
AcDbEntity
  8
0
  6
ByLayer
 62
  256
370
   -1
100
AcDbLine
 10
-125
 20
195
 11
-100
 21
195
  0
LINE
  5
306
100
AcDbEntity
  8
0
  6
ByLayer
 62
  256
370
   -1
100
AcDbLine
 10
-125
 20
150
 11
-100
 21
150
  0
LINE
  5
307
100
AcDbEntity
  8
0
  6
ByLayer
 62
  256
370
   -1
100
AcDbLine
 10
-125
 20
100
 11
-100
 21
100
  0
LINE
  5
308
100
AcDbEntity
  8
0
  6
ByLayer
 62
  256
370
   -1
100
AcDbLine
 10
155
 20
195
 11
155
 21
210
  0
LINE
  5
309
100
AcDbEntity
  8
0
  6
ByLayer
 62
  256
370
   -1
100
AcDbLine
 10
155
 20
210
 11
160
 21
210
  0
LINE
  5
30A
100
AcDbEntity
  8
0
  6
ByLayer
 62
  256
370
   -1
100
AcDbLine
 10
160
 20
210
 11
160
 21
230
  0
LINE
  5
30B
100
AcDbEntity
  8
0
  6
ByLayer
 62
  256
370
   -1
100
AcDbLine
 10
160
 20
230
 11
155
 21
230
  0
LINE
  5
30C
100
AcDbEntity
  8
0
  6
ByLayer
 62
  256
370
   -1
100
AcDbLine
 10
155
 20
230
 11
155
 21
245
  0
LINE
  5
30D
100
AcDbEntity
  8
0
  6
ByLayer
 62
  256
370
   -1
100
AcDbLine
 10
155
 20
100
 11
155
 21
115
  0
LINE
  5
30E
100
AcDbEntity
  8
0
  6
ByLayer
 62
  256
370
   -1
100
AcDbLine
 10
155
 20
115
 11
160
 21
115
  0
LINE
  5
30F
100
AcDbEntity
  8
0
  6
ByLayer
 62
  256
370
   -1
100
AcDbLine
 10
160
 20
115
 11
160
 21
135
  0
LINE
  5
310
100
AcDbEntity
  8
0
  6
ByLayer
 62
  256
370
   -1
100
AcDbLine
 10
160
 20
135
 11
155
 21
135
  0
LINE
  5
311
100
AcDbEntity
  8
0
  6
ByLayer
 62
  256
370
   -1
100
AcDbLine
 10
155
 20
135
 11
155
 21
150
  0
LINE
  5
312
100
AcDbEntity
  8
0
  6
ByLayer
 62
  256
370
   -1
100
AcDbLine
 10
130
 20
245
 11
155
 21
245
  0
LINE
  5
313
100
AcDbEntity
  8
0
  6
ByLayer
 62
  256
370
   -1
100
AcDbLine
 10
130
 20
195
 11
155
 21
195
  0
LINE
  5
314
100
AcDbEntity
  8
0
  6
ByLayer
 62
  256
370
   -1
100
AcDbLine
 10
130
 20
150
 11
155
 21
150
  0
LINE
  5
315
100
AcDbEntity
  8
0
  6
ByLayer
 62
  256
370
   -1
100
AcDbLine
 10
130
 20
100
 11
155
 21
100
  0
LINE
  5
316
100
AcDbEntity
  8
0
  6
ByLayer
 62
  256
370
   -1
100
AcDbLine
 10
225
 20
50
 11
225
 21
55
  0
LINE
  5
317
100
AcDbEntity
  8
0
  6
ByLayer
 62
  256
370
   -1
100
AcDbLine
 10
225
 20
55
 11
210
 21
55
  0
LINE
  5
318
100
AcDbEntity
  8
0
  6
ByLayer
 62
  256
370
   -1
100
AcDbLine
 10
210
 20
55
 11
210
 21
50
  0
LINE
  5
319
100
AcDbEntity
  8
0
  6
ByLayer
 62
  256
370
   -1
100
AcDbLine
 10
260
 20
55
 11
245
 21
55
  0
LINE
  5
31A
100
AcDbEntity
  8
0
  6
ByLayer
 62
  256
370
   -1
100
AcDbLine
 10
245
 20
55
 11
245
 21
50
  0
LINE
  5
31B
100
AcDbEntity
  8
0
  6
ByLayer
 62
  256
370
   -1
100
AcDbLine
 10
245
 20
50
 11
225
 21
50
  0
LINE
  5
31C
100
AcDbEntity
  8
0
  6
ByLayer
 62
  256
370
   -1
100
AcDbLine
 10
315
 20
50
 11
315
 21
55
  0
LINE
  5
31D
100
AcDbEntity
  8
0
  6
ByLayer
 62
  256
370
   -1
100
AcDbLine
 10
315
 20
55
 11
300
 21
55
  0
LINE
  5
31E
100
AcDbEntity
  8
0
  6
ByLayer
 62
  256
370
   -1
100
AcDbLine
 10
300
 20
55
 11
300
 21
50
  0
LINE
  5
31F
100
AcDbEntity
  8
0
  6
ByLayer
 62
  256
370
   -1
100
AcDbLine
 10
350
 20
55
 11
335
 21
55
  0
LINE
  5
320
100
AcDbEntity
  8
0
  6
ByLayer
 62
  256
370
   -1
100
AcDbLine
 10
335
 20
55
 11
335
 21
50
  0
LINE
  5
321
100
AcDbEntity
  8
0
  6
ByLayer
 62
  256
370
   -1
100
AcDbLine
 10
335
 20
50
 11
315
 21
50
  0
LINE
  5
322
100
AcDbEntity
  8
0
  6
ByLayer
 62
  256
370
   -1
100
AcDbLine
 10
210
 20
50
 11
210
 21
20
  0
LINE
  5
323
100
AcDbEntity
  8
0
  6
ByLayer
 62
  256
370
   -1
100
AcDbLine
 10
260
 20
55
 11
260
 21
20
  0
LINE
  5
324
100
AcDbEntity
  8
0
  6
ByLayer
 62
  256
370
   -1
100
AcDbLine
 10
300
 20
50
 11
300
 21
20
  0
LINE
  5
325
100
AcDbEntity
  8
0
  6
ByLayer
 62
  256
370
   -1
100
AcDbLine
 10
350
 20
20
 11
350
 21
55
  0
LINE
  5
326
100
AcDbEntity
  8
0
  6
ByLayer
 62
  256
370
   -1
100
AcDbLine
 10
210
 20
-235
 11
225
 21
-235
  0
LINE
  5
327
100
AcDbEntity
  8
0
  6
ByLayer
 62
  256
370
   -1
100
AcDbLine
 10
225
 20
-235
 11
225
 21
-230
  0
LINE
  5
328
100
AcDbEntity
  8
0
  6
ByLayer
 62
  256
370
   -1
100
AcDbLine
 10
225
 20
-230
 11
245
 21
-230
  0
LINE
  5
329
100
AcDbEntity
  8
0
  6
ByLayer
 62
  256
370
   -1
100
AcDbLine
 10
245
 20
-230
 11
245
 21
-235
  0
LINE
  5
32A
100
AcDbEntity
  8
0
  6
ByLayer
 62
  256
370
   -1
100
AcDbLine
 10
245
 20
-235
 11
260
 21
-235
  0
LINE
  5
32B
100
AcDbEntity
  8
0
  6
ByLayer
 62
  256
370
   -1
100
AcDbLine
 10
300
 20
-235
 11
315
 21
-235
  0
LINE
  5
32C
100
AcDbEntity
  8
0
  6
ByLayer
 62
  256
370
   -1
100
AcDbLine
 10
315
 20
-235
 11
315
 21
-230
  0
LINE
  5
32D
100
AcDbEntity
  8
0
  6
ByLayer
 62
  256
370
   -1
100
AcDbLine
 10
315
 20
-230
 11
335
 21
-230
  0
LINE
  5
32E
100
AcDbEntity
  8
0
  6
ByLayer
 62
  256
370
   -1
100
AcDbLine
 10
335
 20
-230
 11
335
 21
-235
  0
LINE
  5
32F
100
AcDbEntity
  8
0
  6
ByLayer
 62
  256
370
   -1
100
AcDbLine
 10
335
 20
-235
 11
350
 21
-235
  0
LINE
  5
330
100
AcDbEntity
  8
0
  6
ByLayer
 62
  256
370
   -1
100
AcDbLine
 10
210
 20
-190
 11
210
 21
-235
  0
LINE
  5
331
100
AcDbEntity
  8
0
  6
ByLayer
 62
  256
370
   -1
100
AcDbLine
 10
260
 20
-190
 11
260
 21
-235
  0
LINE
  5
332
100
AcDbEntity
  8
0
  6
ByLayer
 62
  256
370
   -1
100
AcDbLine
 10
300
 20
-190
 11
300
 21
-235
  0
LINE
  5
333
100
AcDbEntity
  8
0
  6
ByLayer
 62
  256
370
   -1
100
AcDbLine
 10
350
 20
-190
 11
350
 21
-235
  0
CIRCLE
  5
334
100
AcDbEntity
  8
0
  6
ByLayer
 62
  256
370
   -1
100
AcDbCircle
 10
-120
 20
-25
 40
1.5
  0
CIRCLE
  5
335
100
AcDbEntity
  8
0
  6
ByLayer
 62
  256
370
   -1
100
AcDbCircle
 10
150
 20
-25
 40
1.5
  0
CIRCLE
  5
336
100
AcDbEntity
  8
0
  6
ByLayer
 62
  256
370
   -1
100
AcDbCircle
 10
-120
 20
-145
 40
1.5
  0
CIRCLE
  5
337
100
AcDbEntity
  8
0
  6
ByLayer
 62
  256
370
   -1
100
AcDbCircle
 10
150
 20
-145
 40
1.5
  0
CIRCLE
  5
338
100
AcDbEntity
  8
0
  6
ByLayer
 62
  256
370
   -1
100
AcDbCircle
 10
42.04999999999998
 20
45
 40
1.5
  0
CIRCLE
  5
339
100
AcDbEntity
  8
0
  6
ByLayer
 62
  256
370
   -1
100
AcDbCircle
 10
-95.6981999999914
 20
45
 40
1.5
  0
CIRCLE
  5
33A
100
AcDbEntity
  8
0
  6
ByLayer
 62
  256
370
   -1
100
AcDbCircle
 10
-39.83499999999136
 20
45
 40
1.5
  0
CIRCLE
  5
33B
100
AcDbEntity
  8
0
  6
ByLayer
 62
  256
370
   -1
100
AcDbCircle
 10
-39.83499999999136
 20
25
 40
1.5
  0
CIRCLE
  5
33C
100
AcDbEntity
  8
0
  6
ByLayer
 62
  256
370
   -1
100
AcDbCircle
 10
-95.6981999999914
 20
25
 40
1.5
  0
LWPOLYLINE
  5
33D
100
AcDbEntity
  8
0
  6
ByLayer
 62
  256
370
   -1
100
AcDbPolyline
 90
    8
 70
    1
 43
0
 10
-94
 20
-156.5
 10
-42
 20
-156.5
 42
-0.414213562373095
 10
-39
 20
-159.5
 10
-39
 20
-198.5
 42
-0.414213562373095
 10
-42
 20
-201.5
 10
-94
 20
-201.5
 42
-0.414213562373095
 10
-97
 20
-198.5
 10
-97
 20
-159.5
 42
-0.414213562373095
  0
LWPOLYLINE
  5
33E
100
AcDbEntity
  8
0
  6
ByLayer
 62
  256
370
   -1
100
AcDbPolyline
 90
    8
 70
    1
 43
0
 10
-19
 20
-159
 10
131
 20
-159
 42
-0.414213562373095
 10
133
 20
-161
 10
133
 20
-198
 42
-0.414213562373095
 10
131
 20
-200
 10
-19
 20
-200
 42
-0.414213562373095
 10
-21
 20
-198
 10
-21
 20
-161
 42
-0.414213562373095
  0
LWPOLYLINE
  5
33F
100
AcDbEntity
  8
0
  6
ByLayer
 62
  256
370
   -1
100
AcDbPolyline
 90
    8
 70
    1
 43
0
 10
-86
 20
45
 10
-49.10000000000002
 20
45
 42
-0.414213562373095
 10
-47.10000000000002
 20
43
 10
-47.10000000000002
 20
27
 42
-0.414213562373095
 10
-49.10000000000002
 20
25
 10
-86
 20
25
 42
-0.414213562373095
 10
-88
 20
27
 10
-88
 20
43
 42
-0.414213562373095
  0
LWPOLYLINE
  5
340
100
AcDbEntity
  8
0
  6
ByLayer
 62
  256
370
   -1
100
AcDbPolyline
 90
    8
 70
    1
 43
0
 10
-88.10000000000002
 20
-135
 10
-88.10000000000002
 20
15
 42
-0.414213562373095
 10
-86.10000000000002
 20
17
 10
-49.10000000000002
 20
17
 42
-0.414213562373095
 10
-47.10000000000002
 20
15
 10
-47.10000000000002
 20
-135
 42
-0.414213562373095
 10
-49.10000000000002
 20
-137
 10
-86.10000000000002
 20
-137
 42
-0.414213562373095
  0
LWPOLYLINE
  5
341
100
AcDbEntity
  8
0
  6
ByLayer
 62
  256
370
   -1
100
AcDbPolyline
 90
    6
 70
    1
 43
0
 10
53
 20
120
 10
99
 20
120
 10
99
 20
106
 10
53
 20
106
 42
-0.414213562373095
 10
51
 20
108
 10
51
 20
118
 42
-0.414213562373095
  0
LWPOLYLINE
  5
342
100
AcDbEntity
  8
0
  6
ByLayer
 62
  256
370
   -1
100
AcDbPolyline
 90
    7
 70
    1
 43
0
 10
101
 20
128
 10
145
 20
128
 42
-0.414213562373095
 10
147
 20
126
 10
147
 20
108
 42
-0.414213562373095
 10
145
 20
106
 10
99
 20
106
 10
99
 20
126
 42
-0.414213562373095
  0
LWPOLYLINE
  5
343
100
AcDbEntity
  8
0
  6
ByLayer
 62
  256
370
   -1
100
AcDbPolyline
 90
    8
 70
    1
 43
0
 10
-40
 20
115
 10
-22
 20
115
 42
-0.414213562373095
 10
-20
 20
113
 10
-20
 20
108
 42
-0.414213562373095
 10
-22
 20
106
 10
-40
 20
106
 42
-0.414213562373095
 10
-42
 20
108
 10
-42
 20
113
 42
-0.414213562373095
  0
LWPOLYLINE
  5
344
100
AcDbEntity
  8
0
  6
ByLayer
 62
  256
370
   -1
100
AcDbPolyline
 90
    4
 70
    1
 43
0
 10
-520
 20
70
 10
-200
 20
70
 10
-200
 20
-250
 10
-520
 20
-250
  0
LWPOLYLINE
  5
345
100
AcDbEntity
  8
0
  6
ByLayer
 62
  256
370
   -1
100
AcDbPolyline
 90
    4
 70
    1
 43
0
 10
-475
 20
50
 10
-445
 20
50
 10
-445
 20
55
 10
-475
 20
55
  0
LWPOLYLINE
  5
346
100
AcDbEntity
  8
0
  6
ByLayer
 62
  256
370
   -1
100
AcDbPolyline
 90
    4
 70
    1
 43
0
 10
-405
 20
50
 10
-375
 20
50
 10
-375
 20
55
 10
-405
 20
55
  0
LWPOLYLINE
  5
347
100
AcDbEntity
  8
0
  6
ByLayer
 62
  256
370
   -1
100
AcDbPolyline
 90
    4
 70
    1
 43
0
 10
-345
 20
50
 10
-315
 20
50
 10
-315
 20
55
 10
-345
 20
55
  0
LWPOLYLINE
  5
348
100
AcDbEntity
  8
0
  6
ByLayer
 62
  256
370
   -1
100
AcDbPolyline
 90
    4
 70
    1
 43
0
 10
-275
 20
50
 10
-245
 20
50
 10
-245
 20
55
 10
-275
 20
55
  0
CIRCLE
  5
349
100
AcDbEntity
  8
0
  6
ByLayer
 62
  256
370
   -1
100
AcDbCircle
 10
-495
 20
-85
 40
1.5
  0
LWPOLYLINE
  5
34A
100
AcDbEntity
  8
0
  6
ByLayer
 62
  256
370
   -1
100
AcDbPolyline
 90
    4
 70
    1
 43
0
 10
-505
 20
20
 10
-500
 20
20
 10
-500
 20
-10
 10
-505
 20
-10
  0
LWPOLYLINE
  5
34B
100
AcDbEntity
  8
0
  6
ByLayer
 62
  256
370
   -1
100
AcDbPolyline
 90
    4
 70
    1
 43
0
 10
-505
 20
-40
 10
-500
 20
-40
 10
-500
 20
-70
 10
-505
 20
-70
  0
LWPOLYLINE
  5
34C
100
AcDbEntity
  8
0
  6
ByLayer
 62
  256
370
   -1
100
AcDbPolyline
 90
    4
 70
    1
 43
0
 10
-505
 20
-100
 10
-500
 20
-100
 10
-500
 20
-130
 10
-505
 20
-130
  0
LWPOLYLINE
  5
34D
100
AcDbEntity
  8
0
  6
ByLayer
 62
  256
370
   -1
100
AcDbPolyline
 90
    4
 70
    1
 43
0
 10
-505
 20
-160
 10
-500
 20
-160
 10
-500
 20
-190
 10
-505
 20
-190
  0
CIRCLE
  5
34E
100
AcDbEntity
  8
0
  6
ByLayer
 62
  256
370
   -1
100
AcDbCircle
 10
-495
 20
45
 40
1.5
  0
CIRCLE
  5
34F
100
AcDbEntity
  8
0
  6
ByLayer
 62
  256
370
   -1
100
AcDbCircle
 10
-225
 20
-85
 40
1.5
  0
LWPOLYLINE
  5
350
100
AcDbEntity
  8
0
  6
ByLayer
 62
  256
370
   -1
100
AcDbPolyline
 90
    4
 70
    1
 43
0
 10
-220
 20
20
 10
-215
 20
20
 10
-215
 20
-10
 10
-220
 20
-10
  0
LWPOLYLINE
  5
351
100
AcDbEntity
  8
0
  6
ByLayer
 62
  256
370
   -1
100
AcDbPolyline
 90
    4
 70
    1
 43
0
 10
-220
 20
-40
 10
-215
 20
-40
 10
-215
 20
-70
 10
-220
 20
-70
  0
LWPOLYLINE
  5
352
100
AcDbEntity
  8
0
  6
ByLayer
 62
  256
370
   -1
100
AcDbPolyline
 90
    4
 70
    1
 43
0
 10
-220
 20
-100
 10
-215
 20
-100
 10
-215
 20
-130
 10
-220
 20
-130
  0
LWPOLYLINE
  5
353
100
AcDbEntity
  8
0
  6
ByLayer
 62
  256
370
   -1
100
AcDbPolyline
 90
    4
 70
    1
 43
0
 10
-220
 20
-160
 10
-215
 20
-160
 10
-215
 20
-190
 10
-220
 20
-190
  0
CIRCLE
  5
354
100
AcDbEntity
  8
0
  6
ByLayer
 62
  256
370
   -1
100
AcDbCircle
 10
-225
 20
45
 40
1.5
  0
LWPOLYLINE
  5
355
100
AcDbEntity
  8
0
  6
ByLayer
 62
  256
370
   -1
100
AcDbPolyline
 90
    4
 70
    1
 43
0
 10
-475
 20
-235
 10
-445
 20
-235
 10
-445
 20
-230
 10
-475
 20
-230
  0
LWPOLYLINE
  5
356
100
AcDbEntity
  8
0
  6
ByLayer
 62
  256
370
   -1
100
AcDbPolyline
 90
    4
 70
    1
 43
0
 10
-405
 20
-235
 10
-375
 20
-235
 10
-375
 20
-230
 10
-405
 20
-230
  0
LWPOLYLINE
  5
357
100
AcDbEntity
  8
0
  6
ByLayer
 62
  256
370
   -1
100
AcDbPolyline
 90
    4
 70
    1
 43
0
 10
-275
 20
-235
 10
-245
 20
-235
 10
-245
 20
-230
 10
-275
 20
-230
  0
LWPOLYLINE
  5
358
100
AcDbEntity
  8
0
  6
ByLayer
 62
  256
370
   -1
100
AcDbPolyline
 90
    4
 70
    1
 43
0
 10
-345
 20
-235
 10
-315
 20
-235
 10
-315
 20
-230
 10
-345
 20
-230
  0
CIRCLE
  5
359
100
AcDbEntity
  8
0
  6
ByLayer
 62
  256
370
   -1
100
AcDbCircle
 10
-495
 20
-225
 40
1.5
  0
CIRCLE
  5
35A
100
AcDbEntity
  8
0
  6
ByLayer
 62
  256
370
   -1
100
AcDbCircle
 10
-225
 20
-225
 40
1.5
  0
CIRCLE
  5
35B
100
AcDbEntity
  8
0
  6
ByLayer
 62
  256
370
   -1
100
AcDbCircle
 10
-425
 20
-225
 40
1.5
  0
CIRCLE
  5
35C
100
AcDbEntity
  8
0
  6
ByLayer
 62
  256
370
   -1
100
AcDbCircle
 10
-360
 20
-225
 40
1.5
  0
CIRCLE
  5
35D
100
AcDbEntity
  8
0
  6
ByLayer
 62
  256
370
   -1
100
AcDbCircle
 10
-294
 20
-225
 40
1.5
  0
CIRCLE
  5
35E
100
AcDbEntity
  8
0
  6
ByLayer
 62
  256
370
   -1
100
AcDbCircle
 10
-495
 20
-25
 40
1.5
  0
CIRCLE
  5
35F
100
AcDbEntity
  8
0
  6
ByLayer
 62
  256
370
   -1
100
AcDbCircle
 10
-225
 20
-25
 40
1.5
  0
CIRCLE
  5
360
100
AcDbEntity
  8
0
  6
ByLayer
 62
  256
370
   -1
100
AcDbCircle
 10
-495
 20
-145
 40
1.5
  0
CIRCLE
  5
361
100
AcDbEntity
  8
0
  6
ByLayer
 62
  256
370
   -1
100
AcDbCircle
 10
-225
 20
-145
 40
1.5
  0
CIRCLE
  5
362
100
AcDbEntity
  8
0
  6
ByLayer
 62
  256
370
   -1
100
AcDbCircle
 10
-418.04
 20
45
 40
1.5
  0
CIRCLE
  5
363
100
AcDbEntity
  8
0
  6
ByLayer
 62
  256
370
   -1
100
AcDbCircle
 10
-332.95
 20
45
 40
1.5
  0
CIRCLE
  5
364
100
AcDbEntity
  8
0
  6
ByLayer
 62
  256
370
   -1
100
AcDbCircle
 10
-225
 20
45
 40
1.5
  0
CIRCLE
  5
365
100
AcDbEntity
  8
0
  6
ByLayer
 62
  256
370
   -1
100
AcDbCircle
 10
-225
 20
-8.340000000000003
 40
1.5
  0
CIRCLE
  5
366
100
AcDbEntity
  8
0
  6
ByLayer
 62
  256
370
   -1
100
AcDbCircle
 10
-310.09
 20
-8.340000000000003
 40
1.5
  0
CIRCLE
  5
367
100
AcDbEntity
  8
0
  6
ByLayer
 62
  256
370
   -1
100
AcDbCircle
 10
-418.04
 20
-8.340000000000003
 40
1.5
  0
ENDSEC
  0
SECTION
  2
OBJECTS
  0
DICTIONARY
  5
C
330
0
100
AcDbDictionary
281
    1
  3
ACAD_GROUP
350
D
  0
DICTIONARY
  5
D
330
C
100
AcDbDictionary
281
    1
  0
PLOTSETTINGS
  5
368
100
AcDbPlotSettings
  6
1x1
 40
0
 41
0
 42
0
 43
0
  0
ENDSEC
  0
EOF
